<svg width="130" height="21" viewBox="0 0 130 21" fill="none" xmlns="http://www.w3.org/2000/svg">
<path fill-rule="evenodd" clip-rule="evenodd" d="M12.5389 0L13.7903 0.00292633V0.00668875L15.4721 0.00292633L16.9419 0.00459852C17.1988 0.00543461 17.4621 0.0062707 17.7315 0.00752484L17.8843 0.0121234L18.0453 0.0200663C19.2721 0.0948967 20.899 0.4795 22.1509 1.77294C23.3548 3.01746 24.0588 5.36271 24.2056 5.88819L24.2345 5.99437L26.8176 15.9769L27.7302 19.4927C27.8674 20.0215 27.5368 20.5583 26.9912 20.6908C26.9109 20.7105 26.8289 20.7205 26.746 20.7209L23.4282 20.7309H23.0777C22.6274 20.7309 22.2303 20.4442 22.1017 20.0257L22.0261 19.7795L20.928 15.5986H9.04888C8.48641 15.5986 8.03057 15.1567 8.03057 14.6116C8.03057 14.5334 8.04007 14.4552 8.05906 14.3791L8.89477 11.0281C9.00528 10.5849 9.4145 10.2727 9.88459 10.2727H19.5518L18.5369 6.45088L18.3695 5.88067C18.2624 5.51529 17.9279 5.25819 17.5398 5.23729L17.4893 5.23604L14.0027 5.24565L13.748 5.24482L13.7476 5.24189L13.5356 5.24273L10.2722 5.23311L10.2213 5.23437C9.85049 5.25401 9.52803 5.48979 9.40716 5.8305L9.39162 5.87774L9.22457 6.44754L5.73539 19.7765L5.65942 20.0228C5.53596 20.4245 5.1643 20.7054 4.73522 20.7263L4.68385 20.7276H4.3329L1.01553 20.718C0.932654 20.7176 0.850205 20.7071 0.769915 20.6875C0.241553 20.5591 -0.0856512 20.0516 0.0196758 19.5391L0.0308992 19.4893L0.943446 15.9736L3.52698 5.99103L3.58482 5.78284L3.64396 5.58427C3.89908 4.75361 4.56687 2.84815 5.61064 1.76959C6.89011 0.447728 8.56196 0.0748304 9.79696 0.0125414L9.87682 0.00877899L10.0296 0.00418047L11.3359 0.000418047L12.5389 0Z" fill="#34C359"/>
<path fill-rule="evenodd" clip-rule="evenodd" d="M49.7519 0L53.2221 0.000418047C53.7845 0.000836094 54.2408 0.443548 54.2408 0.989099V14.3085C54.2408 17.8556 51.2765 20.7309 47.6199 20.7309H35.6648C32.0082 20.7309 29.0435 17.8556 29.0435 14.3085V0.987845C29.0435 0.458597 29.4721 0.026337 30.0113 0.000836094L30.0622 0L33.5414 0.000418047C34.1039 0.000836094 34.5597 0.443548 34.5602 0.989099V14.5564C34.5602 15.1019 35.016 15.5447 35.5789 15.5447H47.7109C48.2738 15.5442 48.7297 15.1019 48.7301 14.5564L48.7331 0.987845C48.7331 0.458597 49.1622 0.026755 49.7009 0.000836094L49.7519 0Z" fill="#34C359"/>
<path fill-rule="evenodd" clip-rule="evenodd" d="M79.4776 0C80.0409 0 80.4972 0.441876 80.4972 0.987009V4.0793C80.4972 4.62485 80.0409 5.06673 79.4776 5.06673H71.051V19.7439C71.051 20.2891 70.5943 20.7309 70.0314 20.7309H66.5008C65.9375 20.7309 65.4812 20.2891 65.4812 19.7439V5.06673H57.2674C56.7041 5.06673 56.2478 4.62485 56.2478 4.0793V0.987009C56.2478 0.441876 56.7041 0 57.2674 0H79.4776Z" fill="#34C359"/>
<path fill-rule="evenodd" clip-rule="evenodd" d="M105.622 0C106.186 0 106.642 0.441876 106.642 0.987009V4.25614C106.642 4.80127 106.186 5.24314 105.622 5.24314H88.7107C88.1496 5.24314 87.6937 5.68209 87.6903 6.22514L87.6821 7.70335H105.622C106.186 7.70335 106.642 8.14523 106.642 8.69036V11.9678C106.641 12.5126 106.185 12.9544 105.622 12.9557L87.7106 12.9691L87.7024 14.4205C87.6989 14.9652 88.153 15.41 88.7164 15.4134H105.622C106.186 15.4134 106.642 15.8553 106.642 16.4004V19.7439C106.642 20.2891 106.186 20.7309 105.622 20.7309H88.8023C85.1758 20.7309 82.2292 17.8615 82.1705 14.3662L82.1697 14.2521L82.18 6.40866C82.1848 2.8678 85.1529 0 88.8126 0H105.622Z" fill="#34C359"/>
<path fill-rule="evenodd" clip-rule="evenodd" d="M109.229 0.000418047H112.711C113.277 0.000418047 113.736 0.44104 113.738 0.985337L113.771 14.7516C113.771 15.1605 114.116 15.492 114.542 15.492H128.973C129.54 15.492 130 15.9339 130 16.479V19.7435C130 20.2891 129.54 20.7305 128.973 20.7305H114.893C111.209 20.7259 108.222 17.856 108.214 14.3143L108.203 0.987427C108.202 0.459016 108.634 0.026755 109.177 0.000836094L109.228 0C109.229 0 109.229 0 109.229 0.000418047Z" fill="#34C359"/>
</svg>
