<?xml version="1.0" encoding="UTF-8"?>
<svg xmlns="http://www.w3.org/2000/svg" version="1.1" viewBox="0 0 211.6 57.8">
  <defs>
    <style>
      .cls-1 {
        fill: none;
      }

      .cls-2 {
        fill: #f57f29;
      }

      .cls-3 {
        fill: #7094aa;
      }
    </style>
  </defs>
  <!-- Generator: Adobe Illustrator 28.6.0, SVG Export Plug-In . SVG Version: 1.2.0 Build 709)  -->
  <g>
    <g id="Layer_4">
      <g>
        <g>
          <g>
            <g>
              <path class="cls-2" d="M43.9,30.4c-1.3,0-2,.6-2.1,3,0,1.5-.8,1.9-1.6,1.9-1.3,0-1.8-1.3-1.8-4.4v-4.1c0-2.4.1-4.3,1.8-4.3s1.6.6,1.6,1.8c0,1.7.7,2.3,2.1,2.3s2-.7,2-2.3-1-5-5.7-5-5.9,2.9-6.1,6.7h-12.7c-1.5,0-2.2,1-2.2,2s.7,2,2.2,2h12.7v.6c0,4.4.5,8,6.1,8s5.7-3.9,5.7-5.7-.8-2.4-2-2.4Z"/>
              <path class="cls-2" d="M49,16.7c0-1.7.8-2.5,2.1-2.5s2.1.8,2.1,2.5v5h0c.7-1.6,2.3-2.4,3.9-2.4,2.3,0,4,1.4,4,4.6v12.2c0,1.7-.8,2.5-2.1,2.5s-2.1-.8-2.1-2.5v-11.3c0-1.4-.7-1.9-1.6-1.9-1.3,0-2.2,1-2.2,3.3v9.9c0,1.7-.8,2.5-2.1,2.5s-2.1-.8-2.1-2.5v-19.4Z"/>
              <path class="cls-2" d="M76.4,34.2c0,1.2.2,2.2.2,2.8,0,1.1-.7,1.6-2.1,1.6s-2.2-.5-2.2-2.3h0c-.7,1.7-2.3,2.3-3.8,2.3-2.4,0-4.3-1.5-4.3-4.9s.8-4.4,3-5.5l3.7-1.9c.9-.5,1.3-1.2,1.3-1.9s-.5-1.8-1.6-1.8-1.9.7-2,2.2c-.1.8-.9,1.3-2,1.3s-2.2-.4-2.2-1.7c0-3.2,2.6-4.9,5.8-4.9,5.5,0,6.2,2.4,6.2,5.4v9.5ZM72.2,28.6l-1.5,1c-1.8,1.3-2.2,1.9-2.2,3.5s.6,2.2,1.5,2.2c1.4,0,2.2-1.5,2.2-3.4v-3.3Z"/>
              <path class="cls-2" d="M79.9,21.5c0-1.4.6-2.2,1.9-2.2s1.9.9,1.9,2.2v1.7h0c.6-2.3,1.7-4,3.1-4s2,.8,2,2.7-.6,2.5-2.6,2.5-2.3.9-2.3,2.5v9.1c0,1.7-.8,2.5-2.1,2.5s-2.1-.8-2.1-2.5v-14.6Z"/>
              <path class="cls-2" d="M90.5,26.2c0-3.5.9-6.9,4.4-6.9s3.2.9,3.8,2.5h0c0-1.7.7-2.5,2-2.5s2,.8,2,2.5v17.4c0,4.2-2.1,6-6.2,6s-5.4-1-5.4-3.4.9-1.8,2.1-1.8,1.6.6,1.8,1.2c.3.8.9,1.1,1.4,1.1,1.8,0,2.2-1.2,2.2-3.6v-2.5h0c-1,1.7-1.9,2.1-3.7,2.1-3.7,0-4.4-3.4-4.4-7.2v-4.8ZM94.8,29.7c0,4,.4,5.2,1.8,5.2s2-.7,2-4.5v-3.2c0-3.7-1.2-4.5-2-4.5-1.2,0-1.8,1.1-1.8,4v2.9Z"/>
              <path class="cls-2" d="M106.1,27c0-4.7.7-7.7,6.3-7.7s5.8,2.4,5.8,7.2-.2,3-2.3,3h-5.4v1.9c0,2.2.2,3.9,1.9,3.9s1.6-.9,1.6-1.9c0-1.8.9-2.2,2-2.2s2.1.4,2.1,2c0,3.3-2.3,5.3-5.6,5.3-5.6,0-6.3-3-6.3-7.7v-3.8ZM114,26.6v-1.5c0-1.4-.4-2.5-1.8-2.5s-1.8,1.1-1.8,2.5v1.5h3.6Z"/>
              <path class="cls-3" d="M121.3,21.8c0-1.7.8-2.5,2.1-2.5s2.1.8,2.1,2.5h0c.7-1.6,2.2-2.5,3.7-2.5,3.7,0,4.4,3.4,4.4,7.2v4.9c0,3.8-.7,7.2-4.4,7.2s-2.9-.7-3.7-2.1h0v5.2c0,1.7-.8,2.5-2.1,2.5s-2.1-.8-2.1-2.5v-19.9ZM125.4,30.8c0,2.6.4,4.5,2.1,4.5s1.7-1.8,1.7-4.8v-2.6c0-4-.4-5.2-1.8-5.2s-2,.7-2,4.5v3.6Z"/>
              <path class="cls-3" d="M136.3,26.4c0-3.9,1.3-7.1,6.3-7.1s6.3,3.2,6.3,7.1v5c0,3.9-1.3,7.1-6.3,7.1s-6.3-3.2-6.3-7.1v-5ZM140.6,31.1c0,3.4.5,4.2,1.9,4.2s1.9-.8,1.9-4.2v-4.4c0-3.3-.7-4.1-1.9-4.1s-1.9.8-1.9,4.1v4.4Z"/>
              <path class="cls-3" d="M152.1,21.8c0-1.7.8-2.5,2.1-2.5s2.1.8,2.1,2.5v14.3c0,1.7-.8,2.5-2.1,2.5s-2.1-.8-2.1-2.5v-14.3Z"/>
              <path class="cls-3" d="M190,26h-6.2v-4.7c0-1.4-.8-2.4-2-2.4s-2,1-2,2.4v4.7h-7.6v-2.1c0-3.1-1.7-4.6-4-4.6s-3.2.8-3.9,2.4h0c0-1.6-.8-2.4-2.1-2.4s-2.1.8-2.1,2.5v14.3c0,1.7.8,2.5,2.1,2.5s2.1-.8,2.1-2.5v-9.9c0-2.3.8-3.3,2.2-3.3s1.6.6,1.6,1.9v11.3c0,1.7.8,2.5,2.1,2.5s2.1-.8,2.1-2.5v-6h7.6v6.2c0,1.4.8,2.4,2,2.4s2-1,2-2.4v-6.2h6.2c1.4,0,2.4-.8,2.4-2s-1-2-2.4-2Z"/>
            </g>
            <path class="cls-3" d="M154.2,13c1.3,0,2.4,1.1,2.4,2.4s-1.1,2.4-2.4,2.4-2.4-1.1-2.4-2.4,1.1-2.4,2.4-2.4Z"/>
          </g>
          <rect class="cls-1" x="0" y="0" width="211.7" height="57.8"/>
        </g>
        <path class="cls-3" d="M187.9,36.3h0c0-1.4,1-2.5,2.2-2.5s2.2,1.1,2.2,2.4h0c0,1.4-1,2.5-2.2,2.5s-2.2-1.1-2.2-2.4ZM192.1,36.2h0c0-1.3-.8-2.2-1.9-2.2s-2,1-2,2.2h0c0,1.3.8,2.2,2,2.2s1.9-1,1.9-2.2ZM189.3,34.9h1c.5,0,.9.3.9.8s-.2.6-.5.8l.6,1h-.5l-.5-.9h-.4v.9h-.4v-2.5ZM190.2,36.2c.3,0,.5-.2.5-.4s-.2-.4-.5-.4h-.5v.9h.5Z"/>
      </g>
    </g>
  </g>
</svg>