<?xml version="1.0" encoding="UTF-8"?>
<svg xmlns="http://www.w3.org/2000/svg" xmlns:xlink="http://www.w3.org/1999/xlink" version="1.1" viewBox="0 0 1600 1600">
  <defs>
    <style>
      .cls-1 {
        fill: none;
      }

      .cls-2 {
        fill: #f59108;
      }

      .cls-3 {
        clip-path: url(#clippath);
      }
    </style>
    <clipPath id="clippath">
      <rect class="cls-1" width="1600" height="1600"/>
    </clipPath>
  </defs>
  <!-- Generator: Adobe Illustrator 28.6.0, SVG Export Plug-In . SVG Version: 1.2.0 Build 709)  -->
  <g>
    <g id="Layer_1">
      <polygon class="cls-2" points="45.2 923 236.5 923 135.4 1023.6 45.2 1023.6 45.2 923"/>
      <polygon class="cls-2" points="308.2 923 381.5 923 280.2 1023.5 207.7 1023.5 308.2 923"/>
      <polygon class="cls-2" points="452.9 923.3 525.7 923.3 424.1 1023.8 351.9 1023.8 452.9 923.3"/>
      <polygon class="cls-2" points="596.9 923.4 669.1 923.4 567.6 1023.9 495.4 1023.9 596.9 923.4"/>
      <polygon class="cls-2" points="740.7 923.7 740.7 1023.3 640.3 1023.3 740.7 923.7"/>
      <polygon points="807.8 1019.8 807.8 924.6 876.7 924.6 876.7 935.9 820.4 935.9 820.4 965 873.1 965 873.1 976.2 820.4 976.2 820.4 1008.6 878.9 1008.6 878.9 1019.8 807.8 1019.8"/>
      <polygon points="933.4 1019.8 933.4 924.6 946.3 924.6 996.3 999.4 996.3 924.6 1008.4 924.6 1008.4 1019.8 995.5 1019.8 945.5 945 945.5 1019.8 933.4 1019.8"/>
      <polygon points="1067.1 1019.8 1067.1 924.6 1135.9 924.6 1135.9 935.9 1079.7 935.9 1079.7 965 1132.3 965 1132.3 976.2 1079.7 976.2 1079.7 1008.6 1138.1 1008.6 1138.1 1019.8 1067.1 1019.8"/>
      <g class="cls-3">
        <path d="M1192.2,1019.8v-95.2h42.2c8.5,0,14.9.9,19.4,2.6,4.4,1.7,7.9,4.7,10.6,9.1,2.6,4.3,4,9.1,4,14.4s-2.2,12.4-6.6,17.1c-4.4,4.6-11.1,7.6-20.3,8.8,3.3,1.6,5.9,3.2,7.6,4.7,3.7,3.4,7.2,7.6,10.5,12.7l16.6,25.9h-15.8l-12.6-19.8c-3.7-5.7-6.7-10.1-9.1-13.1-2.4-3-4.5-5.2-6.4-6.4-1.9-1.2-3.8-2.1-5.7-2.5-1.4-.3-3.8-.5-7-.5h-14.6v42.3h-12.6ZM1204.8,966.6h27.1c5.8,0,10.3-.6,13.5-1.8,3.2-1.2,5.7-3.1,7.4-5.7,1.7-2.6,2.5-5.5,2.5-8.5,0-4.5-1.6-8.2-4.9-11.1-3.3-2.9-8.4-4.3-15.5-4.3h-30.1v31.5Z"/>
        <path d="M1369.6,982.5v-11.2h40.3c0,0,0,35.3,0,35.3-6.2,4.9-12.6,8.6-19.2,11.1-6.6,2.5-13.3,3.7-20.3,3.7s-17.8-2-25.5-6c-7.6-4-13.4-9.8-17.3-17.4-3.9-7.6-5.8-16-5.8-25.4s1.9-17.9,5.8-25.9c3.9-8,9.4-14,16.7-17.9,7.3-3.9,15.7-5.8,25.1-5.8s13.1,1.1,18.7,3.3c5.6,2.2,9.9,5.3,13.1,9.3,3.2,4,5.6,9.2,7.2,15.6l-11.4,3.1c-1.4-4.8-3.2-8.7-5.3-11.4-2.1-2.8-5.2-5-9.1-6.7-3.9-1.7-8.3-2.5-13.1-2.5s-10.7.9-14.9,2.6c-4.2,1.8-7.6,4.1-10.2,6.9-2.6,2.9-4.6,6-6,9.4-2.4,5.9-3.6,12.3-3.6,19.2s1.5,15.6,4.4,21.3c2.9,5.7,7.2,10,12.8,12.7,5.6,2.8,11.5,4.2,17.8,4.2s10.8-1,16-3.2c5.2-2.1,9.1-4.3,11.8-6.7v-17.7h-28Z"/>
        <path d="M1492.2,1019.8v-40.3l-36.7-54.9h15.3l18.8,28.7c3.5,5.4,6.7,10.7,9.7,16.1,2.9-5,6.3-10.6,10.4-16.8l18.4-28h14.7l-38,54.9v40.3h-12.6Z"/>
        <path d="M351.9,844.4c-19.4-1.3-36.4-4.9-52-14.6-12.4-7.7-23.1-18.1-30.8-30.5-9.5-15.3-14.2-32.5-14.2-51.7s4.6-35.2,13.9-49.8c18.9-30.1,45.3-45.3,82-47,10.2,0,19.9,1.4,29.2,4.2,40.8,12.7,66.3,49.8,66.3,92.6l-.3,21.3h-147c10.2,19.4,27.8,34.6,49.1,34.6h24.2c9.6,0,18.1,6.4,20.3,15.7.4,1.9.7,4.1.7,6.5.7,22.3-41.6,18.6-41.6,18.6M323.8,698.5c-11.9,8-19.5,16.5-24.8,30.9h101.9c-6.2-16.5-18.6-29.8-35.2-34.6-5.7-2.1-11-2.7-16.2-2.7-9,0-17.1,1.6-25.2,6.4h-.5Z"/>
        <path class="cls-2" d="M1102,843.6c-19.4-1.3-36.4-4.9-52-14.5-12.4-7.7-23.1-18-30.8-30.4-9.5-15.2-14.2-32.4-14.2-51.4s4.6-35.1,13.9-49.6c18.1-31.8,46.3-46.8,82-46.8s19.9,1.4,29.2,4.2c40.8,12.6,66.3,49.6,66.3,92.2l-.3,21.2h-147c10.2,19.3,27.8,34.4,49.1,34.4h24.2c9.6,0,18.1,6.4,20.3,15.7.4,1.9.7,4.1.7,6.5.7,22.2-41.6,18.5-41.6,18.5M1072.7,696.5c-12.1,8-19.8,16.5-25.1,30.9h103.4c-6.3-16.5-18.8-29.8-35.8-34.6-5.8-2.1-11.1-2.7-16.4-2.7-9.2,0-17.4,1.6-25.6,6.4h-.5Z"/>
        <path d="M816.7,749.2c0,7.7-.7,15.3-2.4,22.8-3.1,14-8.4,24.8-17.6,35.6-9.7,11.5-21.7,20.9-35.2,27.5-14.9,7.3-30.8,9.7-46.9,9.7-33,0-56.6-15.1-75.5-38-18.9,21.6-47.4,35.1-77.9,35.1s-48.7-8.9-69.5-26.5c-19.4-17.6-30-39.4-30-65.1l-.9-75.5c0-9.3,6.8-21.1,21.4-21.1s21,10.4,21,20.9v76.9c0,14,7.5,26.5,18.6,36.9,11.2,9.5,24.2,14.4,39.8,14.4s26.7-4.1,36.9-12.6c7.7-6.8,14.3-15.7,17.9-25.4,2.1-4.7,2.2-12.7,2.2-12.7l.4-76.9c.3-11.5,7.7-21.1,21.7-21.5,11.2,0,20,7.6,20,21.6l-.5,75.6c0,15.3,9.1,30.9,19.8,39.5,11.2,9.5,24.9,14,40,14s32.1-7.5,42.8-20.2c8.7-10.3,13.2-23.6,13.3-37.1l.3-68.7c0-9.6,5-22.6,19.6-22.6s20.9,9.1,20.9,19.4v74Z"/>
        <path class="cls-2" d="M958.3,844.1c-45-1.3-59-6.4-79.7-27.4-19.1-19.7-28.5-45.7-28.5-71.9v-117c0-5.2,1.6-10.3,4.7-14.4,1.6-2,3.6-4,6.3-5.4,5.3-2.9,11.7-2.7,17,0,10.4,5.5,12,19.9,11.4,42.5l70.7-.6c16,0,23.8,6.6,23.8,20.1s-7.1,22-23.1,22l-70.8-.6v53.4c0,16.2,5.6,30.6,16.5,42.4,17.5,18.8,39.2,16.5,56.3,16.5,0,0,22.8-1.9,22.8,21.9s-27.4,18.6-27.4,18.6"/>
        <path class="cls-2" d="M1299.3,689.9c-14.8,0-29.4,6.6-40.3,18.6-10.2,10.8-13.8,24.3-13.8,38.8s7,28.4,17.2,38.7c10.7,10.8,23.2,15,38.5,15h23.2s12,2.5,15.4,14.5c1.4,4.8.9,9.9-1.2,14.5-3.4,7.6-9.3,9.8-13.1,10.5-6,1.4-22.4,1.4-22.4,1.4-26.4,0-49.4-7.4-68.4-25.7-18.5-19.3-29.4-42.4-29.4-69.7s9.3-49.4,27.8-68.6c19-19.3,41.7-28.7,68.1-28.7h20.2c5.3,0,10.5,2.1,14,6.1,2.9,3.2,5.2,7.9,5.2,15,0,18.2-16.8,19.1-16.8,19.1l-24.3.5Z"/>
        <path class="cls-2" d="M1382.3,576.4c8.4,0,13.5,3.7,16.4,8,2.4,3.7,3.6,8.1,3.7,12.5l.4,68.7c17.7-12.1,38.1-19.8,56.4-19.8s48.1,10.1,65.1,26.9c18.3,16.9,29,37.6,31.4,63.5v84.1c-.7,11.8-6,21.6-20.1,21.6s-19.4-9.8-19.5-22v-77.1c0-11-5.1-23.8-12.8-33.9-3.9-5.2-9.5-9.5-15-13-8.8-5.6-18.7-8.5-30-8.5s-29.4,6.7-40.3,18.6c-10.3,11.4-15.7,26.4-15.7,41.8v71.1c0,14.6-4.5,23.1-19,23.1s-20.6-7-20.6-21.6v-224.3s-.1-18.7,19.7-19.5"/>
        <path d="M47.7,825.6v-150.4c0-26.5,38.7-24.9,38.7-.9,0,0,11.1-9.6,26.8-14.6,33-10.5,66.8-3,93.4,19.8,27.3,24,32.3,51.5,31.8,83.8.2,20.4,0,43.5-.6,62.9,0,24.1-37.7,24.1-37.7,0v-67.6c0-33.8-19.7-63.1-56.9-63.1s-56.7,29.4-56.7,63.2v66.9c0,24.1-38.8,23.9-38.8-.1"/>
      </g>
    </g>
  </g>
</svg>