<?xml version="1.0" encoding="UTF-8"?><svg id="Layer_2" xmlns="http://www.w3.org/2000/svg" viewBox="0 0 622.72 61.08"><defs><style>.cls-1{fill:#fff;}</style></defs><g id="Layer_1-2"><path class="cls-1" d="M26.17,33.34c-12.25,0-12.16,0-12.25,12-.03,3.79.81,7.18,2.92,10.29,1.8,2.66,1.65,4.24-2.15,4.14-3.99-.11-7.98-.05-11.97-.03-2.68.01-3.5-1.28-1.93-3.34,3.6-4.72,3.57-10.11,3.51-15.61-.09-8.1-.1-16.2,0-24.29.05-4.09-.66-7.88-3.07-11.26C-.7,2.53-.41,1.03,3.33,1.1c3.99.08,7.98.05,11.97,0,2.92-.03,3.87,1.29,2.06,3.59-5.31,6.77-2.79,14.61-3.36,22.03-.16,2.03,1.03,2.49,2.79,2.48,6.48-.04,12.97-.09,19.45.03,2.56.05,3.09-1.21,2.95-3.36-.46-7.44,1.72-15.29-3.87-21.9-1.21-1.43-.62-2.85,1.62-2.85,4.65,0,9.31-.03,13.96.02,2.71.03,2.71,1.77,1.47,3.27-3.83,4.63-3.67,10.08-3.66,15.54.01,7.44.05,14.87-.01,22.31-.04,5.02.24,9.89,3.53,14.11,1.53,1.97,1.15,3.38-1.71,3.37-4.32-.01-8.64-.04-12.97.02-2.54.03-3.81-1.05-2.02-3.18,5.19-6.2,3.26-13.5,3.65-20.46.13-2.24-1.04-2.83-3.03-2.79-3.32.07-6.65.02-9.97.01Z"/><path class="cls-1" d="M137.14,30.31c.03,17.45-13.91,30.83-32.06,30.77-17.74-.06-31.94-13.69-31.94-30.65C73.14,13.46,87.31.01,105.2,0c18.16-.01,31.9,13.03,31.93,30.31ZM127.09,33.64c-.69-9.94-5.08-20.62-16.51-27.16-11.83-6.77-24.22-.4-25.69,12.98-1.24,11.26,1.99,21.32,9.31,29.86,4.81,5.62,10.89,9.33,18.81,7.67,8.77-1.84,14.06-9.8,14.08-23.35Z"/><path class="cls-1" d="M468.46,0c17.93.1,31.9,13.53,31.86,30.61-.04,16.93-14.36,30.52-32.09,30.46-18.01-.06-32.57-14.05-32.2-30.95C436.41,12.99,450.5-.1,468.46,0ZM489.9,35.95c-.09-14.49-8.63-27.53-20.38-31.13-9.15-2.8-17.5,1.12-20.64,9.67-4.87,13.27,2.59,33.41,14.96,40.37,9.42,5.3,19.58,1.99,24.07-7.8,1.62-3.55,2.07-7.28,1.99-11.12Z"/><path class="cls-1" d="M165.72,9.68c0,14.14,0,28.28.01,42.41,0,.49.15.98.29,1.45,1.93,6.55,1.44,7.08-5.27,6.4-3.05-.31-3.62-1.71-1.73-3.76,2.39-2.61,2.49-5.6,2.48-8.78-.04-11.24-.05-22.48.01-33.72.02-3.24-.27-6.26-2.9-8.6-.86-.77-1.69-1.75-1.1-3.03.63-1.38,2-.89,3.09-.94,1.83-.07,3.68.17,5.48-.06,3.57-.46,5.7.91,7.63,3.98,9.09,14.42,18.43,28.68,27.73,42.96.76,1.16,1.09,2.78,3.36,3.45,0-12.18.05-24.14-.03-36.1-.02-3.89.8-7.91-2.02-11.43-1.3-1.62-.34-2.77,1.72-2.8,1.5-.02,3-.08,4.49,0,1.24.07,2.84-.58,3.47,1.1.47,1.25-.43,2.2-1.24,3.03-2.15,2.22-2.37,4.94-2.35,7.83.05,13.55.1,27.11-.06,40.66-.02,2.01,1.61,5.31-1.62,5.89-3.51.63-7.25,1.4-9.97-3.05-7.68-12.56-15.88-24.8-23.89-37.16-2.15-3.33-4.34-6.63-6.51-9.95-.35.06-.71.13-1.06.19Z"/><path class="cls-1" d="M253.85,59.75c-5.82,0-11.63-.05-17.45.02-3.16.04-4.68-.67-2.33-3.87,2.36-3.2,3.01-6.86,2.97-10.78-.09-9.09-.11-18.17,0-27.26.06-4.72-.31-9.21-3.25-13.19-1.75-2.37-.97-3.57,1.99-3.56,11.96.03,23.93,0,35.89.03,1.27,0,3.19-.28,3.06,1.56-.2,3.04,2.07,6.38-.31,8.99-1.12,1.22-3.41.46-5.04-.7-5.75-4.09-12.2-5.72-19.25-5.62-2.61.04-3.47.91-3.41,3.45.13,5.61.18,11.24-.02,16.85-.1,2.89.98,3.8,3.74,3.59,2.31-.18,4.65-.04,6.98-.02,1.14.01,1.86.53,1.95,1.75.11,1.4-.48,2.22-1.91,2.31-.83.06-1.66.04-2.49.05q-8.21.14-8.21,8.49c0,2.48,0,4.96,0,7.43,0,6.8,0,6.86,6.74,6.3,5.74-.47,11.01-2.37,15.77-5.6,1.62-1.1,3.44-1.8,5.12-.87,1.76.98.59,2.96.78,4.51.65,5.41-1.97,6.65-6.89,6.23-4.78-.41-9.63-.09-14.45-.09Z"/><path class="cls-1" d="M595,1.12c7.81,0,15.62-.04,23.43.03,1.49.01,3.76-.77,3.91,1.76.13,2.23,1.13,4.98-.74,6.6-1.22,1.05-3.44.62-5.05-.73-3.81-3.18-8.39-3.58-13.14-3.59-2.53,0-3.54.77-3.51,3.4.11,13.05.05,26.1.11,39.14.02,3.24,1.29,6.08,3.22,8.68,1.6,2.15,1,3.33-1.75,3.32-4.32,0-8.64,0-12.96,0-2.38,0-3.89-.8-1.98-3.15,3.52-4.34,3.73-9.34,3.69-14.53-.09-10.9-.14-21.8.04-32.7.06-3.29-1.01-4.29-4.26-4.18-4.57.14-8.96.46-12.6,3.64-1.68,1.46-4.08,1.88-5.42.49-1.63-1.69-.77-4.43-.53-6.66.23-2.14,2.27-1.48,3.63-1.49,7.97-.06,15.95-.03,23.92-.03Z"/><path class="cls-1" d="M392.21,54.91c4.69-12.28,9.16-23.28,13.06-34.48,1.93-5.53,6.39-10.72,3.41-17.34-.6-1.34.73-1.96,2.09-1.95,1.5,0,3-.08,4.49.01,1.08.06,2.47-.47,3.08.92.71,1.59-.43,2.48-1.59,3.18-2.47,1.5-3.34,3.98-4.29,6.47-5.6,14.65-11.4,29.23-16.71,43.98-1.43,3.97-3.81,3.98-7.13,4.17-3.56.2-4.85-1.33-5.98-4.38-5.32-14.4-10.9-28.71-16.35-43.07-1.07-2.83-2.6-5.32-4.77-7.45-.83-.81-1.59-1.84-.96-3.08.56-1.1,1.73-.73,2.68-.76,1.99-.05,3.99-.01,5.98-.01,6.62,0,6.59,0,5.65,6.52-.13.94-.02,2.02.32,2.9,5.47,14.34,10.99,28.66,17.03,44.37Z"/><path class="cls-1" d="M318.83,59.75c-.5,0-1,.04-1.49,0-2.44-.24-5.7,1.14-7.15-.7-1.86-2.37,1.97-4.09,2.38-6.45,1.51-8.57,3.49-17.13-1.93-25.22-3.5-5.22-6.79-10.57-10.1-15.91-1.59-2.57-3.31-4.93-6.07-6.38-1.05-.55-2.01-1.29-1.72-2.7.34-1.68,1.76-1.21,2.82-1.22,3.82-.06,7.64,0,11.46-.02,2.26-.01,3.24,1.05,2.18,3.08-1.56,2.99-.4,5.34,1.16,7.82,3.17,5.04,6.26,10.13,9.28,15.25,1.44,2.44,2.52,2.58,4.14.09,3.23-4.99,6.64-9.88,10.05-14.76,1.85-2.65,3.58-5.15,1.37-8.53-1.05-1.6-.32-2.86,1.78-2.92,1.16-.03,2.35-.16,3.48,0,1.52.22,3.64-1,4.46,1,.86,2.1-1.65,2.46-2.53,3.7-6.22,8.76-13.72,16.99-18.01,26.62-2.76,6.2-2.37,14.67,1.23,21.66,2.92,5.67,3.07,5.59-3.29,5.61-1.16,0-2.33,0-3.49,0Z"/><path class="cls-1" d="M540.93,59.74c-5.66,0-11.32-.03-16.97.02-2.96.03-4.93-.49-2.48-3.82,2.58-3.53,3.16-7.5,3.12-11.75-.1-9.1-.08-18.2,0-27.3.04-4.23-.52-8.22-3.12-11.75-2.14-2.9-1.19-4.12,2.27-4.05,3.83.08,7.66.08,11.48,0,3.02-.06,4.35.98,2.33,3.72-2.85,3.85-3.25,8.15-3.21,12.71.1,11.41.11,22.83-.02,34.24-.04,2.92.68,4.16,3.87,4.01,6.76-.31,13.72.85,19.88-3.13,1.18-.76,2.76-1.51,3.66-.49,1.4,1.57.61,3.8.58,5.75-.02,1.89-1.57,1.83-2.91,1.83-6.16.01-12.31,0-18.47,0Z"/></g></svg>