<?xml version="1.0" encoding="UTF-8"?><svg id="Layer_2" xmlns="http://www.w3.org/2000/svg" viewBox="0 0 427.43 145.98"><defs><style>.cls-1{fill:#fff;}</style></defs><g id="Layer_1-2"><path class="cls-1" d="M74.05,145.93c-9.22-.12-17.11-1.46-24.8-4.07-1.47-.5-1.83-.97-1.18-2.53,8.96-21.66,17.85-43.36,26.79-65.04.25-.6.24-1.75,1.26-1.54.85.17.41,1.13.45,1.72.85,11.4,1.71,22.81,2.45,34.22.12,1.85.71,2.39,2.53,2.34,4.57-.12,9.15-.12,13.73,0,1.7.05,2.4-.5,2.98-2.11,6.38-17.7,12.9-35.35,19.24-53.06.78-2.17,1.74-2.91,4.04-2.88,6.65.07,13.31-.1,19.96-.27,1.63-.04,2.27.48,2.66,2.1,5.49,23.07,1.12,44.16-13.32,62.88-12.1,15.68-28.34,24.73-47.96,27.57-3.27.47-6.6.91-8.84.7Z"/><path class="cls-1" d="M9.48,37.21C22.42,16.13,40.45,3.12,64.58.52c31.38-3.39,55.03,9.96,72.07,35.94-.92,1.17-1.9.73-2.73.73-8.57.04-17.14.06-25.71-.01-1.59-.01-2.25.5-2.76,2.04-4.38,13.16-8.88,26.28-13.35,39.41-.08.22-.18.44-.34.81-1.23-3.13-.74-6.31-1.06-9.37-.81-7.88-1.08-15.82-1.69-23.72-.74-9.78-1.61-19.56-2.39-29.34-.1-1.24-.05-2.49-.09-3.74-.02-.64.14-1.46-.73-1.63-.95-.19-1.28.64-1.55,1.31-1.74,4.34-3.44,8.7-5.17,13.05-7,17.63-14.01,35.26-21.02,52.89-.04.11-.22.17-.42.31-.17-3.66-.4-7.26-.48-10.87-.22-9.7-.43-19.4-.51-29.1-.01-1.99-.93-2.04-2.43-2.03-13.81.04-27.63.02-41.44.02-.91,0-1.82,0-3.3,0Z"/><path class="cls-1" d="M44.13,139.78c-10.1-4.33-18.43-10.43-25.44-18.24-8.16-9.11-13.81-19.63-16.62-31.58C-1.71,73.87-.31,58.23,6.25,43.04c.62-1.44,1.34-1.51,2.66-.99,9.81,3.81,19.63,7.57,29.46,11.3,1.27.48,1.66,1.18,1.72,2.56.64,15.83,1.36,31.66,2.08,47.49.46,10.11.96,20.22,1.46,30.32.09,1.9.3,3.79.49,6.06Z"/><path class="cls-1" d="M236.37,63.03c0-7.76.05-15.48-.04-23.19-.02-1.64.24-2.4,2.11-2.24,2.06.18,4.16.1,6.23.02,1.21-.05,1.74.18,1.73,1.59-.06,13.53-.05,27.06,0,40.6,0,1.27-.32,1.87-1.66,1.68-.49-.07-1.02-.1-1.49,0-3.96.85-6.26-1.15-8.57-4.14-5.36-6.96-11.08-13.63-16.68-20.4-.4-.48-.72-1.11-1.51-1.23-.68.69-.34,1.56-.35,2.32-.03,7.14-.06,14.28.02,21.42.02,1.64-.47,2.17-2.11,2.06-2.07-.14-4.16-.11-6.23,0-1.36.07-1.65-.44-1.65-1.7.04-13.45.04-26.9,0-40.35,0-1.37.33-2.05,1.79-1.81.08.01.17.02.25,0,6.65-1.7,9.26,3.38,12.53,7.4,4.7,5.79,9.42,11.56,14.15,17.33.29.36.56.85,1.5.65Z"/><path class="cls-1" d="M336.45,81.48c-3.53,0-6.59-.04-9.65.02-.94.02-1.44-.29-1.96-1.09-2.14-3.24-4.4-6.4-6.57-9.62-.79-1.17-1.66-1.88-3.23-1.73-1.73.17-3.5.17-5.23,0-1.84-.18-2.22.56-2.14,2.23.13,2.82-.01,5.64.06,8.46.03,1.23-.23,1.8-1.62,1.73-2.74-.13-6.23.91-8.01-.42-1.7-1.26-.49-4.96-.51-7.59-.06-11.12.04-22.25-.08-33.37-.02-2.12.6-2.59,2.63-2.54,6.23.15,12.48-.12,18.71.14,6.03.26,11.44,2.22,14.7,7.76,3.92,6.66,2.32,17.19-5.37,20.86-1.45.69-1.42,1.32-.51,2.57,2.91,3.99,5.68,8.09,8.78,12.55ZM307.75,53.44c0,2.07,0,4.14,0,6.22,0,.76-.09,1.52,1.08,1.46,3.47-.19,6.96.36,10.4-.44,3.99-.93,6.12-3.58,6.01-7.57-.1-3.69-2.59-6.33-6.43-6.98-3.14-.53-6.29-.26-9.44-.39-1.36-.06-1.7.5-1.65,1.75.08,1.99.02,3.98.02,5.97Z"/><path class="cls-1" d="M164.73,59.57c0-6.56.05-13.12-.03-19.68-.02-1.63.24-2.3,2.12-2.28,9.73.1,19.47.08,29.2.01,1.48-.01,1.96.29,1.96,1.88,0,6.17.08,6.17-6.2,6.17-4.99,0-9.99.09-14.97-.05-1.75-.05-2.08.59-1.98,2.11.12,1.74.14,3.5,0,5.23-.15,1.71.35,2.26,2.15,2.22,5.32-.13,10.65.02,15.97-.08,1.78-.04,2.23.54,2.23,2.25-.01,5.77.05,5.77-5.79,5.77-4.24,0-8.49.05-12.73-.03-1.36-.03-1.91.29-1.83,1.76.12,2.15.13,4.32,0,6.47-.1,1.55.39,1.96,1.93,1.94,6.57-.09,13.15.02,19.72-.07,1.71-.02,2.27.41,2.27,2.19-.01,6.1.06,6.1-5.97,6.1-8.57,0-17.14-.05-25.71.04-1.8.02-2.42-.32-2.37-2.27.14-6.56.05-13.12.05-19.68Z"/><path class="cls-1" d="M256.12,59.65c0-6.64.04-13.29-.03-19.93-.02-1.54.28-2.14,2.02-2.12,9.82.09,19.63.07,29.45.01,1.42,0,1.77.39,1.79,1.79.08,6.26.13,6.26-6.1,6.26-5.07,0-10.15.04-15.22-.03-1.36-.02-1.91.29-1.82,1.76.15,2.48-.83,5.73.41,7.24,1.29,1.58,4.67.42,7.14.48,3.58.08,7.16.08,10.73,0,1.44-.03,2.04.28,2.07,1.9.12,6.11.19,6.11-5.95,6.11-4.24,0-8.49.05-12.73-.03-1.32-.03-1.72.36-1.66,1.67.1,2.24.12,4.49,0,6.72-.08,1.46.47,1.78,1.84,1.77,6.57-.06,13.15.05,19.72-.07,1.89-.03,2.38.5,2.36,2.36-.06,5.94.02,5.94-5.88,5.94-8.65,0-17.31-.05-25.96.04-1.74.02-2.23-.42-2.2-2.18.11-6.56.04-13.12.04-19.68Z"/><path class="cls-1" d="M380.35,67.9c0,1.74-.21,3.52.05,5.22.41,2.71-.66,4.29-3.05,5.41-9.48,4.45-19.06,5.43-28.29-.16-7.99-4.84-11.17-12.53-10.16-21.65,1.06-9.54,7.52-16.71,16.58-18.93,8.65-2.11,16.77-1.16,23.91,4.71,1.44,1.19,2.11,2.21.16,3.49-.41.27-.72.69-1.09,1.02-1.12.99-2.11,2.42-3.42,2.83-1.5.46-2.35-1.45-3.58-2.19-6.16-3.74-14.55-2.61-19.25,2.66-4.28,4.81-4.33,13.17.13,18.52,4.28,5.14,12.29,5.94,18.04,3.22,1.01-.48.82-1.32.82-2.12,0-3.07.11-6.15-.04-9.22-.08-1.72.55-2.12,2.12-2.01,1.65.12,3.34.16,4.98,0,1.86-.19,2.22.59,2.12,2.24-.13,2.32-.03,4.65-.03,6.97Z"/><path class="cls-1" d="M405.94,56.91c3.64-6.05,7.11-11.75,10.49-17.5.75-1.27,1.52-1.9,3.09-1.8,2.48.16,4.98.04,7.91.04-2.19,3.68-4.21,7.12-6.27,10.53-3.15,5.23-6.3,10.46-9.51,15.65-.82,1.32-1.14,2.66-1.11,4.21.08,3.82-.03,7.64.05,11.46.03,1.46-.28,2.12-1.91,2.01-2.15-.14-4.33-.12-6.48,0-1.53.09-2.02-.38-1.97-1.94.11-3.98-.02-7.97.07-11.95.03-1.39-.31-2.55-1.02-3.72-5.22-8.59-10.41-17.2-15.87-26.24,3.6,0,6.86,0,10.12,0,.98,0,1.16.85,1.52,1.44,3.3,5.43,6.56,10.88,9.84,16.32.25.41.56.79,1.06,1.5Z"/><path class="cls-1" d="M276.46,115.76c0-4.87-.03-9.75.03-14.62,0-.82-.64-2.12,1.12-2.18,2.04-.07,1.17,1.47,1.18,2.27.08,5.81.06,11.62.01,17.43,0,.72.57,1.76-.53,2.15-1.17.42-1.82-.49-2.43-1.27-4.05-5.14-8.09-10.28-12.14-15.42-.14-.18-.36-.3-.94-.77,0,4.26,0,8.17,0,12.09,0,1.41-.03,2.82,0,4.23.02.79-.17,1.19-1.09,1.22-1.01.02-1.27-.35-1.26-1.29.03-6.39,0-12.78.03-19.17,0-.51-.3-1.26.56-1.41.84-.15,1.54,0,2.16.8,3.18,4.13,6.44,8.21,9.67,12.29,1.02,1.28,2.06,2.54,3.1,3.81.17-.05.35-.1.52-.16Z"/><path class="cls-1" d="M231.86,120.64c-1.58.51-2.66.23-3.34-1.23-.17-.37-.59-.63-.73-1-1.77-4.6-5.46-5-9.65-4.58-1.13.11-1.4.48-1.35,1.49.06,1.33,0,2.66.02,3.99.01.87.07,1.61-1.23,1.58-1.16-.03-1.11-.66-1.11-1.45,0-6.31,0-12.62,0-18.94,0-.72-.18-1.6,1.01-1.54,3.55.18,7.14-.46,10.67.43,3.02.76,4.85,2.58,5.29,5.78.44,3.2-.46,5.78-3.32,7.37-1.23.68-1.29,1.08-.45,2.15,1.47,1.87,2.75,3.9,4.18,5.95ZM216.87,106.47c0,1.41.02,2.81,0,4.22-.01.78.19,1.25,1.1,1.23,2.56-.05,5.15.25,7.64-.53,2.16-.67,3.49-2.21,3.71-4.46.21-2.11-.56-3.9-2.46-5.04-1.32-.79-2.77-.93-4.29-.93-5.7,0-5.7-.02-5.69,5.52Z"/><path class="cls-1" d="M330.28,120.69c-1.65.4-2.75.17-3.36-1.26-.16-.37-.58-.63-.73-1-1.77-4.58-5.43-5.05-9.64-4.6-1.09.12-1.43.41-1.38,1.46.07,1.49-.02,2.99.03,4.48.03.91-.41,1.08-1.21,1.1-.87.01-1.15-.31-1.14-1.16.02-6.56.02-13.12,0-19.68,0-.71.24-1.11.99-1.07,3.64.19,7.32-.51,10.91.48,3.02.83,4.74,2.75,5.1,5.95.35,3.12-.58,5.59-3.33,7.14-1.17.66-1.38,1.02-.49,2.14,1.48,1.86,2.76,3.9,4.23,6.01ZM315.25,106.26c0,1.41.01,2.81,0,4.22,0,.8,0,1.48,1.13,1.45,2.47-.07,4.98.23,7.4-.47,2.28-.66,3.69-2.19,3.92-4.55.2-2.11-.58-3.89-2.49-5.02-1.4-.84-2.95-.92-4.54-.91-5.41.01-5.41,0-5.41,5.3Z"/><path class="cls-1" d="M207.81,120.7c-1.61.5-2.62.12-3.11-1.52-.28-.94-.91-1.79-1.18-2.73-.37-1.3-1.19-1.54-2.4-1.51-2.91.07-5.83.12-8.73-.02-1.52-.07-2.26.46-2.68,1.84-.26.86-.84,1.63-1.1,2.5-.45,1.53-1.41,1.9-3.01,1.44,3.16-6.95,6.28-13.91,9.49-20.82.67-1.44,2.56-1.34,3.24.14,3.19,6.87,6.33,13.77,9.49,20.67ZM196.67,101.41c-1.71,3.76-3.21,7.02-4.68,10.3-.41.91-.14,1.36.95,1.33,2.49-.05,4.98-.05,7.47,0,1.12.02,1.33-.46.93-1.35-1.47-3.28-2.97-6.54-4.68-10.29Z"/><path class="cls-1" d="M165.04,109.73c0-3.07,0-6.15,0-9.22,0-.73-.17-1.6,1.02-1.53,3.63.19,7.32-.54,10.9.49,3.49,1,5.33,3.63,5.22,7.19-.12,3.49-2.27,5.94-5.79,6.8-2.22.54-4.47.55-6.69.37-2.1-.18-2.57.68-2.35,2.51.1.82.08,1.66,0,2.49-.08.84.59,2.13-1.22,2.06-1.83-.07-1.04-1.41-1.06-2.18-.09-2.99-.04-5.98-.04-8.97ZM167.43,106.26c0,1.41.02,2.83,0,4.24-.02.86.12,1.43,1.2,1.4,2.41-.06,4.83.17,7.2-.44,2.31-.59,3.78-2.1,4.04-4.47.25-2.22-.58-4.06-2.63-5.2-1.36-.75-2.83-.83-4.34-.83-5.46,0-5.46-.01-5.46,5.3Z"/><path class="cls-1" d="M288.89,110.03c0-3.07.06-6.14-.03-9.21-.04-1.32.21-1.92,1.74-1.88,3.9.11,7.81.02,11.72.05.67,0,1.58-.32,1.52.97-.06,1.2-.91.96-1.61.96-3.16.01-6.32.05-9.47-.02-1.17-.03-1.52.31-1.57,1.51-.28,6.22-.32,6.22,5.83,6.22,1.33,0,2.66,0,3.99,0,.74,0,1.57-.14,1.53,1.04-.03,1.09-.85.82-1.45.83-2.74.02-5.49.08-8.23-.02-1.34-.05-1.63.43-1.67,1.7-.21,6.72-.25,6.72,6.34,6.72,1.83,0,3.66,0,5.49,0,.66,0,1.34-.12,1.32.94-.02.98-.59,1.01-1.31,1.01-4.24,0-8.48-.06-12.72.03-1.35.03-1.45-.6-1.43-1.65.05-3.07.02-6.14.02-9.21Z"/><path class="cls-1" d="M344.28,120.94c-2.47,0-4.76-.67-6.88-1.89-.72-.41-1.36-.8-.64-1.91.91-1.41,1.24.04,1.64.27,2.41,1.33,4.96,1.82,7.65,1.5,2-.24,3.76-1.11,4.13-3.31.41-2.41-1.39-3.36-3.25-3.99-1.95-.67-4-1.04-5.95-1.73-3.04-1.07-4.41-3.04-4.17-5.68.24-2.67,2.21-4.6,5.19-5.19,2.85-.57,5.6-.31,8.24.89.65.3,1.62.38,1.02,1.68-.62,1.34-1.18.35-1.72.14-2.43-.99-4.88-1.63-7.46-.66-1.63.61-2.92,1.52-2.94,3.53-.01,1.92,1.24,2.86,2.77,3.4,2.41.85,4.98,1.29,7.31,2.29,3.73,1.6,4.48,6.17,1.55,8.73-1.84,1.6-4.14,1.99-6.51,1.96Z"/><path class="cls-1" d="M243.83,110.85c0-2.57-.16-5.16.05-7.72.16-2.01-.61-2.41-2.38-2.24-1.48.14-2.99.02-4.49.03-.66,0-1.08-.11-1.08-.94,0-.78.34-1.01,1.04-1.01,5.24,0,10.48,0,15.72,0,.65,0,1.11.12,1.08.95-.03.77-.43,1-1.1.99-1.66,0-3.33.09-4.99-.03-1.44-.1-1.81.43-1.8,1.82.07,5.4.05,10.79,0,16.19,0,.75.57,2.01-1.06,1.96-1.61-.05-.94-1.3-.96-2.04-.08-2.65-.03-5.31-.03-7.97Z"/></g></svg>