<?xml version="1.0" encoding="UTF-8"?><svg id="Layer_2" xmlns="http://www.w3.org/2000/svg" viewBox="0 0 147.49 80.63"><defs><style>.cls-1{fill:#fff;}</style></defs><g id="Layer_1-2"><path class="cls-1" d="M40.1,47.27c-2.41,3.1-5.18,5.58-8.38,7.58-3.19,1.99-6.6,3.48-10.27,4.33-.52.12-.69.31-.69.87.02,6.55.01,13.1.01,19.65,0,.24,0,.47,0,.75H0V1.72c14.72-2.33,28.26-.1,39.85,10.2V.87h38.57v21.99s.09.05.14.07c.11-.16.23-.31.33-.48,4.5-7,9-13.99,13.48-21,.3-.46.61-.63,1.16-.63,7.01.02,14.03.01,21.04.01.22,0,.44,0,.81,0-5.82,9.93-11.58,19.77-17.37,29.64.42.39.82.75,1.3,1.19.18-.52.33-.97.48-1.41,2.11-6.21,5.06-11.96,9.41-16.92,6-6.85,13.52-11.01,22.47-12.62,4.84-.87,9.7-.95,14.57-.26.04,0,.09,0,.13.02,1.22.28,1.02-.06,1.02,1.2,0,6.31,0,12.62,0,18.92v.79c-11.11-3.31-19.83.2-26.76,9.32h26.45v19.6h-25.83c2.94,4.41,6.58,7.69,11.45,9.48,4.85,1.78,9.76,1.74,14.75.29.02.2.04.38.04.56,0,5.89,0,11.78.01,17.67,0,.5-.17.67-.62.8-11.95,3.39-22.72,1.06-32.38-6.64-3.74-2.98-6.91-6.5-9.57-10.47-.09-.14-.2-.26-.38-.51v18.83h-22.04v-29.97c-1.17,0-2.26,0-3.35.01-.11,0-.26.19-.3.32-.05.18-.02.39-.02.59,0,9.38,0,18.77,0,28.15v.9h-38.73v-33.05ZM104.02,59.86c2.56,4.16,5.64,7.83,9.29,11.01,9.62,8.38,20.58,11.28,33.03,7.92.51-.14.69-.32.69-.88-.03-5.49-.02-10.99-.02-16.48,0-.23,0-.46,0-.73-5.2,1.28-10.24,1.21-15.17-.76-4.95-1.98-8.56-5.49-11.45-10.07h26.2v-18.72h-26.71c2.14-3.37,4.84-6.05,8.14-8.11,5.91-3.67,12.22-4.16,18.89-2.24v-.86c0-5.98,0-11.96,0-17.93,0-1.23.12-.87-.94-1.13-.04-.01-.09,0-.13-.01-4.88-.66-9.74-.53-14.57.39-7.07,1.35-13.32,4.38-18.64,9.24-4.96,4.53-8.47,10.04-11,16.21-.77,1.87-1.41,3.8-2.13,5.74-.69-.62-1.37-1.24-2.07-1.87,5.72-9.76,11.43-19.49,17.19-29.32h-.79c-6.69,0-13.37,0-20.06-.01-.54,0-.82.18-1.1.62-4.26,6.66-8.53,13.3-12.81,19.95-.58.9-1.15,1.79-1.73,2.69-.04-.01-.09-.02-.13-.03V1.29h-37.67v11.91C28.05,1,10.5-.01.47,2.26v77.7h19.9v-20.97c8.35-1.95,15.14-6.14,20.2-13.12v34h37.84v-29.93h4.53v29.92h21.08v-20.01Z"/><path class="cls-1" d="M99.99,75.7h-13.15v-29.99h-12.74v29.98h-12.16V5.52h11.84v26.34c1.52,0,2.97.02,4.41-.02.18,0,.4-.29.53-.5,3.46-5.4,6.91-10.8,10.36-16.2,1.96-3.07,3.91-6.15,5.89-9.21.16-.25.52-.52.79-.52,3.89-.03,7.78-.02,11.68-.02.06,0,.12.02.29.04-5.65,9.13-11.27,18.22-16.93,27.37.42.13.79.26,1.15.37,4.24,1.31,6.74,4.19,7.4,8.54.38,2.49.62,5.02.64,7.54.08,8.66.03,17.32.03,25.98,0,.13-.01.26-.02.47Z"/><path class="cls-1" d="M16.09,55.62v20.13H4.56V5.93c.46-.05.93-.12,1.41-.15,6.4-.37,12.69.17,18.76,2.34,4.35,1.55,8.23,3.86,11.35,7.3,2.76,3.05,4.26,6.72,5.03,10.7,1.13,5.85.33,11.41-2.82,16.53-2.49,4.05-6.07,6.88-10.23,9.06-3.53,1.85-7.31,2.96-11.21,3.72-.23.05-.46.11-.77.18ZM16.41,44.5c.14,0,.25.02.35,0,3.78-.72,7.16-2.23,9.84-5.07,2.49-2.63,3.56-5.84,3.75-9.39.17-3.19-.82-5.96-3.09-8.24-2.74-2.75-6.18-4.18-9.87-5.12-.31-.08-.63-.12-.98-.19v28.01Z"/><path class="cls-1" d="M142.76,5.1v10.55c-7.38-1.03-13.84,1.16-19.65,5.5-4.67,3.49-8.51,9.58-9.02,14.02h28.52v10.14h-28.18c.21,1.05.34,2,.6,2.91.79,2.77,2.26,5.18,4.13,7.35,3.02,3.51,6.59,6.33,10.78,8.31,4.21,1.99,8.58,2.82,13.28,1.45v.72c0,2.81-.04,5.63.02,8.44.02.77-.33.9-.93.99-5.06.81-10.03.41-14.91-1.14-7.09-2.26-12.64-6.65-17.21-12.42-3.63-4.58-6.02-9.7-7.01-15.47-1.37-7.98-.03-15.48,4.01-22.47,4.26-7.38,10.14-13.03,18.03-16.46,4.46-1.94,9.16-2.5,13.98-2.43,1.16.02,2.32,0,3.56,0Z"/><path class="cls-1" d="M57.37,75.6h-12.71V5.37h12.71v70.23Z"/><path class="cls-1" d="M20.39,22.06c3.05,1.07,5.7,4.61,5.78,7.67.1,3.84-2.51,8.18-5.78,9.54v-17.21ZM20.83,22.7v15.85c2.9-2.12,4.83-4.71,4.9-8.3.07-3.51-2.03-5.73-4.9-7.55Z"/></g></svg>