<?xml version="1.0" encoding="UTF-8"?><svg id="Layer_2" xmlns="http://www.w3.org/2000/svg" viewBox="0 0 242.37 154"><defs><style>.cls-1{fill:#fff;}</style></defs><g id="Layer_1-2"><path class="cls-1" d="M120.73,52.79c.4-.23.53-.65.74-1.02,9.72-17.11,19.98-33.89,30.28-50.65C152.27.29,152.8,0,153.78,0c20.17.03,40.34.03,60.51.03.38,0,.95-.09,1.09.11.3.4-.22.75-.43,1.09-10.85,17.41-21.82,34.76-32.56,52.25-7.64,12.44-14.96,25.06-22.42,37.6-2.52,4.23-5.05,8.45-7.54,12.7-.34.58-.73.77-1.39.77-20.52-.01-41.04,0-61.56-.02-.32,0-.71.17-.95-.22,1.91-2.42,3.31-5.17,5.02-7.71,2.21-3.29,4.03-6.83,6.21-10.15.9-1.37,1.81-2.74,2.67-4.14,2.46-4.02,5.03-7.98,7.53-11.98,2.24-3.59,4.54-7.15,6.82-10.73.36-.57.37-1.25.85-1.84,1.22-1.52,2.46-3.07,3.11-4.97Z"/><path class="cls-1" d="M120.73,52.79c-.65,1.9-1.88,3.45-3.11,4.97-.48.59-.49,1.27-.85,1.84-2.27,3.58-4.57,7.14-6.82,10.73-2.5,4-5.07,7.96-7.53,11.98-.86,1.4-1.77,2.77-2.67,4.14-2.18,3.32-4,6.86-6.21,10.15-1.71,2.55-3.12,5.29-5.02,7.71-2.02-3.36-4.05-6.7-6.04-10.07-15.09-25.49-30.17-50.99-45.26-76.48-3.26-5.51-6.53-11.02-9.79-16.54-.66-1.12-.65-1.14.61-1.14,20.37,0,40.73,0,61.1-.03.94,0,1.36.37,1.79,1.1,10.07,16.96,19.78,34.13,29.53,51.27.08.13.18.25.26.37Z"/><path class="cls-1" d="M73.91,127.86c-.23.42-.11.85-.12,1.25,0,7.89-.01,15.78,0,23.67,0,.63.02,1.12-.88,1.09-.72-.03-.91-.24-.9-.95.04-2.88.02-5.75.02-8.63,0-6.06,0-12.13.01-18.19,0-.41-.31-1.04.3-1.22.6-.19,1.15-.01,1.65.52,4.55,4.9,9.13,9.76,13.71,14.63,3.3,3.51,6.59,7.03,9.89,10.54.1.11.23.19.36.31.31-.4.15-.84.15-1.24.01-7.93.02-15.86,0-23.78,0-.67.03-1.08.9-1.06.75.02.9.28.89.96-.03,3.34-.01,6.68-.01,10.03,0,5.64,0,11.27-.02,16.91,0,.37.29.95-.32,1.09-.52.12-1.05.11-1.49-.38-1.28-1.41-2.6-2.78-3.9-4.17-6.46-6.89-12.92-13.77-19.38-20.65-.25-.27-.45-.62-.87-.73Z"/><path class="cls-1" d="M196.54,143.57c2.98,3.45,5.84,6.75,8.76,10.13-1.21.29-2.05.13-2.84-.84-2.31-2.82-4.74-5.55-7.13-8.31-.3-.35-.56-.69-1.14-.63-4.15.41-8.31.14-12.46.18-.93,0-1.17.27-1.14,1.17.06,2.56,0,5.13.04,7.69.01.77-.29.89-.96.9-.7.01-.83-.28-.82-.9.02-9.09.01-18.18,0-27.27,0-.54.05-.88.73-.86,4.93.12,9.87-.24,14.79.24,2.14.21,4.19.8,6.07,1.89,2.9,1.69,4.39,4.22,4.37,7.57-.02,3.35-1.55,5.85-4.45,7.53-1.15.66-2.4,1.04-3.83,1.51ZM187.14,142.76h0c1.71,0,3.42.05,5.12-.02,2.62-.1,5.18-.51,7.45-1.95,4.67-2.96,4.57-9.91-.18-12.74-1.59-.95-3.34-1.44-5.17-1.64-4.33-.47-8.69-.1-13.03-.23-.68-.02-.74.3-.74.84.01,4.97.02,9.94,0,14.9,0,.65.17.87.85.86,1.9-.04,3.8-.01,5.71-.01Z"/><path class="cls-1" d="M38.83,139.37c0-4.51.02-9.02-.02-13.52,0-.82.23-1.04,1.04-1.03,6.96.03,13.91.02,20.87.02.51,0,1-.09.98.73-.02.78-.53.63-.96.63-6.33,0-12.67.03-19-.02-.98,0-1.23.27-1.22,1.23.06,3.34.05,6.68,0,10.02,0,.8.22,1.06,1.04,1.05,5.6-.03,11.19-.02,16.79,0,.35,0,.87-.23,1.02.26.2.65.05,1.05-.83,1.04-4.59-.04-9.17-.02-13.76-.02-1.13,0-2.26.03-3.38-.01-.63-.02-.89.14-.89.83.03,3.69.04,7.38,0,11.07-.01.91.49.87,1.11.86,6.57,0,13.14-.01,19.7,0,.35,0,.87-.24,1.01.27.15.54.17,1.07-.72,1.05-1.83-.05-3.65,0-5.48,0-5.36,0-10.73-.04-16.09.02-1.08.01-1.26-.33-1.25-1.31.05-4.39.02-8.78.02-13.17Z"/><path class="cls-1" d="M208.59,153.7c2.27-4.08,4.48-8.07,6.71-12.06,2.97-5.32,5.94-10.63,8.9-15.96.31-.55.6-.89,1.32-.87.65.01.96.26,1.25.79,5.14,9.25,10.3,18.5,15.46,27.74.05.1.09.21.16.39-1.08.24-1.85.21-2.44-.99-1.08-2.23-2.38-4.36-3.55-6.55-.33-.62-.7-.88-1.43-.88-6.33.03-12.66.03-19,0-.63,0-.97.19-1.27.75-1.17,2.19-2.45,4.32-3.56,6.54-.55,1.1-1.24,1.45-2.54,1.11ZM215.76,144.12c6.36,0,12.46,0,18.55.01.83,0,.8-.26.46-.86-1.09-1.92-2.15-3.86-3.22-5.8-1.98-3.59-3.97-7.17-6.04-10.91-3.27,5.89-6.46,11.63-9.76,17.56Z"/><path class="cls-1" d="M166.43,134.37c0,2.76.07,5.52-.01,8.27-.16,5.63-3.36,9.53-8.83,10.8-3.42.79-6.86.77-10.26-.19-4.88-1.37-7.98-5.09-8.12-10.16-.16-5.82-.05-11.65-.09-17.48,0-.74.34-.78.92-.8.69-.03.84.25.84.88-.02,5.28-.01,10.57-.01,15.85,0,1.88.25,3.72,1.03,5.45,1.35,3.02,3.84,4.62,6.96,5.26,2.84.59,5.71.58,8.55-.16,4.1-1.07,6.58-3.87,7.2-8.06.23-1.51.19-3.02.19-4.53,0-4.55,0-9.09,0-13.64,0-.65,0-1.08.89-1.06.89.01.77.52.77,1.06,0,2.84,0,5.67,0,8.51h-.02Z"/><path class="cls-1" d="M0,124.96c1.21-.35,1.91-.09,2.53,1.08,4.55,8.57,9.19,17.09,13.8,25.61.45,0,.47-.39.6-.63,4.48-8.3,8.98-16.59,13.39-24.93.58-1.09,1.22-1.49,2.37-1.17.08.45-.27.76-.46,1.12-4.84,8.99-9.71,17.96-14.55,26.95-.31.57-.6.9-1.31.88-.65-.01-.96-.26-1.25-.8-4.91-9.13-9.84-18.24-14.77-27.36-.13-.23-.23-.47-.36-.74Z"/><path class="cls-1" d="M119.17,139.95c0-4.23-.03-8.47.02-12.7.01-.89-.25-1.09-1.11-1.08-3.57.05-7.15.03-10.72.02-.48,0-1.03.15-1.01-.7.02-.85.59-.66,1.05-.66,8.39,0,16.78,0,25.17,0,.52,0,1.09-.19,1.06.74-.03.92-.65.6-1.06.6-3.5.02-6.99.05-10.49,0-.95-.02-1.23.22-1.22,1.2.04,8.47.03,16.93.03,25.4,0,.53.14,1.09-.75,1.1-.75,0-1-.2-.99-.98.04-4.31.02-8.62.02-12.93Z"/></g></svg>