<?xml version="1.0" encoding="UTF-8"?><svg id="Layer_2" xmlns="http://www.w3.org/2000/svg" viewBox="0 0 160.61 79.71"><defs><style>.cls-1{fill:#fff;}</style></defs><g id="Layer_1-2"><path class="cls-1" d="M29.66,52.58c.02.67.03.55-.54.55-9.13,0-18.25,0-27.38,0-.28,0-.56-.01-.83,0-.16,0-.26-.05-.24-.23,0-.04,0-.09,0-.13,0-.15-.07-.2-.2-.19-.16,0-.31,0-.47,0,0-17.5,0-35.01,0-52.51.22,0,.45,0,.67,0,.04.32-.02.64-.02.97,0,16.84,0,33.67,0,50.51,0,.26.02.51.01.77,0,.16.06.22.22.21.29,0,.58,0,.87,0,9.17,0,18.35,0,27.52,0,.13,0,.27-.04.39.04Z"/><path class="cls-1" d="M92.98,79.71c0-.19,0-.39-.01-.58.53-.06,1.06,0,1.6-.02.28,0,.55-.04.83.02,0,.19,0,.39-.01.58h-2.4Z"/><path class="cls-1" d="M7.29,79.13c0,.19,0,.39-.01.58h-2.4c0-.19,0-.39-.01-.58.52-.06,1.04,0,1.56-.02.29,0,.58-.03.86.02Z"/><path class="cls-1" d="M153.97,79.71c-.04-.19-.03-.38-.01-.57.61-.05,1.22-.04,1.83-.01,0,.2,0,.39-.01.59h-1.8Z"/><path class="cls-1" d="M33.27,3.61c0-.39-.02-.79-.02-1.18,0-.78.01-1.57.02-2.35.25-.06.51-.04.76-.04,4.22,0,8.43,0,12.65,0,.27,0,.53,0,.8,0,.26,0,.26,0,.27.28,0,.11-.01.22.03.33,0,.06-.02.13-.02.19,0,.49-.02.43.41.44.05,0,.11,0,.16,0,.01.99.03,1.99.04,2.98-.05.63,0,1.26,0,1.89,0,.15-.06.33.03.45.1.13.29.03.44.06.03,0,.07.01.1.02,0,.8.02,1.59.03,2.39-.05.63,0,1.26,0,1.89,0,.15-.06.33.03.45.1.13.29.03.44.06.03,0,.07,0,.1.01,0,.8.02,1.59.02,2.39-.04.76.01,1.53,0,2.29,0,.13.07.17.19.17.13,0,.26.01.4.02,0,.57.01,1.15.02,1.72-.04.63,0,1.26,0,1.89,0,.69-.05.58.58.6,0,.77.02,1.55.02,2.32-.04.63,0,1.27,0,1.9,0,.18-.07.39.04.52.13.15.36.03.54.07,0,.72.01,1.44.02,2.16,0,.24,0,.24.24.24.03,0,.07,0,.1,0,.24,0,.24,0,.25-.24,0-.43.01-.86.02-1.3,0-.09,0-.18,0-.27.14,0,.29,0,.43,0,.09,0,.14-.05.14-.14,0-.56.05-1.12,0-1.68.01-1.09.02-2.18.03-3.28,0-.12,0-.24.01-.36.12,0,.24,0,.36,0,.13,0,.21-.04.21-.19-.01-.75.04-1.5,0-2.25,0-.4,0-.8.01-1.19.2-.03.44,0,.39-.33,0-.03.02-.07.04-.09.17-.14.15-.33.15-.52,0-.32.02-.64.01-.96,0-.38.04-.75-.02-1.13.01-1.19.03-2.38.04-3.58.13,0,.26,0,.4,0,.12,0,.19-.04.18-.17,0-.55.05-1.1,0-1.65,0-.8.02-1.59.03-2.39.1-.01.2-.02.3-.03.27-.01.27-.01.28-.28,0-.56.02-1.13.02-1.69,0-.54.04-1.08-.01-1.62,0-.6.02-1.19.03-1.79.14,0,.28-.01.43-.02.11,0,.16-.05.16-.16,0-.15.01-.31.02-.46.28,0,.55-.02.83-.02,4.06,0,8.11,0,12.17,0,.27,0,.53,0,.8,0,.03.43.09.85.08,1.28-.01.58-.06,1.17-.01,1.75,0,.18,0,.35,0,.53-.08.01-.15.03-.23.03-.35.02-.34.02-.35.37-.02.81-.04,1.62-.06,2.43,0,.23-.02.24-.25.25-.04,0-.09,0-.13,0-.11,0-.16.06-.16.17,0,.54-.05,1.09-.01,1.63l-.02,1.19c-.14,0-.29.01-.43.02-.1,0-.14.05-.14.14.01.36-.06.71,0,1.07l-.03,1.78c-.14,0-.28,0-.43,0-.11,0-.16.06-.16.16.01.35-.05.7,0,1.05-.01.59-.02,1.19-.04,1.78-.13,0-.27.01-.4,0-.13,0-.18.06-.18.18.01.34-.05.69,0,1.03-.02.61-.03,1.23-.05,1.84-.64,0-.66.02-.58.58,0,.02.02.04.03.05,0,.4-.02.79-.03,1.19-.12.04-.24.04-.36.03-.16-.01-.2.06-.21.22,0,.39,0,.77-.05,1.16-.02.14-.05.29.04.42,0,.4-.02.79-.03,1.19-.12,0-.24.03-.36.02-.16,0-.21.06-.21.21,0,.4-.01.8-.05,1.19-.01.13-.04.27.04.39-.01.59-.02,1.19-.03,1.78-.17.02-.38-.06-.51.04-.14.11-.04.33-.07.5,0,.04-.02.09-.02.13,0,.18-.05.37.03.55,0,.4-.01.79-.02,1.19-.13,0-.26.02-.4.02-.13,0-.18.05-.18.18,0,.54-.06,1.08,0,1.62,0,.4-.01.79-.02,1.19-.12,0-.24.02-.36.01-.15,0-.23.04-.22.21.01.17-.02.35-.03.52-.01.16-.05.33.04.48,0,.4-.02.79-.02,1.19-.14.06-.28.04-.42.04-.14,0-.2.06-.2.2,0,.25,0,.51,0,.76,0,.09-.04.2.05.28-.01.57-.03,1.14-.04,1.71-.1.06-.21.04-.32.05-.25.01-.27.02-.28.26,0,.22-.02.44-.01.66,0,.31-.06.62.03.92-.02.59-.03,1.18-.05,1.77-.13,0-.27,0-.4,0-.09,0-.15.05-.15.14.02.36-.11.72,0,1.09-.01.4-.03.8-.04,1.21-.11,0-.22,0-.33-.01-.15,0-.23.05-.22.21,0,.18-.02.35-.04.52-.01.16-.06.33.04.48-.01.39-.02.79-.03,1.18-.11.06-.24.03-.36.04-.23,0-.24,0-.24.24-.01.63-.02,1.26-.03,1.89,0,.09-.02.18.03.26,0,.19,0,.39-.01.58-.13.06-.26.03-.39.03-.14,0-.2.07-.2.2,0,.15-.01.31,0,.46.01.38-.05.77.02,1.15,0,.19-.01.39-.02.58-.11,0-.22.01-.33.01-.26,0-.27,0-.27.25,0,.38-.06.35-.36.35-.02,0-.04,0-.07,0-4.59,0-9.18,0-13.77,0-.29,0-.58-.05-.87-.01-.02-.39-.04-.78-.06-1.18.1-.36.02-.72.03-1.08,0-.12-.07-.14-.17-.15-.14,0-.29.02-.43-.03,0-.38-.01-.77-.02-1.15.1-.57,0-1.13-.03-1.69,0-.1-.07-.12-.16-.13-.13,0-.27.02-.4-.03-.01-.4-.02-.79-.03-1.19.04-.23.01-.46,0-.7-.03-.49-.02-.49-.49-.51-.02,0-.04,0-.07-.01-.02-.6-.03-1.19-.05-1.79.05-.32,0-.64,0-.97,0-.23,0-.23-.25-.24-.1,0-.2-.01-.3-.02-.02-.59-.03-1.18-.05-1.78.1-.34.02-.68.03-1.02,0-.22-.03-.23-.26-.24-.12,0-.24-.02-.36-.02,0-.37,0-.75-.01-1.12.07-.12.04-.26.04-.39,0-.34-.03-.69-.04-1.03-.01-.42,0-.42-.42-.44-.05,0-.11-.01-.16-.02,0-.4-.01-.79-.02-1.19.08-.12.04-.26.04-.39,0-.31-.03-.62-.05-.93-.02-.45-.02-.45-.45-.48-.04,0-.09-.01-.13-.02,0-.4-.02-.79-.02-1.19.08-.12.05-.26.04-.39,0-.29-.03-.57-.05-.86-.01-.16.06-.36-.04-.49-.11-.14-.31-.02-.47-.07-.02,0-.04,0-.06-.01,0-.4-.01-.79-.02-1.19.09-.4.05-.81,0-1.21-.02-.17.02-.39-.06-.51-.11-.15-.35-.02-.53-.09,0-.4-.01-.79-.02-1.19.08-.21.06-.44.02-.65-.03-.19.06-.41-.06-.55-.13-.14-.36-.02-.54-.09,0-.37,0-.75-.01-1.12.07-.43.05-.86,0-1.29-.02-.17.07-.39-.05-.52-.13-.14-.36-.02-.54-.08l-.02-1.12s.02-.02.02-.03c.05-.56-.05-1.13-.03-1.69,0-.1-.06-.13-.15-.13-.14,0-.29.01-.43-.03,0-.4-.01-.79-.02-1.19.04-.22.02-.44.01-.66-.01-.17.07-.38-.04-.51-.13-.14-.35-.04-.53-.06-.01-.59-.02-1.19-.03-1.78.05-.31,0-.61,0-.92,0-.3,0-.3-.32-.3-.09,0-.18,0-.26,0-.01-.59-.02-1.19-.03-1.78.05-.35,0-.7,0-1.05,0-.13-.07-.17-.19-.17-.13,0-.26,0-.39-.01-.01-.59-.02-1.19-.03-1.78.04-.22.03-.44.01-.66-.01-.17.07-.39-.04-.51-.13-.14-.35-.03-.53-.06,0-.4-.01-.79-.02-1.19.04-.56-.02-1.13,0-1.69,0-.13-.07-.17-.19-.17-.13,0-.27.01-.4-.02Z"/><path class="cls-1" d="M29.66,52.58c-.12-.08-.26-.04-.39-.04-9.17,0-18.35,0-27.52,0-.29,0-.58,0-.87,0-.15,0-.22-.06-.22-.21,0-.26-.01-.51-.01-.77,0-16.84,0-33.67,0-50.51,0-.32.06-.64.02-.97.25-.06.51-.04.76-.04,9.28,0,18.55,0,27.83,0,.13,0,.27-.02.4.02,0,.13,0,.27,0,.4,0,.15.06.2.2.19.13,0,.27-.01.4.02,0,.88.01,1.76.01,2.64,0,2.55,0,5.1,0,7.64,0,.31-.03.62-.03.93,0,.14-.06.2-.2.19-.27,0-.53.02-.8.02-4.74,0-9.48,0-14.22,0-.46,0-.46,0-.47.45,0,2.41,0,4.83-.01,7.24,0,.04,0,.09.01.13,0,.12,0,.24,0,.37,0,.27,0,.27.29.27.07,0,.13,0,.2,0,2.34,0,4.67,0,7.01,0,.23,0,.47,0,.7,0,.17,0,.24.05.24.23,0,.22,0,.44.01.67,0,3.22,0,6.43,0,9.65,0,.23,0,.47,0,.7,0,.22-.03.25-.25.25-.43-.01-.36.06-.37.4,0,.04,0,.09,0,.13-2.49,0-4.98,0-7.47,0-.11,0-.22,0-.33.01-.12,0-.25.01-.37,0-.17-.01-.25.05-.23.22,0,.04,0,.09,0,.13,0,2.38,0,4.76,0,7.14,0,.07,0,.13,0,.2,0,.1.05.14.14.14.08,0,.16,0,.23,0,.11,0,.16.06.16.17,0,.06,0,.11,0,.17.02.25.02.26.27.27.08,0,.16,0,.23,0,4.74,0,9.48,0,14.22,0,.33,0,.67.02,1,.03,0,.31.02.62.02.93,0,3.18,0,6.35,0,9.53,0,.27-.01.53-.01.8,0,.14-.05.2-.19.2-.13,0-.27,0-.4.01Z"/><path class="cls-1" d="M130.41,60.4c0,.19.01.39.02.58-.07.35,0,.71,0,1.06,0,.12.07.14.17.14.14,0,.29-.02.43.04,0,.2.02.39.03.59q-.04.6.55.62c.02.39.04.78.06,1.17q-.04.59.52.62s.02,0,.03,0c.02.39.04.78.06,1.17-.1.15-.04.32-.05.48,0,.1.07.13.16.13.15,0,.31,0,.46.01.01.39.02.78.04,1.18-.01.19-.08.41.03.55.11.15.34.03.51.07.01,0,.02,0,.03,0,0,.2.01.39.02.59,0,.12,0,.24,0,.37,0,.3,0,.3.29.31.03,0,.07,0,.1,0,.14-.01.2.05.2.19,0,.23.01.47.02.7,0,.28.02.29.31.29.29,0,.29-.01.3-.31,0-.04,0-.09,0-.13,0-3.78,0-7.57,0-11.35,0-.1,0-.2,0-.3,0,0,0,0,0,0,1,0,2.01.01,3.01.02,0,.1.01.2.01.3,0,6.41,0,12.81,0,19.22,0,.04,0,.09,0,.13,0,.25,0,.25-.26.25-1.03,0-2.07,0-3.1,0-.26,0-.26,0-.26-.25,0-.11,0-.22,0-.33,0-.11.02-.22.02-.33,0-.3,0-.3-.29-.3-.1,0-.2,0-.3,0-.01-.39-.03-.78-.04-1.17,0-.14.01-.29.02-.43,0-.14-.04-.21-.19-.2-.13,0-.26,0-.4,0-.01-.39-.02-.78-.04-1.18.05-.76.06-.62-.57-.62-.07-.2-.02-.41-.04-.61.08-.36,0-.73,0-1.09,0-.11-.07-.15-.18-.16-.14,0-.29.03-.43-.04,0-.18-.01-.36-.02-.54,0-.21.09-.45-.05-.61-.11-.13-.34-.02-.51-.07l-.04-1.11c.08-.35,0-.7,0-1.05,0-.14-.09-.21-.24-.2-.12,0-.24.02-.36-.04-.02-.19.02-.39-.03-.58.07-.07.04-.17.05-.25.03-.22-.07-.44-.06-.66,0-.26,0-.26-.25-.27-.33-.01-.33-.01-.35-.33,0-.09.04-.2-.05-.25-.12-.06-.26-.04-.39-.01-.05,0-.07.06-.06.11.03.29-.07.57-.07.86,0,3.75,0,7.5,0,11.25,0,.14-.01.29-.02.43-.92,0-1.85,0-2.77,0-.18,0-.23-.07-.22-.23.01-.2,0-.4,0-.6,0-6.25,0-12.51,0-18.76,0-.1,0-.2,0-.3,1.13-.04,2.26-.01,3.4-.02.17,0,.2.08.2.22,0,.24.01.49.01.73,0,.17.06.25.23.24.12,0,.24,0,.37,0Z"/><path class="cls-1" d="M73.7,76.02c0-.37-.01-.75-.02-1.12.08-.22.06-.43,0-.65-.04-.17.07-.39-.07-.51-.13-.11-.34,0-.51-.06,0-.2,0-.39-.01-.59.04-.35-.02-.7,0-1.05,0-.14-.05-.2-.19-.2-.13,0-.26.01-.39-.03,0-.17,0-.35,0-.52.03-.05.03-.1.03-.16.01-.48.01-.49-.45-.52-.12,0-.19-.05-.18-.18,0-.06,0-.11,0-.17,0-.13-.06-.18-.18-.18-.29,0-.58,0-.87,0-.11,0-.16.05-.16.16,0,.14,0,.29,0,.43h0c-.13,0-.27,0-.4,0-.12,0-.19.05-.18.18,0,.09,0,.18,0,.27,0,2.34,0,4.67,0,7.01,0,.32,0,.65-.01.97-.93,0-1.87,0-2.8,0-.16,0-.21-.06-.21-.21,0-.22,0-.45,0-.67,0-6.23,0-12.47,0-18.7,0-.11,0-.22.01-.33,1.99,0,3.97,0,5.96,0,.42,0,.84.03,1.26,0,.2,0,.39.01.59.02,0,.14,0,.28,0,.43,0,.11.05.16.16.16.15,0,.31,0,.46-.01.15,0,.31.02.46.02.11,0,.15.05.16.16,0,.14-.06.31.06.41.1.08.26.03.39.03.12,0,.16.06.15.17,0,.01,0,.02,0,.03.03.39.03.4.4.42.15,0,.19.07.18.2,0,.13.01.27.02.4-.07.35,0,.7-.01,1.05,0,.14.08.19.21.19.13,0,.27-.03.39.04.02,1.26.04,2.52,0,3.78,0,.11-.01.22-.02.33-.63-.03-.55-.05-.55.54,0,.02,0,.04.02.06-.01.19-.02.39-.03.58-.14,0-.28.02-.43.02-.14,0-.2.06-.19.2,0,.14,0,.28.01.43,0,0,0,0,0,0-.12,0-.24,0-.36-.01-.16-.01-.25.05-.24.22,0,.13,0,.26.01.39-.14.06-.28.03-.43.03-.12,0-.19.03-.19.17,0,.54-.03,1.08.02,1.62-.1.76,0,.64.57.62.02.38.03.76.05,1.14-.09.36,0,.73-.02,1.09,0,.11.07.15.17.16.14,0,.29-.03.43.04.02.19-.02.39.03.58q-.05.59.52.62s.02,0,.03,0c.02.39.04.78.05,1.18q-.05.59.52.62s.02,0,.03,0c.01.38.02.77.03,1.15-.06.2,0,.42-.05.62-.95,0-1.91,0-2.86,0-.04,0-.09-.01-.13-.02,0-.26-.01-.52-.02-.79,0-.42.04-.4-.38-.4-.07,0-.13,0-.2-.01,0-.2-.01-.39-.02-.59.11-.37-.04-.74-.01-1.12,0-.1-.06-.13-.15-.14-.14,0-.29.01-.43-.03ZM70.67,67.62c0,.11,0,.22,0,.33,0,.26,0,.26.26.26.54,0,1.08,0,1.63,0,.15,0,.33.06.45-.03.13-.1.03-.29.06-.44,0-.03.01-.07.02-.1.03,0,.07,0,.1,0,.14,0,.31.04.42-.02.17-.08.05-.28.07-.42.01-.11.05-.15.16-.16.14,0,.32.07.41-.05.09-.11.02-.28.03-.42,0-.04,0-.09.01-.13.1,0,.2-.02.3-.02.27,0,.27,0,.28-.27.02-.77.03-1.55,0-2.32-.01-.43.04-.41-.38-.4-.07,0-.13-.01-.2-.02,0-.19-.02-.39-.03-.58q.01-.59-.57-.6s-.02,0-.03,0c-.19,0-.39-.02-.58-.03,0-.1,0-.2,0-.3,0-.28,0-.28-.27-.28-.52,0-1.04,0-1.56,0-.14,0-.29,0-.43,0-.14,0-.21.07-.22.2,0,.08,0,.16,0,.23,0,.11-.04.17-.16.17-.07,0-.13,0-.2,0-.11,0-.16.05-.16.16,0,.07,0,.13,0,.2,0,1.57,0,3.13,0,4.7,0,.07,0,.13,0,.2,0,.11.05.17.16.17.14,0,.29,0,.43,0h0Z"/><path class="cls-1" d="M26.65,67.62c1,0,2,0,3,0,.05,0,.11.02.16.02.5,0,.44.03.44-.42,0-2.57,0-5.14,0-7.7,0-.31,0-.31.31-.31.9,0,1.8,0,2.7,0h0c0,.14,0,.29,0,.43,0,6.49,0,12.98,0,19.47-.56.04-1.13.01-1.69.02-.43,0-.86,0-1.29-.01,0-2.69,0-5.39,0-8.08,0-.26-.02-.51-.03-.77,0-.09-.04-.15-.14-.15-.22.02-.44-.06-.66-.06-1.05.02-2.11-.05-3.17.05-.14.01-.21.04-.2.19,0,.13,0,.27-.01.4,0,.13-.01.27-.01.4,0,2.54,0,5.08,0,7.61,0,.06,0,.11,0,.17,0,.23,0,.24-.25.24-.66,0-1.31,0-1.97,0-.26,0-.51,0-.77,0,0-.12-.02-.24-.02-.37,0-6.39,0-12.78,0-19.16,0-.01,0-.02,0-.03,0-.35,0-.35.34-.36.51,0,1.02,0,1.54,0,.38,0,.76-.03,1.13.02,0,.13.01.27.01.4,0,2.47,0,4.93,0,7.4-.1.13-.04.28-.05.42-.01.14.05.21.19.2.15,0,.31,0,.46-.01Z"/><path class="cls-1" d="M155.78,79.12c-.61-.03-1.22-.04-1.83.01-.59-.01-1.19-.03-1.78-.04,0-.13-.01-.26,0-.39,0-.14-.05-.2-.19-.2-.14,0-.28,0-.42.01-.04,0-.09-.01-.13-.02-.14-.01-.31.06-.42-.03-.11-.1-.04-.27-.05-.41,0-.11-.05-.15-.16-.16-.14,0-.32.07-.41-.05-.09-.11-.02-.28-.03-.42,0-.03,0-.07,0-.1,0-.11,0-.22,0-.33,0-.26,0-.26-.25-.27-.03,0-.07,0-.1,0-.18.02-.23-.07-.23-.24,0-.26-.02-.51,0-.77,0-.18-.07-.24-.24-.23-.12,0-.24,0-.37-.01,0-.26-.02-.51-.02-.77,0-3.89,0-7.78,0-11.67,0-.07,0-.13,0-.2.13-.05.26-.03.4-.03.13,0,.21-.04.21-.19-.01-.34.04-.69,0-1.03,0-.19.02-.39.03-.58.14,0,.29,0,.43,0,.11,0,.16-.05.16-.16,0-.15,0-.31,0-.46,0,0,0,0,0,0q.6,0,.6-.6h0c.71,0,.63.1.62-.58.19,0,.39-.02.58-.03.25.03.5,0,.75-.03.49-.06.49-.05.47-.55.8,0,1.59,0,2.39,0,0,.12,0,.24,0,.36,0,.12.06.18.18.18.35-.01.7.1,1.05.03l.58.02c0,.14,0,.28,0,.43,0,.11.05.16.16.16.15,0,.31,0,.46,0h0q0,.6.61.59h0q-.02.62.59.61c0,.19.02.39.03.58,0,.15,0,.31-.01.46,0,.11.05.16.16.16.14,0,.29,0,.43,0,.02,1,.04,2,0,3h-3.01s0,0,0,0c0-.72,0-1.45,0-2.17,0-.16-.04-.25-.22-.24-.12,0-.24,0-.37,0,0-.13-.02-.27-.01-.4,0-.14-.04-.2-.19-.2-.13,0-.26-.01-.4-.02-.01-.64.15-.62-.62-.58-.53,0-1.07,0-1.6,0-.13,0-.22.03-.2.18,0,.02,0,.04,0,.07,0,.36,0,.34-.35.34-.25,0-.25,0-.25.26,0,.11,0,.22,0,.33-.13.04-.27.03-.4.03-.13,0-.18.05-.18.18,0,.27,0,.53,0,.8,0,3.54,0,7.08,0,10.61q0,.46.45.48s.09.01.13.02c.02.19-.02.39.03.58,0,.08-.01.15-.01.23q0,.36.35.37c.09,0,.18,0,.26,0h0c0,.14,0,.29,0,.43,0,.11.05.16.16.16.69.02,1.38.02,2.07,0,.11,0,.16-.05.16-.16,0-.14,0-.29,0-.43h0c.69,0,.62.12.6-.6,0,0,0,0,0,0,.1,0,.2,0,.3-.01.29,0,.29,0,.29-.29,0-1.13.01-2.26.02-3.39,0-.62,0-.62-.63-.53-.52,0-1.04,0-1.57,0-.14,0-.23-.03-.22-.2.01-.74.01-1.49.02-2.23,1.8,0,3.6,0,5.41,0,0,.1.02.2.01.3,0,2.23,0,4.47-.02,6.7,0,.09-.01.18-.02.27-.7-.03-.57-.06-.58.56,0,.02,0,.04.01.07,0,.14,0,.29,0,.43,0,.11-.05.15-.16.16-.14,0-.32-.07-.4.06-.06.1-.03.26-.03.39,0,.11-.05.16-.16.15-.01,0-.02,0-.03,0-.13.01-.29-.06-.38.04-.09.1-.04.25-.03.38,0,.15-.07.18-.21.18-.13,0-.26,0-.4.01-.14,0-.28,0-.42-.01-.14,0-.19.06-.19.2,0,.13,0,.26,0,.39-.39,0-.79.02-1.18.03Z"/><path class="cls-1" d="M95.4,79.13c-.28-.06-.55-.03-.83-.02-.53.01-1.07-.04-1.6.02-.39-.01-.79-.02-1.18-.03-.04-.18.08-.42-.07-.54-.14-.11-.36-.03-.55-.04-.02,0-.04,0-.07,0-.16,0-.34.04-.46-.03-.14-.08-.04-.29-.06-.44-.01-.1-.05-.13-.15-.13-.14,0-.31.06-.42-.04-.1-.1-.04-.28-.04-.42,0-.12-.06-.14-.17-.15-.14-.01-.32.08-.4-.07-.06-.1-.02-.26-.02-.39,0-.04,0-.09-.01-.13,0-.2.02-.4,0-.59-.02-.18.07-.41-.05-.54-.12-.14-.36-.02-.54-.07,0-.59-.01-1.18-.01-1.77,0-3.64,0-7.28.01-10.91.12-.04.24-.03.36-.03.15,0,.22-.03.22-.2,0-.33,0-.66,0-.99,0-.19.02-.39.03-.58.18-.04.41.06.53-.06.14-.13.04-.37.05-.56.18-.02.41.06.54-.04.16-.13.05-.37.06-.56h0c.18-.02.41.06.54-.04.17-.13.05-.37.07-.55.19,0,.39-.02.58-.02.15,0,.31.02.46.02.82,0,1.64-.02,2.47-.02.65,0,1.31,0,1.96.01.17,0,.35,0,.52.01,0,.02,0,.04,0,.07.02.16-.06.35.05.48.11.12.29.04.44.05.12,0,.18.05.18.17,0,.13-.06.28.05.38.1.09.25.03.38.04.05,0,.11,0,.16.01h0q-.03.6.55.61s.02,0,.03,0c0,.19.02.39.03.58q-.04.63.56.63c.03.99.04,1.98.02,2.97-.92,0-1.84.01-2.76.01-.24,0-.24,0-.24-.25,0-.64.01-1.29-.05-1.93-.02-.15-.05-.21-.21-.22-.32,0-.32-.02-.33-.33,0-.03,0-.07,0-.1,0-.14-.05-.21-.19-.2-.14,0-.29,0-.43,0,0,0-.01,0-.01,0,.03-.71.05-.56-.56-.58-.02,0-.04,0-.06.01-.38,0-.75,0-1.13,0-.02,0-.04-.01-.06-.01-.75,0-.6-.09-.62.6-.18.04-.41-.07-.54.07-.12.12-.02.34-.05.51-.03.19-.01.37-.02.56-.07,0-.13,0-.2,0-.37,0-.38.01-.38.37,0,.02,0,.04,0,.07,0,3.45,0,6.91,0,10.36,0,.39.02.78.02,1.17,0,.14.05.2.19.2.13,0,.27,0,.4,0,0,.14.01.29.01.43,0,.11.05.16.16.16.14,0,.29.01.43.02,0,.13,0,.27,0,.4,0,.14.05.2.19.2.54,0,1.08.01,1.62,0,.17,0,.39.07.51-.05.13-.13.03-.36.06-.54h0c.06,0,.13,0,.19,0,.5,0,.5,0,.46-.51,0-.03-.03-.06-.04-.09.07-.19.01-.39.04-.58.1-.04.2-.03.3-.03.3,0,.3,0,.31-.32,0-.79,0-1.57,0-2.36,0-.24,0-.49,0-.73,0-.17-.07-.24-.24-.23-.14,0-.29.01-.43.02-.59,0-1.18,0-1.77-.01.08-.16.04-.33.04-.49,0-.57,0-1.14,0-1.7,0-.17.05-.26.23-.24.01,0,.02,0,.03,0,1.71,0,3.43-.02,5.14.02,0,.17.01.33.01.5,0,1.85,0,3.7,0,5.55-.13.04-.26.03-.39.03-.13,0-.18.05-.17.18,0,.34-.04.68,0,1.02,0,.19-.02.39-.02.58-.18.06-.41-.06-.53.08-.12.13-.03.36-.05.54,0,.12-.02.24-.01.36.01.18-.07.24-.24.22-.01,0-.02,0-.03,0-.37,0-.33-.03-.34.34,0,.26,0,.26-.25.26-.11,0-.22,0-.33,0-.17,0-.33,0-.5,0-.11,0-.16.05-.16.16,0,.14-.01.29-.02.43-.39,0-.79.02-1.18.03Z"/><path class="cls-1" d="M45.94,70.61c0-.37.01-.75.02-1.12.12,0,.24,0,.37,0,.15,0,.22-.07.22-.22,0-.55.04-1.11,0-1.66,0-.2,0-.39.01-.59.13,0,.27-.01.4-.01.12,0,.18-.04.18-.17,0-.54.05-1.09,0-1.63,0-.4.01-.79.02-1.19.1,0,.2,0,.3,0,.23,0,.28-.04.28-.27.01-.52.05-1.03,0-1.55,0-.39.02-.79.02-1.18.13,0,.26,0,.4,0,.12,0,.19-.05.18-.18-.01-.35.04-.71-.01-1.06,0-.2.01-.39.02-.59,1.2,0,2.41,0,3.61,0,0,0,0,0,0,0,0,.24,0,.49,0,.73,0,.46,0,.46.45.47.04,0,.09,0,.13.01,0,.4.01.79.02,1.19-.03.22-.02.44,0,.66.01.17-.07.39.05.51.13.14.35.04.53.06.01.59.02,1.18.03,1.78-.04.22-.03.44,0,.65.01.17-.07.39.05.51.13.13.35.03.53.06.01.59.02,1.19.03,1.78-.06.35,0,.7,0,1.05,0,.11.05.16.16.16.14,0,.29,0,.43,0,0,.4.01.79.02,1.19-.03.23-.02.46-.01.7.01.66-.08.58.59.59,0,.37.01.75.02,1.12-.05.54,0,1.09,0,1.63,0,.23,0,.23.25.24.11,0,.22,0,.33.01,0,.37.01.75.02,1.12-.03.26-.03.52.02.78.03.16-.07.36.07.47.13.1.32.03.48.04.01.59.02,1.19.03,1.78-.05.2,0,.41-.03.61-.94,0-1.88,0-2.82.01-.15,0-.2-.06-.19-.2,0-.13,0-.27,0-.4.04-.23.02-.46.01-.69q-.01-.54-.58-.54c0-.39-.02-.79-.03-1.18,0-.13,0-.27.01-.4.02-.18-.07-.23-.23-.23-1.34,0-2.68,0-4.02.01-.18,0-.42-.09-.54.06-.1.14-.04.36-.02.55,0,.39-.02.79-.02,1.18-.12,0-.24.03-.36.02-.16,0-.21.06-.21.21,0,.52-.02,1.04-.02,1.56-.3.05-.6.02-.9.02-.63,0-1.26,0-1.9,0-.23,0-.24,0-.24-.24,0-.51.02-1.02.03-1.53.12,0,.24-.01.37-.01.12,0,.19-.04.19-.17-.01-.34.05-.69,0-1.03.01-.4.03-.79.04-1.19.13,0,.27-.02.4-.02.11,0,.16-.05.17-.16.02-.55.09-1.1.04-1.66,0-.2,0-.39.01-.59.13,0,.27-.01.4-.01.12,0,.19-.04.19-.17,0-.57.05-1.13,0-1.7ZM49.56,66.41c-.01.59-.02,1.19-.03,1.78-.12,0-.24,0-.36,0-.16,0-.22.06-.21.22,0,.18-.03.35-.03.53,0,.36-.06.72.03,1.08,0,.2,0,.39-.01.59-.11.04-.22.03-.33.04-.24,0-.24,0-.24.24-.01.56-.02,1.13-.03,1.69,0,.54,0,.55.56.49.02,0,.04-.02.06-.03.35,0,.71,0,1.06,0,.58,0,1.15,0,1.73,0,.16,0,.21-.05.21-.21-.01-.31,0-.62,0-.93.04-.23.02-.46.01-.69q-.02-.55-.57-.54c-.01-.61-.03-1.23-.04-1.84.05-.43,0-.86,0-1.3,0-.49,0-.49-.48-.51-.03,0-.07,0-.1-.01,0-.4-.01-.79-.02-1.19.05-.54,0-1.09,0-1.63,0-.13-.06-.18-.18-.18-.28,0-.56.01-.83.01-.14,0-.17.07-.17.19,0,.13,0,.27,0,.4,0,.6-.05,1.2,0,1.8Z"/><path class="cls-1" d="M7.29,79.13c-.29-.05-.58-.03-.86-.02-.52.01-1.04-.04-1.56.02-.39-.01-.79-.02-1.18-.03-.04-.18.08-.42-.07-.54-.14-.11-.36-.03-.55-.04-.14,0-.29-.01-.43-.01-.11,0-.16-.05-.16-.16,0-.01,0-.02,0-.03-.02-.13.06-.28-.05-.38-.09-.08-.23-.03-.35-.03-.16,0-.23-.06-.21-.21,0-.02,0-.04,0-.07,0-.35.03-.33-.31-.33-.28,0-.28,0-.29-.29,0-.1,0-.2,0-.3,0-.2.02-.4,0-.59-.02-.18.07-.41-.05-.54-.12-.14-.36-.02-.53-.08,0-.89-.01-1.78-.01-2.67,0-3.23,0-6.45,0-9.68,0-.11,0-.22,0-.33.13-.04.26-.03.39-.02.12,0,.18-.04.18-.17-.01-.34.04-.68,0-1.02,0-.19.02-.39.03-.58.18-.02.41.07.54-.05.15-.13.04-.37.05-.56h0c.18-.02.41.06.54-.04.16-.13.05-.37.06-.56,0,0,0,0,0,0,.18-.02.41.06.54-.04.17-.13.05-.37.07-.55.19,0,.39-.02.58-.02.25.03.5.04.75-.02.15-.04.34.06.44-.07.1-.13.04-.32.04-.48.8,0,1.59,0,2.39,0,0,.63-.07.59.6.58.03,0,.07-.01.1-.02.31,0,.61.02.92.02.22,0,.22,0,.23.25,0,.04,0,.09,0,.13-.01.15.05.22.21.21.12,0,.24,0,.36,0,0,.04,0,.09,0,.13,0,.13-.03.29.03.39.08.16.26.07.4.08.13,0,.17.06.18.18.03.44.04.44.5.44.04,0,.09,0,.13,0,0,.2.02.39.02.59,0,.02-.01.04-.01.06,0,.65-.08.57.56.57.06.78.05,1.57.03,2.35-.2,0-.4,0-.6,0-.72,0-1.44.01-2.16.01-.23,0-.24-.01-.24-.25,0-.21,0-.42,0-.63,0-.31,0-.31-.3-.32-.1,0-.2,0-.3-.03,0-.19,0-.37,0-.56.04-.12.02-.24.02-.36,0-.26,0-.27-.28-.27-.26,0-.33.04-.32-.31,0-.03,0-.07,0-.1,0-.14-.07-.2-.2-.19-.15,0-.31,0-.46.01-.4,0-.8,0-1.19,0q-.62-.06-.62.55s0,.02,0,.03c-.18.04-.41-.07-.54.07-.12.12-.02.34-.05.51-.03.19-.01.37-.02.56-.07,0-.13,0-.2,0-.37,0-.38.01-.38.37,0,.02,0,.04,0,.07,0,3.45,0,6.91,0,10.36,0,.39.02.78.02,1.17,0,.14.05.2.19.2.13,0,.27,0,.4,0,0,.14.01.29.01.43,0,.11.05.16.16.16.14,0,.29.01.43.02,0,.13,0,.27,0,.4,0,.14.05.2.19.2.54,0,1.08.01,1.62,0,.17,0,.39.07.51-.05.13-.13.03-.36.06-.54,0,0,0,0,0,0q.64,0,.61-.59c.08-.39.02-.78.05-1.18.09,0,.18-.02.26-.02.28-.01.27-.01.29-.28.02-.32.06-.64.09-.96.78,0,1.57.01,2.35.02,0,.12.02.24.01.36,0,.14.06.2.2.2.13,0,.26,0,.39,0,.03.61,0,1.22,0,1.83q-.58.01-.57.6s0,.02,0,.03c0,.19-.02.39-.02.58-.04,0-.09.01-.13.01q-.55.02-.48.57s.01.02.02.03c0,.01,0,.02,0,.03-.05.18.07.41-.07.53-.12.1-.34.01-.51.04-.14,0-.28.01-.43.02-.11,0-.16.04-.16.16,0,.14,0,.29-.01.43,0,0,0,0,0,0-.03,0-.06,0-.1,0q-.55.01-.52.58c-.41.02-.82.03-1.24.05Z"/><path class="cls-1" d="M114.09,79.11c-.91,0-1.82,0-2.73,0-.23,0-.23,0-.24-.25,0-.24,0-.49,0-.73,0-6.18,0-12.36,0-18.55,0-.13-.03-.27.03-.4.88,0,1.76,0,2.64,0,.33,0,.33,0,.33.33,0,.03,0,.07,0,.1,0,6.21,0,12.41,0,18.62,0,.29-.01.58-.02.87Z"/><path class="cls-1" d="M26.03,59.22c-.38-.05-.76-.02-1.13-.02-.51,0-1.02,0-1.54,0-.34,0-.34,0-.34.36,0,.01,0,.02,0,.03,0,6.39,0,12.78,0,19.16,0,.12.01.24.02.37-.09,0-.18-.01-.27-.01-.41,0-.38.04-.38-.37,0-6.4,0-12.8,0-19.21,0-.06,0-.11,0-.17,0-.14.07-.2.21-.2.06,0,.11,0,.17,0,.16.01.22-.06.21-.22,0-.03,0-.07,0-.1.01-.23.01-.24.26-.24.68,0,1.36,0,2.04,0,.18,0,.36,0,.53,0,.17,0,.25.05.24.23-.01.13,0,.27-.01.4Z"/><path class="cls-1" d="M114.09,79.11c0-.29.02-.58.02-.87,0-6.21,0-12.41,0-18.62,0-.03,0-.07,0-.1,0-.33,0-.33-.33-.33-.88,0-1.76,0-2.64,0,0-.13,0-.27,0-.4,0-.15.06-.19.2-.19.87,0,1.73,0,2.6,0,.16,0,.22.07.21.22,0,.06,0,.11,0,.17,0,.11.05.16.16.16.06,0,.11,0,.17,0,.23.02.25.03.26.25,0,.04,0,.09,0,.13,0,6.36,0,12.73,0,19.09,0,.58-.01.48-.49.49-.06,0-.11,0-.17,0Z"/><path class="cls-1" d="M30.24,41.11c-.33,0-.67-.03-1-.03-4.74,0-9.48,0-14.22,0-.08,0-.16,0-.23,0-.25,0-.26-.02-.27-.27,0-.06,0-.11,0-.17,0-.11-.05-.16-.16-.17-.08,0-.16,0-.23,0-.09,0-.14-.05-.14-.14,0-.07,0-.13,0-.2,0-2.38,0-4.76,0-7.14,0-.04,0-.09,0-.13-.02-.18.06-.24.23-.22.12,0,.24,0,.37,0,0,.17,0,.33,0,.5,0,2.3,0,4.61,0,6.91,0,.09,0,.18,0,.27,0,.13.05.18.18.18.09,0,.18,0,.27,0,4.72,0,9.43,0,14.15,0,.29,0,.58.02.87.02.15,0,.23.05.22.21,0,.13,0,.27,0,.4Z"/><path class="cls-1" d="M22.37,32.6s0-.09,0-.13c0-.34-.06-.41.37-.4.23,0,.25-.02.25-.25,0-.23,0-.47,0-.7,0-3.22,0-6.43,0-9.65,0-.22-.02-.45-.01-.67,0-.18-.07-.23-.24-.23-.23,0-.47,0-.7,0-2.34,0-4.67,0-7.01,0-.07,0-.13,0-.2,0-.28,0-.28,0-.29-.27,0-.12,0-.24,0-.37,1.87,0,3.74,0,5.6,0,.59,0,1.18,0,1.77,0,.3,0,.59.08.9.06.09,0,.15.04.15.14,0,.07,0,.13,0,.2,0,.14.05.2.19.21.15.01.33-.08.44.08.08.12.03.28.03.43,0,3.57,0,7.14,0,10.71,0,.3,0,.3-.33.31q-.25.01-.27.26c-.02.29-.02.3-.3.3-.12,0-.24.02-.36-.02Z"/><path class="cls-1" d="M33.26,79.1c0-6.49,0-12.98,0-19.47,0-.14,0-.29,0-.43.13,0,.27,0,.4,0,.15,0,.2.07.19.2,0,.08,0,.16,0,.23,0,6.17,0,12.34,0,18.5,0,.24-.01.49,0,.73,0,.18-.07.24-.24.23-.12,0-.24,0-.37,0Z"/><path class="cls-1" d="M43.55,52.52c.29-.04.58.01.87.01,4.59,0,9.18,0,13.77,0,.02,0,.04,0,.07,0,.3,0,.36.04.36-.35,0-.25,0-.24.27-.25.11,0,.22,0,.33-.01.05.07.03.15.03.23,0,.41,0,.41-.39.43-.16,0-.22.07-.21.22,0,.03,0,.07,0,.1-.01.26-.01.26-.29.27-.2,0-.4,0-.6,0-4.42,0-8.85,0-13.27,0-.27,0-.52-.11-.79-.09-.08,0-.1-.06-.11-.14,0-.14-.02-.29-.03-.43Z"/><path class="cls-1" d="M129.19,79.11c0-.14.02-.29.02-.43,0-3.75,0-7.5,0-11.25,0-.29.09-.57.07-.86,0-.05.02-.1.06-.11.13-.03.27-.05.39.01.09.05.05.16.05.25.01.31.01.31.35.33.25.01.26.01.25.27,0,.22.09.44.06.66-.01.09.02.18-.05.25-.17.04-.39-.07-.51.07-.1.12-.04.32-.04.49,0,3.29,0,6.57,0,9.86,0,.53.05.47-.45.47-.07,0-.13,0-.2,0Z"/><path class="cls-1" d="M26.06,70.7c0-.13.02-.27.01-.4,0-.15.06-.18.2-.19,1.05-.1,2.11-.03,3.17-.05.22,0,.44.07.66.06.1,0,.13.05.14.15,0,.26.03.51.03.77,0,2.69,0,5.39,0,8.08-.14,0-.29-.01-.43-.01-.11,0-.16-.05-.16-.16,0-.26,0-.51,0-.77,0-2.35,0-4.71,0-7.06,0-.44.03-.42-.42-.41-.94,0-1.89-.03-2.83.02-.12,0-.24,0-.37-.01Z"/><path class="cls-1" d="M134.65,59.19c0,.1,0,.2,0,.3,0,3.78,0,7.57,0,11.35,0,.04,0,.09,0,.13,0,.29-.02.3-.3.31-.29,0-.3,0-.31-.29,0-.23-.02-.47-.02-.7,0-.15-.06-.2-.2-.19-.03,0-.07,0-.1,0-.28-.01-.29-.01-.29-.31,0-.12,0-.24,0-.37.6.03.6.03.6-.55,0-3.06,0-6.12,0-9.18q0-.5.49-.51s.07,0,.1,0Z"/><path class="cls-1" d="M4.29,75.49c-.13,0-.27-.01-.4,0-.15,0-.19-.06-.19-.2,0-.39-.02-.78-.02-1.17,0-3.45,0-6.91,0-10.36,0-.02,0-.04,0-.07,0-.36.01-.37.38-.37.07,0,.13,0,.2,0,0,.09.01.18.01.26,0,3.65,0,7.31,0,10.96,0,.31.04.62,0,.93Z"/><path class="cls-1" d="M92.39,75.49c-.13,0-.27-.01-.4,0-.15,0-.19-.06-.19-.2,0-.39-.02-.78-.02-1.17,0-3.45,0-6.91,0-10.36,0-.02,0-.04,0-.07,0-.36.01-.37.38-.37.07,0,.13,0,.2,0,0,.09.01.18.01.26,0,3.65,0,7.31,0,10.96,0,.31.04.62,0,.93Z"/><path class="cls-1" d="M152.75,74.91s-.09-.01-.13-.02q-.45-.02-.45-.48c0-3.54,0-7.08,0-10.61,0-.27.01-.53,0-.8,0-.13.05-.18.18-.18.13,0,.27.01.4-.03,0,.31,0,.62,0,.93,0,3.58,0,7.17,0,10.75,0,.14-.01.29-.02.43Z"/><path class="cls-1" d="M33.27,59.2c-.9,0-1.8,0-2.7,0-.3,0-.31,0-.31.31,0,2.57,0,5.14,0,7.7,0,.45.06.42-.44.42-.05,0-.11-.01-.16-.02,0-2.64,0-5.27.01-7.91,0-.09,0-.18,0-.27-.01-.17.05-.25.23-.23.3.03.33-.05.32-.35,0-.26,0-.26.26-.26.83,0,1.67,0,2.5,0,.28,0,.28,0,.29.27,0,.11,0,.22,0,.33Z"/><path class="cls-1" d="M70.07,79.1c0-.32.01-.65.01-.97,0-2.34,0-4.67,0-7.01,0-.09,0-.18,0-.27,0-.13.06-.18.18-.18.13,0,.27,0,.4,0,0,.1.02.2.02.3,0,2.58,0,5.16,0,7.75,0,.06,0,.11,0,.17.01.15-.05.23-.21.22-.13,0-.27,0-.4-.01Z"/><path class="cls-1" d="M99.64,68.84c-1.71-.04-3.43,0-5.14-.02-.01,0-.02,0-.03,0-.18-.02-.23.07-.23.24,0,.57,0,1.14,0,1.7,0,.16.04.33-.04.49-.16-.09-.39.05-.5-.09-.11-.13-.01-.34-.07-.52-.03-.1-.02-.22-.02-.33,0-.38,0-.76,0-1.14,0-.33,0-.34.34-.35.16,0,.26-.05.24-.23,0-.06,0-.11,0-.17-.01-.16.06-.23.22-.21.07,0,.13,0,.2,0,1.57,0,3.14,0,4.71,0,.35,0,.35,0,.35.34,0,.09-.01.18-.02.27Z"/><path class="cls-1" d="M74.29,59.19c-.42.04-.84,0-1.26,0-1.99,0-3.97,0-5.96,0,.01-.19-.08-.42.05-.55.12-.14.36-.05.54-.05,2.12,0,4.24-.02,6.37.01.23,0,.23,0,.24.24,0,.11.02.22.02.33Z"/><path class="cls-1" d="M95.42,62.18c.14,0,.29,0,.43,0,.14,0,.2.07.19.2,0,.03,0,.07,0,.1,0,.31,0,.32.33.33.16,0,.2.07.21.22.07.64.04,1.28.05,1.93,0,.24,0,.25.24.25.92,0,1.84,0,2.76-.01-.02.19.07.42-.05.55-.12.14-.36.05-.54.06-.73.01-1.47,0-2.2,0-.24,0-.25,0-.25-.24,0-.31-.08-.3-.3-.3-.29,0-.3-.02-.3-.31,0-.63,0-1.27,0-1.9,0-.25,0-.25-.26-.27-.04,0-.09,0-.13,0-.12,0-.19-.04-.18-.17,0-.14,0-.29,0-.43Z"/><path class="cls-1" d="M159.98,68.82c-1.8,0-3.6,0-5.41,0q-.05-.61.54-.61c1.49,0,2.98,0,4.47,0,.08,0,.16,0,.23,0,.16-.01.23.06.22.21-.01.13.04.27-.05.39Z"/><path class="cls-1" d="M7.93,63.38c.1.04.2.02.3.03.3,0,.3,0,.3.32,0,.21,0,.42,0,.63,0,.24.01.25.24.25.72,0,1.44,0,2.16-.01.2,0,.4,0,.6,0,0,.19.08.41-.03.55-.12.15-.35.06-.54.06-.94.02-1.88.03-2.83,0-.1,0-.22.02-.22-.13,0-.56-.07-1.13.02-1.69Z"/><path class="cls-1" d="M130.41,60.4c-.12,0-.24-.01-.37,0-.17,0-.24-.08-.23-.24,0-.24-.01-.49-.01-.73,0-.14-.03-.23-.2-.22-1.13,0-2.26-.02-3.4.02,0-.19-.07-.41.03-.55.12-.15.35-.06.54-.06.94,0,1.88,0,2.83,0,.23,0,.23,0,.24.25,0,.07,0,.13,0,.2,0,.11.06.16.17.16.06,0,.11,0,.17,0,.25,0,.26.01.25.26,0,.31.07.62-.02.92Z"/><path class="cls-1" d="M96.66,59.19c-.65,0-1.31-.01-1.96-.01-.82,0-1.64.02-2.47.02-.15,0-.31-.01-.46-.02,0-.01,0-.02,0-.03.06-.17-.07-.39.08-.51.12-.1.32-.03.49-.04,1.03-.05,2.06-.03,3.09-.02.31,0,.62.02.93.03.26,0,.26,0,.27.25,0,.11,0,.22.04.33Z"/><path class="cls-1" d="M47.77,76.11c-.02-.19-.08-.41.02-.55.11-.15.35-.06.54-.06,1.34,0,2.68,0,4.02-.01.17,0,.25.05.23.23-.01.13,0,.27-.01.4-.23-.04-.47-.02-.7-.02-1.09,0-2.18,0-3.27,0-.28,0-.55.02-.83.03Z"/><path class="cls-1" d="M68.28,8.49c-.04-.54.01-1.09.01-1.63,0-.11.04-.17.16-.17.04,0,.09,0,.13,0,.23-.02.24-.02.25-.25.02-.81.04-1.62.06-2.43,0-.35,0-.35.35-.37.08,0,.15-.02.23-.03.04.75-.03,1.5-.02,2.26,0,.15-.06.2-.2.19-.03,0-.07,0-.1,0-.23.02-.24.02-.25.26-.02.61-.03,1.22-.05,1.83,0,.06,0,.11,0,.17,0,.13-.06.17-.18.17-.13,0-.26.01-.4.02Z"/><path class="cls-1" d="M156.35,71.26c.63-.08.63-.08.63.53,0,1.13-.01,2.26-.02,3.39,0,.29,0,.29-.29.29-.1,0-.2,0-.3.01,0-1.28,0-2.56.01-3.83,0-.13.02-.27-.03-.4Z"/><path class="cls-1" d="M95.97,71.26c.14,0,.29,0,.43-.02.17,0,.24.06.24.23,0,.24,0,.49,0,.73,0,.79,0,1.57,0,2.36,0,.31,0,.31-.31.32-.1,0-.2-.01-.3.03-.05-.13-.03-.26-.03-.4,0-.97,0-1.94,0-2.9,0-.12.02-.25-.03-.36Z"/><path class="cls-1" d="M51.97,59.19c-1.2,0-2.41,0-3.61,0,.01-.19-.07-.42.05-.55.12-.13.36-.05.54-.05.91,0,1.82,0,2.73,0,.28,0,.28,0,.29.3,0,.1,0,.2,0,.3Z"/><path class="cls-1" d="M54.97,2.47c.05.54.01,1.08.01,1.62,0,.56-.01,1.13-.02,1.69,0,.27,0,.27-.28.28-.1,0-.2.02-.3.03-.04-.6-.01-1.2,0-1.79,0-.52,0-1.04.06-1.56.03-.25.02-.25.27-.26.09,0,.18,0,.27,0Z"/><path class="cls-1" d="M69.47,3.08c-.04-.58,0-1.17.01-1.75,0-.43-.05-.86-.08-1.28.02,0,.04-.03.06-.02.19.02.41-.07.55.05.13.12.04.34.05.51.04.74,0,1.49-.01,2.23,0,.14-.06.2-.2.19-.14-.01-.26.02-.39.08Z"/><path class="cls-1" d="M156.98,65.21c1,0,2,0,3.01,0-.02.19.07.41-.05.54-.12.14-.36.05-.54.05-.7,0-1.39,0-2.09,0-.32,0-.32,0-.32-.33,0-.09,0-.18,0-.27Z"/><path class="cls-1" d="M137.67,59.2c-1,0-2.01-.01-3.01-.02q0-.6.59-.6c.72,0,1.44,0,2.16.01.24,0,.24,0,.25.24,0,.12,0,.24,0,.37Z"/><path class="cls-1" d="M53.75,13.88c.06.37.01.75.02,1.13,0,.32-.01.64-.01.96,0,.19.02.38-.15.52-.02.02-.05.06-.04.09.05.33-.19.3-.39.33-.04-.48,0-.95-.01-1.43,0-.43,0-.86.01-1.3,0-.28.02-.3.31-.3.09,0,.18,0,.27,0Z"/><path class="cls-1" d="M59.82,48.91c-.05-.08-.03-.17-.03-.26,0-.63.01-1.26.03-1.89,0-.24,0-.24.24-.24.12,0,.24.02.36-.04.07.4,0,.8.02,1.2.02.35-.08.68-.08,1.03,0,.13-.05.18-.18.18-.12,0-.25-.02-.36.02Z"/><path class="cls-1" d="M50.16,16.38c-.13,0-.26-.02-.4-.02-.12,0-.19-.04-.19-.17.01-.76-.04-1.53,0-2.29.12,0,.24,0,.36,0,.17-.01.23.07.23.23,0,.56.01,1.12.01,1.69,0,.19,0,.37-.02.56Z"/><path class="cls-1" d="M51.35,25.4c-.18-.04-.41.07-.54-.07-.11-.13-.04-.34-.04-.52,0-.63-.04-1.27,0-1.9.05,0,.11.02.16.02.42.02.42.02.42.42,0,.56.01,1.12.02,1.69,0,.12-.01.24-.02.36Z"/><path class="cls-1" d="M50.75,20.59c-.63-.03-.58.08-.58-.6,0-.63-.04-1.26,0-1.89.04,0,.09.02.13.02q.44.02.44.48c0,.55.02,1.11.02,1.66,0,.11.02.22-.02.33Z"/><path class="cls-1" d="M53.16,18.1c.05.75,0,1.5,0,2.25,0,.15-.08.19-.21.19-.12,0-.24,0-.36,0-.06-.24-.02-.49-.02-.73,0-.49.01-.98.01-1.47,0-.16.06-.22.21-.21.12,0,.24-.01.37-.02Z"/><path class="cls-1" d="M155.77,76.1c0,.14,0,.29,0,.43,0,.11-.05.16-.16.16-.69.02-1.38.02-2.07,0-.11,0-.17-.05-.16-.16,0-.14,0-.29,0-.43.8,0,1.6,0,2.39,0Z"/><path class="cls-1" d="M156.38,62.8c.12,0,.25.01.37,0,.18-.01.23.07.22.24,0,.72,0,1.45,0,2.17-.13,0-.27,0-.4,0-.14,0-.2-.05-.2-.19,0-.23,0-.46,0-.7,0-.51,0-1.02,0-1.52Z"/><path class="cls-1" d="M49.54,11.51s-.07,0-.1-.01c-.15-.03-.34.07-.44-.06-.09-.12-.03-.3-.03-.45,0-.63-.05-1.26,0-1.89.58,0,.58,0,.58.57,0,.62.05,1.24,0,1.85Z"/><path class="cls-1" d="M95.38,76.1c-.03.18.07.41-.06.54-.12.12-.34.05-.51.05-.54.01-1.08,0-1.62,0-.15,0-.2-.06-.19-.2,0-.13,0-.27,0-.4.8,0,1.59,0,2.39,0Z"/><path class="cls-1" d="M7.28,76.1c-.03.18.07.41-.06.54-.12.12-.34.05-.51.05-.54.01-1.08,0-1.62,0-.15,0-.2-.06-.19-.2,0-.13,0-.27,0-.4.8,0,1.59,0,2.39,0Z"/><path class="cls-1" d="M48.94,6.7s-.07-.01-.1-.02c-.15-.03-.34.07-.44-.06-.09-.12-.03-.3-.03-.45,0-.63-.05-1.26,0-1.89.16.01.35-.07.48.04.13.11.04.31.06.47.07.64.06,1.27.03,1.91Z"/><path class="cls-1" d="M33.27.07c0,.78-.01,1.57-.02,2.35-.18-.02-.39.06-.52-.04-.14-.12-.05-.34-.06-.51-.02-.52,0-1.04,0-1.56,0-.17.05-.25.23-.23.12,0,.24,0,.37,0Z"/><path class="cls-1" d="M61.63,39.89c-.08-.3-.02-.61-.03-.92,0-.22,0-.44.01-.66,0-.24.02-.25.28-.26.11,0,.22.02.32-.05.05.44.04.88-.01,1.31-.01.1-.02.2-.02.29-.01.26,0,.26-.28.27-.09,0-.18,0-.26.02Z"/><path class="cls-1" d="M36.89,21.1c.18.06.41-.06.54.08.11.13.03.34.05.52.05.43.08.86,0,1.29-.09,0-.18-.01-.27-.02-.31,0-.32,0-.32-.3,0-.52-.05-1.04,0-1.56Z"/><path class="cls-1" d="M59.23,51.34c-.08-.38-.01-.77-.02-1.15,0-.15,0-.31,0-.46,0-.13.06-.2.2-.2.13,0,.27.02.39-.03.07.26.02.53.02.8,0,.24,0,.49,0,.73q0,.28-.3.29c-.1,0-.2-.01-.3.03Z"/><path class="cls-1" d="M45.94,70.61c.05.57,0,1.13,0,1.7,0,.13-.06.17-.19.17-.13,0-.27,0-.4.01-.08-.15-.05-.3-.04-.45.03-.4.05-.79.05-1.19,0-.16.06-.22.22-.21.12,0,.24.01.36-.03Z"/><path class="cls-1" d="M36.28,18.1c.14.04.29.02.43.03.09,0,.16.03.15.13-.02.56.08,1.12.03,1.69,0,.01-.01.02-.02.03-.14,0-.29-.02-.43-.02-.11,0-.16-.05-.16-.16,0-.57-.05-1.13,0-1.7Z"/><path class="cls-1" d="M39.9,35.6c.05,0,.11.02.16.02.41.02.4.02.42.44,0,.34.03.69.04,1.03,0,.13.04.27-.04.39-.13-.04-.26-.02-.4-.02-.12,0-.19-.03-.19-.17,0-.57-.05-1.13,0-1.7Z"/><path class="cls-1" d="M149.15,75.47c.12,0,.24.02.37.01.17,0,.24.05.24.23,0,.26.01.51,0,.77,0,.17.05.26.23.24.03,0,.07,0,.1,0,.24,0,.25.01.25.27,0,.11,0,.22,0,.33-.14,0-.29,0-.43,0-.15,0-.2-.07-.19-.2,0-.01,0-.02,0-.03-.01-.12.04-.25-.05-.35-.09-.1-.23-.04-.35-.05-.07,0-.15-.02-.14-.1.02-.37-.16-.74-.03-1.11Z"/><path class="cls-1" d="M38.09,26.58c.17.07.42-.06.53.09.09.12.05.34.06.51.04.4.08.81,0,1.21-.13,0-.26,0-.4,0-.12,0-.19-.03-.19-.17,0-.55-.05-1.1,0-1.65Z"/><path class="cls-1" d="M42.32,47.08c.13.05.26.03.4.03.09,0,.15.03.16.13.02.56.13,1.13.03,1.69-.14-.05-.28-.02-.42-.03-.1,0-.17-.03-.17-.15.01-.56-.06-1.12.01-1.68Z"/><path class="cls-1" d="M55.58,74.3c-.11,0-.22,0-.33-.01-.24,0-.25,0-.25-.24,0-.54-.05-1.09,0-1.63.06.01.13.03.19.03.37.02.37.02.38.41.01.34,0,.68.05,1.02.02.14.04.29-.04.42Z"/><path class="cls-1" d="M47.14,65.2c.05.54-.01,1.09,0,1.63,0,.13-.06.18-.18.17-.13,0-.27,0-.4.01-.09-.39-.03-.79-.02-1.18,0-.01,0-.02,0-.03.06-.18-.07-.42.08-.53.12-.09.34-.05.51-.07Z"/><path class="cls-1" d="M46.55,67.61c.04.55,0,1.11,0,1.66,0,.15-.07.22-.22.22-.12,0-.24,0-.37,0-.09-.16-.06-.33-.04-.48.05-.38.05-.77.05-1.15,0-.16.06-.22.21-.21.12,0,.24.01.36-.03Z"/><path class="cls-1" d="M70.66,70.68c0-.14,0-.29,0-.43,0-.11.05-.16.16-.16.29,0,.58,0,.87,0,.12,0,.19.05.18.18,0,.06,0,.11,0,.17,0,.13.06.17.18.18.47.04.47.04.45.52,0,.06,0,.11-.03.16-.12-.05-.24-.03-.36-.03-.17,0-.25-.07-.23-.24,0-.02,0-.04,0-.07-.01-.28-.01-.28-.31-.28-.31,0-.62,0-.92,0Z"/><path class="cls-1" d="M33.27,3.61c.13.04.26.03.4.02.12,0,.19.04.19.17-.01.56.05,1.13,0,1.69-.09,0-.18-.02-.26-.02-.31,0-.31,0-.32-.3,0-.52-.04-1.04,0-1.56Z"/><path class="cls-1" d="M45.34,73.09c.06.55-.01,1.11-.04,1.66,0,.11-.06.16-.17.16-.13,0-.27.01-.4.02-.08-.41-.04-.83,0-1.24,0-.04.02-.08.03-.13.02-.14-.06-.31.06-.41.11-.09.28-.01.42-.04.03,0,.06-.02.1-.03Z"/><path class="cls-1" d="M38.69,29.59s.04,0,.06.01c.16.05.36-.07.47.07.1.13.03.32.04.49.02.29.04.57.05.86,0,.13.04.27-.04.39-.57.01-.57.01-.58-.56,0-.42-.04-.84,0-1.25Z"/><path class="cls-1" d="M39.29,32.6s.09.02.13.02c.43.03.43.03.45.48.01.31.04.62.05.93,0,.13.04.27-.04.39-.13,0-.26,0-.4,0-.12,0-.19-.03-.19-.17.01-.55-.04-1.1,0-1.65Z"/><path class="cls-1" d="M64.67,25.39c-.08-.12-.05-.26-.04-.39.03-.4.05-.79.05-1.19,0-.16.05-.22.21-.21.12,0,.24-.01.36-.02.05.53,0,1.06,0,1.59,0,.15-.06.23-.22.22-.12,0-.24,0-.37,0Z"/><path class="cls-1" d="M47.15,79.09c0-.52.02-1.04.02-1.56,0-.16.05-.22.21-.21.12,0,.24-.01.36-.02.05.54,0,1.08,0,1.62,0,.15-.07.19-.2.19-.13,0-.27,0-.4,0Z"/><path class="cls-1" d="M54.36,8.48c.05.55,0,1.1,0,1.65,0,.13-.06.17-.18.17-.13,0-.26,0-.4,0-.06-.55,0-1.1-.01-1.66,0-.13.07-.18.19-.17.13,0,.27,0,.4,0Z"/><path class="cls-1" d="M63.46,31.4c-.05-.54.01-1.08,0-1.62,0-.12.05-.18.18-.18.13,0,.26-.01.4-.02.05.56,0,1.11,0,1.67,0,.1-.05.14-.15.14-.14,0-.29,0-.43.01Z"/><path class="cls-1" d="M65.27,22.39c-.09-.13-.06-.28-.04-.42.05-.38.05-.77.05-1.16,0-.15.04-.23.21-.22.12,0,.24.01.36-.03.06.55,0,1.1-.03,1.64,0,.12-.06.18-.18.18-.12,0-.24,0-.36,0Z"/><path class="cls-1" d="M52.55,24.17c.06.56,0,1.12,0,1.68,0,.09-.05.14-.14.14-.14,0-.29,0-.43,0-.06-.55,0-1.1-.01-1.65,0-.12.05-.18.18-.18.13,0,.26,0,.4,0Z"/><path class="cls-1" d="M47.75,62.2c.04.52,0,1.03,0,1.55,0,.23-.05.26-.28.27-.1,0-.2,0-.3,0-.05-.55.02-1.1.02-1.65,0-.1.05-.14.14-.14.14,0,.29.02.43-.03Z"/><path class="cls-1" d="M77.91,62.9c-.12-.07-.26-.04-.39-.04-.13,0-.22-.05-.21-.19.02-.35-.06-.7.01-1.05.19.05.44-.08.57.08.11.14.03.36.04.55.01.22.04.44-.02.66Z"/><path class="cls-1" d="M62.26,36.28c-.09-.08-.05-.19-.05-.28,0-.25,0-.51,0-.76,0-.14.06-.2.2-.2.14,0,.29.02.42-.04.04.35,0,.7,0,1.05,0,.21-.04.24-.26.24-.11,0-.22-.01-.33-.02Z"/><path class="cls-1" d="M76.72,74.32c-.14-.07-.28-.04-.43-.04-.1,0-.18-.05-.17-.16.01-.36-.07-.73.02-1.09.13,0,.26,0,.39,0,.14,0,.21.07.2.2-.01.36.05.72-.01,1.08Z"/><path class="cls-1" d="M40.5,38.61c.12,0,.24.02.36.02.23.01.27.03.26.24-.01.34.07.68-.03,1.02-.13,0-.26,0-.39,0-.14,0-.2-.07-.2-.2,0-.36-.04-.72,0-1.08Z"/><path class="cls-1" d="M130.42,68.8c.11.06.24.05.36.04.15,0,.24.05.24.2,0,.35.07.7,0,1.05-.13,0-.26-.01-.39-.01-.13,0-.21-.06-.21-.19.01-.36-.05-.72.01-1.08Z"/><path class="cls-1" d="M131.63,72.41c.14.07.28.03.43.04.1,0,.18.05.18.16-.01.36.08.73,0,1.09-.14,0-.28-.01-.43-.02-.08,0-.18-.04-.16-.13.08-.37-.11-.74-.02-1.11,0-.01,0-.02.01-.03Z"/><path class="cls-1" d="M149.75,61.59c.04.34-.02.69,0,1.03,0,.15-.07.19-.21.19-.13,0-.27-.02-.4.03-.09-.36,0-.72-.02-1.08,0-.12.07-.14.17-.15.15,0,.31-.01.46-.02Z"/><path class="cls-1" d="M6.68,61.61c.15,0,.31,0,.46-.01.14,0,.21.05.2.19,0,.03,0,.07,0,.1-.01.34.05.3.32.31.28,0,.28,0,.28.27,0,.12.01.24-.02.36-.04-.01-.08-.03-.13-.03-.14-.02-.31.05-.42-.03-.12-.09-.04-.27-.06-.41-.01-.11-.07-.14-.18-.16-.14-.02-.32.07-.4-.07-.06-.1-.02-.26-.03-.39,0-.04-.01-.09-.02-.13Z"/><path class="cls-1" d="M37.49,24.11c.18.07.41-.06.54.09.12.14.03.36.06.55.04.21.06.44-.02.65-.69.01-.57.02-.59-.55,0-.24-.02-.49,0-.73Z"/><path class="cls-1" d="M131.03,62.23c-.14-.06-.29-.03-.43-.04-.1,0-.18-.02-.17-.14.01-.35-.06-.71,0-1.06.08,0,.15.03.23.03.42,0,.38-.02.38.4,0,.27.05.55-.01.82Z"/><path class="cls-1" d="M73.7,76.02c.14.04.29.02.43.03.09,0,.16.04.15.14-.03.37.12.74.01,1.12-.13-.04-.27-.02-.4-.02-.12,0-.19-.03-.19-.17.01-.37-.05-.73,0-1.1Z"/><path class="cls-1" d="M10.93,61.02s-.09,0-.13,0c-.46,0-.46,0-.5-.44,0-.12-.05-.17-.18-.18-.14,0-.32.08-.4-.08-.05-.11-.02-.26-.03-.39,0-.04,0-.09,0-.13.07,0,.13,0,.2,0,.4,0,.41,0,.44.41.01.16.09.2.23.2.37.02.37.02.37.41,0,.07,0,.13,0,.2Z"/><path class="cls-1" d="M8.58,73.07c-.03.32-.06.64-.09.96-.02.27,0,.27-.29.28-.09,0-.18.01-.26.02-.09-.37-.02-.75-.03-1.12,0-.11.07-.16.18-.16.17,0,.33-.03.5.03Z"/><path class="cls-1" d="M98.46,60.41c-.05,0-.11,0-.16-.01-.13-.01-.28.05-.38-.04-.11-.09-.05-.25-.05-.38,0-.13-.06-.17-.18-.17-.15,0-.34.07-.44-.05-.11-.13-.03-.32-.05-.48,0-.02,0-.04,0-.07.07,0,.13.02.2.02.11,0,.24-.02.33.03.11.06.04.2.06.31.03.15.12.19.26.2.42.03.42.04.42.44,0,.07,0,.13,0,.2Z"/><path class="cls-1" d="M72.49,71.81c.13.04.26.03.39.03.14,0,.2.06.19.2-.01.35.05.7,0,1.05-.13,0-.27-.02-.4-.01-.15,0-.2-.06-.19-.2.01-.35-.04-.71,0-1.06Z"/><path class="cls-1" d="M64.06,28.4c-.09-.18-.03-.37-.03-.55,0-.04.02-.09.02-.13.03-.17-.07-.39.07-.5.13-.1.34-.02.51-.04.06.35,0,.7.01,1.05,0,.13-.07.17-.19.17-.13,0-.26,0-.4,0Z"/><path class="cls-1" d="M42.93,50.09c.14.05.28.02.43.03.1,0,.18.03.17.15-.02.36.07.72-.03,1.08-.13,0-.26-.01-.39-.02-.09,0-.16-.04-.15-.13.02-.37-.12-.74-.02-1.11Z"/><path class="cls-1" d="M54.37,68.82c-.14,0-.29,0-.43,0-.11,0-.16-.05-.16-.16.01-.35-.05-.7,0-1.05.14,0,.29,0,.43,0,.09,0,.15.04.15.13-.01.33.07.66.04.99,0,.03-.03.06-.04.09Z"/><path class="cls-1" d="M62.87,33.81c-.1-.15-.05-.32-.04-.48.01-.17.04-.35.03-.52,0-.16.07-.21.22-.21.12,0,.24,0,.36-.01.05.35,0,.7.01,1.06,0,.13-.06.18-.18.18-.13,0-.26,0-.4-.01Z"/><path class="cls-1" d="M73.1,73.68c.17.05.38-.05.51.06.14.12.03.34.07.51.05.22.07.43,0,.65-.14,0-.29,0-.43,0-.11,0-.16-.05-.16-.16.01-.35-.05-.7,0-1.05Z"/><path class="cls-1" d="M54.97,71.29c-.67-.01-.58.07-.59-.59,0-.23-.02-.46.01-.7.09,0,.17.02.26.02.31.01.32,0,.32.31,0,.32.04.64,0,.96Z"/><path class="cls-1" d="M61.03,42.89c-.1-.36.03-.72,0-1.09,0-.09.06-.14.15-.14.13,0,.27,0,.4,0,.11.34.03.69.03,1.04,0,.13-.09.18-.23.18-.12,0-.24.01-.36.02Z"/><path class="cls-1" d="M35.09,12.69c.09,0,.18,0,.26,0,.31,0,.32,0,.32.3,0,.31.04.61,0,.92-.18-.03-.4.07-.54-.06-.12-.12-.03-.34-.05-.51-.01-.22-.03-.44.01-.66Z"/><path class="cls-1" d="M34.48,9.68c.13,0,.26.01.39.01.11,0,.19.03.19.17-.01.35.04.7,0,1.05-.1,0-.2,0-.3,0-.28,0-.28,0-.28-.27,0-.32-.04-.64,0-.95Z"/><path class="cls-1" d="M67.07,13.91c-.06-.35.01-.7,0-1.05,0-.11.05-.16.16-.16.14,0,.28,0,.43,0,.06.35,0,.7,0,1.05,0,.13-.07.17-.19.17-.13,0-.26,0-.4,0Z"/><path class="cls-1" d="M74.3,77.89c.07,0,.13.01.2.01.42,0,.38-.02.38.4,0,.26.01.52.02.79-.19,0-.41.08-.54-.04-.14-.11-.04-.33-.06-.51-.02-.22-.03-.44,0-.66Z"/><path class="cls-1" d="M52.59,77.29q.56,0,.58.54c0,.23.03.46-.01.69-.18-.03-.41.07-.54-.06-.12-.12-.03-.34-.04-.51-.01-.22-.03-.44.01-.66Z"/><path class="cls-1" d="M44.7,76.12c.05.34,0,.69,0,1.03,0,.13-.07.17-.19.17-.12,0-.24,0-.37.01-.1-.36-.01-.73-.03-1.09,0-.1.06-.13.15-.13.14,0,.29,0,.43,0Z"/><path class="cls-1" d="M35.69,15.69c.18.03.4-.08.53.06.12.12.03.34.04.51.01.22.03.44-.01.66-.18-.03-.4.07-.54-.06-.12-.12-.03-.34-.04-.51-.01-.22-.03-.44.01-.66Z"/><path class="cls-1" d="M67.69,10.91c-.06-.35,0-.71,0-1.07,0-.09.04-.14.14-.14.14,0,.29-.01.43-.02.05.35,0,.7,0,1.05,0,.13-.06.18-.18.17-.13,0-.26,0-.39,0Z"/><path class="cls-1" d="M66.47,16.91c-.05-.34.01-.69,0-1.03,0-.12.05-.19.18-.18.13,0,.27,0,.4,0,.06.35,0,.7,0,1.05,0,.13-.07.17-.18.17-.13,0-.26,0-.4,0Z"/><path class="cls-1" d="M88.78,75.49c.18.05.41-.06.54.07.12.13.03.36.05.54.02.2,0,.39,0,.59-.18-.02-.41.07-.54-.05-.14-.12-.04-.35-.06-.54-.02-.21-.03-.42,0-.62Z"/><path class="cls-1" d="M.68,75.49c.18.05.41-.07.53.08.12.14.03.36.05.54.02.2,0,.4,0,.59-.13,0-.26-.02-.39-.01-.13,0-.21-.04-.2-.19.02-.34-.05-.68,0-1.01Z"/><path class="cls-1" d="M56.17,76.71c-.16,0-.35.06-.48-.04-.14-.11-.04-.31-.07-.47-.06-.26-.05-.52-.02-.78.11,0,.22.02.33.03.24.01.25.01.25.24,0,.34.05.68,0,1.02Z"/><path class="cls-1" d="M99.08,76.11c-.04-.34.02-.68,0-1.02,0-.13.05-.18.17-.18.13,0,.26.01.39-.03.05.34,0,.68.01,1.03,0,.16-.08.21-.22.21-.12,0-.24,0-.36,0Z"/><path class="cls-1" d="M53.76,65.82c-.18-.03-.4.07-.53-.06-.12-.12-.03-.34-.05-.51-.02-.22-.03-.44,0-.65.08,0,.15,0,.23,0,.38,0,.35,0,.35.37,0,.28.04.57,0,.85Z"/><path class="cls-1" d="M41.74,44.67s.04,0,.07.01c.47.02.47.02.49.51.01.23.04.46,0,.7-.18,0-.41.08-.54-.05-.12-.12-.04-.34-.05-.51-.01-.22-.05-.44.03-.66Z"/><path class="cls-1" d="M89.37,61.6c0,.33-.01.66,0,.99,0,.17-.07.21-.22.2-.12,0-.24-.01-.36.03-.05-.34,0-.68-.01-1.03,0-.14.06-.2.2-.19.13,0,.27,0,.4,0Z"/><path class="cls-1" d="M33.88,6.67c.18.03.4-.07.53.06.12.12.03.34.04.51.01.22.03.44-.01.66-.18-.02-.4.08-.53-.06-.12-.13-.03-.34-.04-.51-.01-.22-.03-.44.01-.66Z"/><path class="cls-1" d="M52.56,60.41s-.09,0-.13-.01c-.44-.01-.44-.01-.45-.47,0-.24,0-.49,0-.73.18.01.41-.07.54.05.13.12.04.34.05.51.02.22.03.44,0,.66Z"/><path class="cls-1" d="M53.15,62.82c-.18-.02-.4.08-.53-.06-.12-.12-.03-.34-.05-.51-.02-.22-.03-.44,0-.66.18.05.42-.07.54.07.12.14.03.36.05.55.02.2.03.4-.01.6Z"/><path class="cls-1" d="M1.25,61.59c.03.34-.01.68,0,1.02,0,.13-.06.17-.18.17-.13,0-.26-.01-.39.02-.04-.34,0-.68,0-1.02,0-.14.05-.2.19-.2.13,0,.26,0,.4,0Z"/><path class="cls-1" d="M48.34,59.79c.05.35,0,.71.01,1.06,0,.13-.06.18-.18.18-.13,0-.26,0-.4,0-.05-.34,0-.69,0-1.03,0-.12.05-.18.18-.18.13,0,.27-.01.4-.02Z"/><path class="cls-1" d="M41.14,41.67c.1,0,.2.01.3.02.25.01.25.01.25.24,0,.32.05.64,0,.97-.71.02-.58.02-.59-.57,0-.22-.04-.44.03-.65Z"/><path class="cls-1" d="M4.89,58.61c0,.16.06.35-.04.48-.1.13-.29.03-.44.07-.25.06-.5.05-.75.02,0-.03.01-.06.02-.1.03-.15-.06-.34.06-.44.12-.1.3-.02.45-.04.23-.02.46-.04.69,0Z"/><path class="cls-1" d="M60.45,45.3c-.1-.15-.05-.32-.04-.48.01-.17.05-.35.04-.52,0-.16.07-.22.22-.21.11,0,.22,0,.33.01.05.34-.01.68,0,1.03,0,.12-.06.18-.18.18-.12,0-.24,0-.36,0Z"/><path class="cls-1" d="M156.99,59.19c-.35.06-.7-.05-1.05-.03-.12,0-.18-.06-.18-.18,0-.12,0-.24,0-.36.34-.06.69.01,1.03,0,.13,0,.17.06.17.18,0,.13.01.26.02.4Z"/><path class="cls-1" d="M153.38,58.61c.02.5.02.49-.47.55-.25.03-.5.06-.75.03,0-.01,0-.02,0-.03.05-.17-.07-.39.07-.51.13-.11.34-.03.52-.05.21-.03.42-.03.63,0Z"/><path class="cls-1" d="M95.99,75.5s.04.06.04.09c.05.5.05.5-.46.51-.06,0-.13,0-.19,0,0-.12.02-.24.02-.37,0-.16.04-.25.23-.24.12.01.24,0,.37,0Z"/><path class="cls-1" d="M30.25.68c-.13-.04-.26-.03-.4-.02-.14,0-.21-.05-.2-.19,0-.13,0-.27,0-.4,0,0,.02-.02.03-.02.53-.1.57-.07.57.44,0,.07,0,.13,0,.2Z"/><path class="cls-1" d="M92.97,62.19c.02-.69-.13-.59.62-.6.02,0,.04,0,.06.01-.05.14-.03.28-.03.42,0,.11-.05.16-.16.16-.16,0-.33,0-.49,0Z"/><path class="cls-1" d="M76.71,68.84c0-.14,0-.28-.01-.43,0-.14.05-.2.19-.2.14,0,.28-.01.43-.02.02.19.08.4-.02.55-.11.17-.35.04-.53.08-.02,0-.04,0-.07,0Z"/><path class="cls-1" d="M77.88,79.11c.04-.21-.02-.42.05-.62.13.05.26.03.4.03.16,0,.21.07.21.22.01.37.01.37-.35.37-.1,0-.2,0-.3,0Z"/><path class="cls-1" d="M96.58,79.1c0-.14.02-.29.02-.43,0-.11.05-.16.16-.16.17,0,.33,0,.5,0-.05.19.08.44-.08.56-.16.12-.4.04-.6.03Z"/><path class="cls-1" d="M55.6.05c0,.15-.01.31-.02.46,0,.11-.05.16-.16.16-.14,0-.28,0-.43.02,0-.15,0-.31-.01-.46,0-.14.06-.21.19-.21.14,0,.29-.02.42.03Z"/><path class="cls-1" d="M65.87,19.38s-.03-.04-.03-.05c-.08-.56-.06-.57.58-.58.11.62.08.66-.55.63Z"/><path class="cls-1" d="M131.05,71.2c.17.05.39-.07.51.07.14.16.05.4.05.61-.66.02-.68,0-.56-.68Z"/><path class="cls-1" d="M7.97,59.17s-.07.02-.1.02c-.67,0-.59.05-.6-.58.16,0,.32-.01.49-.02.13,0,.2.05.2.19,0,.13,0,.26,0,.39Z"/><path class="cls-1" d="M10.34,77.3s-.02-.02-.02-.03q-.06-.55.48-.57s.09,0,.13-.01c.05.75.03.61-.6.61Z"/><path class="cls-1" d="M26.65,67.62c-.15,0-.31,0-.46.01-.14,0-.2-.06-.19-.2.01-.14-.05-.29.05-.42.07,0,.13,0,.2,0,.39,0,.39,0,.4.38,0,.08,0,.15,0,.23Z"/><path class="cls-1" d="M132.84,67.03c-.15,0-.31,0-.46-.01-.09,0-.16-.03-.16-.13,0-.16-.06-.33.05-.48.63-.05.63-.04.57.62Z"/><path class="cls-1" d="M3.08,59.21c-.02.19.1.43-.07.55-.14.1-.36.02-.54.04,0-.04,0-.09,0-.13q.01-.49.5-.47s.07,0,.1.01Z"/><path class="cls-1" d="M132.21,65.24s-.02,0-.03,0q-.56-.03-.52-.62c.06,0,.11,0,.17,0q.44,0,.42.44c0,.07-.02.13-.04.2Z"/><path class="cls-1" d="M131.6,63.44q-.59-.03-.55-.62c.12,0,.25,0,.37,0,.18-.02.24.08.22.24-.01.13.02.27-.04.39Z"/><path class="cls-1" d="M48.33,1.29c-.05,0-.11,0-.16,0-.42,0-.41.05-.41-.44,0-.06.01-.13.02-.19.65-.03.58-.08.57.58,0,.02-.01.04-.02.06Z"/><path class="cls-1" d="M150.96,59.8q0,.6-.6.6c.01-.18-.07-.41.04-.54.13-.15.37-.04.56-.06Z"/><path class="cls-1" d="M151.58,59.21c.01.68.09.59-.62.58,0-.11.01-.22.02-.33,0-.25,0-.25.27-.25.11,0,.22,0,.33,0Z"/><path class="cls-1" d="M156.97,79.1c0-.13.01-.26,0-.39,0-.14.05-.2.19-.2.14,0,.28,0,.42.01,0,.13,0,.26,0,.39,0,.14-.05.2-.19.2-.14,0-.28,0-.43-.01Z"/><path class="cls-1" d="M151.56,78.52c.14,0,.28,0,.42-.01.14,0,.19.06.19.2,0,.13,0,.26,0,.39-.15,0-.31,0-.46.01-.11,0-.16-.05-.16-.16,0-.14,0-.29,0-.43Z"/><path class="cls-1" d="M159.98,62.21c-.14,0-.29,0-.43,0-.11,0-.16-.05-.16-.16,0-.15,0-.31.01-.46.14,0,.28,0,.42,0,.11,0,.16.05.16.16,0,.15,0,.3-.01.46Z"/><path class="cls-1" d="M158.18,59.8c-.15,0-.31,0-.46,0-.11,0-.16-.06-.16-.16,0-.14,0-.28,0-.43.19,0,.43-.09.56.05.12.13.02.36.05.54Z"/><path class="cls-1" d="M155.17,61.61c.77-.04.61-.06.62.58-.19-.01-.41.07-.55-.04-.14-.12-.02-.36-.08-.54Z"/><path class="cls-1" d="M99.62,62.23q-.6,0-.56-.63c.14,0,.29,0,.43,0,.11,0,.16.06.16.16,0,.15.02.31-.03.46Z"/><path class="cls-1" d="M94.78,61.61s.04-.01.06-.01c.61.02.59-.13.56.58-.01,0-.02,0-.03,0q-.54.05-.57-.48s-.01-.06-.02-.1Z"/><path class="cls-1" d="M11.5,62.24c-.64,0-.56.09-.56-.57,0-.02,0-.04.01-.06.14,0,.29.01.43.01.11,0,.16.05.16.16,0,.15.02.31-.03.46Z"/><path class="cls-1" d="M91.17,78.52c.19,0,.41-.07.55.04.15.12.03.36.07.54-.14,0-.29.01-.43.02-.14,0-.2-.06-.19-.2,0-.13,0-.26,0-.4Z"/><path class="cls-1" d="M4.87,62.19s0-.02,0-.03q0-.6.62-.55s-.01.09-.02.13q-.02.44-.47.45s-.09,0-.13,0Z"/><path class="cls-1" d="M75.5,59.78c-.15,0-.31,0-.46.01-.11,0-.16-.05-.16-.16,0-.14,0-.28,0-.43.15,0,.31,0,.46-.01.11,0,.16.05.16.16,0,.14,0,.28,0,.43Z"/><path class="cls-1" d="M2.47,59.8c-.02.19.1.43-.06.56-.13.11-.36.02-.54.04,0-.08,0-.15,0-.23,0-.41-.03-.38.4-.38.07,0,.13,0,.2,0Z"/><path class="cls-1" d="M159.38,61.01q-.61,0-.59-.61s.02,0,.03,0q.57.02.56.61Z"/><path class="cls-1" d="M11.53,73.65c-.13,0-.26,0-.39,0-.14,0-.2-.06-.2-.2,0-.12,0-.24-.01-.36.75-.12.65-.05.6.56Z"/><path class="cls-1" d="M150.36,60.4c0,.15,0,.31,0,.46,0,.11-.05.16-.16.16-.14,0-.29,0-.43,0,.01-.19-.09-.43.05-.56.12-.12.35-.02.53-.06Z"/><path class="cls-1" d="M99.04,61.02s-.02,0-.03,0q-.58-.01-.55-.61.6,0,.58.61Z"/><path class="cls-1" d="M56.17,79.1c.02-.2-.02-.41.03-.61.08,0,.16,0,.23.01.11.01.25-.05.31.06.07.14.04.3.02.46-.01.08-.09.08-.16.08-.14,0-.29,0-.43,0Z"/><path class="cls-1" d="M89.98,60.4c0,.19.09.42-.05.56-.13.12-.35.02-.53.06,0-.15,0-.31,0-.46,0-.11.06-.16.16-.16.14,0,.29,0,.43,0Z"/><path class="cls-1" d="M132.26,74.3c.64,0,.63-.15.57.62-.01,0-.02,0-.03,0q-.59-.01-.54-.62Z"/><path class="cls-1" d="M77.3,75.53s-.02,0-.03,0q-.57-.03-.52-.62c.07,0,.13,0,.2,0q.4,0,.39.41c0,.08,0,.16-.04.23Z"/><path class="cls-1" d="M1.87,60.4c-.01.19.09.43-.05.56-.13.12-.36.02-.54.05,0-.72-.11-.61.59-.61Z"/><path class="cls-1" d="M8.53,79.08q-.02-.57.52-.58s.06,0,.1,0c0,.04-.01.09-.01.13q-.02.5-.51.46s-.06-.01-.1-.02Z"/><path class="cls-1" d="M7.88,75.5q.04.59-.61.59c0-.11.02-.22.02-.33.01-.27,0-.27.29-.27.1,0,.2,0,.3,0Z"/><path class="cls-1" d="M10.96,76.11s0-.02,0-.03q-.02-.58.57-.6.08.63-.56.63Z"/><path class="cls-1" d="M158.79,60.39q-.62.01-.61-.59c.19.01.43-.09.56.05.12.13.03.36.04.54Z"/><path class="cls-1" d="M153.37,76.1c-.09,0-.18,0-.26,0q-.35,0-.35-.37c0-.08,0-.15.01-.23.19.02.43-.09.55.06.11.13.02.36.05.54Z"/><path class="cls-1" d="M156.37,75.5c.02.72.09.6-.6.6,0-.14.01-.29.01-.43,0-.11.05-.16.16-.16.14,0,.29,0,.43,0Z"/><path class="cls-1" d="M3.06,78.52c.19,0,.41-.07.55.04.15.12.03.36.07.54-.14.04-.29.01-.43.02-.14,0-.2-.06-.19-.2,0-.13,0-.26,0-.4Z"/><path class="cls-1" d="M90.58,59.8c-.02.19.1.43-.06.56-.13.11-.36.02-.54.04,0-.08,0-.15,0-.23,0-.41-.03-.38.4-.38.07,0,.13,0,.2,0Z"/><path class="cls-1" d="M132.87,76.1c.13,0,.26,0,.4,0,.14,0,.2.06.19.2,0,.14-.01.28-.02.43-.13,0-.26,0-.39,0-.14,0-.2-.06-.19-.2,0-.14.01-.28.02-.42Z"/><path class="cls-1" d="M159.4,76.71s-.01-.04-.01-.07c.01-.62-.12-.59.58-.56,0,.13,0,.26.02.39.02.17-.07.23-.23.22-.12,0-.24.01-.36.02Z"/><path class="cls-1" d="M91.19,59.21c-.02.19.1.43-.07.55-.14.1-.36.02-.54.04,0-.04,0-.09,0-.13q.01-.49.5-.47s.07,0,.1.01Z"/><path class="cls-1" d="M77.9,77.33s-.02,0-.03,0q-.57-.03-.52-.62c.07,0,.13,0,.2,0q.4,0,.39.41c0,.08,0,.16-.04.23Z"/><path class="cls-1" d="M98.47,77.31c.02-.18-.07-.41.05-.54.12-.14.36-.02.53-.08,0,.14,0,.29.01.43,0,.14-.06.2-.2.19-.13,0-.26,0-.4,0Z"/><path class="cls-1" d="M133.47,77.9c.1,0,.2,0,.3,0,.28,0,.28,0,.29.3,0,.11-.01.22-.02.33-.14,0-.28,0-.42-.01-.11,0-.16-.05-.16-.16,0-.15,0-.3.01-.46Z"/><path class="cls-1" d="M9.15,78.5c0-.14.01-.29.01-.43,0-.11.05-.16.16-.16.14,0,.28,0,.43-.02,0,.01,0,.02,0,.03,0,.59.11.61-.61.57Z"/><path class="cls-1" d="M76.09,71.89c-.56.02-.66.13-.57-.62.13,0,.26,0,.39,0,.14,0,.2.07.19.2,0,.14,0,.28-.01.42Z"/><path class="cls-1" d="M76.11,69.44c0-.13,0-.26-.01-.39,0-.17.08-.24.24-.22.12,0,.24.01.36.01-.01.18.08.41-.05.54-.13.14-.36.03-.54.06Z"/><path class="cls-1" d="M133.44,68.84s-.02,0-.03,0c-.17-.05-.4.08-.51-.07-.1-.15-.04-.36-.03-.55.09,0,.17,0,.26,0,.31,0,.32.01.32.34,0,.1-.01.2-.02.29Z"/><path class="cls-1" d="M77.35,67.61s-.01-.04-.02-.06c0-.59-.08-.57.55-.54,0,.02.01.04.01.07-.02.58.11.56-.55.53Z"/><path class="cls-1" d="M139.46,4.87c.05.2-.02.41.05.6,0,.11-.01.22-.01.33,0,.26,0,.26.25.26.11,0,.22,0,.33,0,.05.2-.02.41.04.6,0,.11-.02.22-.02.33,0,.26,0,.26.25.27.11,0,.22,0,.33,0,0,.01.01.02.02.03-.05.71-.06.59.54.59.01,0,.02,0,.03,0,.06.2,0,.41.04.61,0,.01,0,.02,0,.03-.02.66-.08.59.57.57.01.2.03.4.04.6-.03.71-.08.6.57.59.07.2,0,.41.05.6-.03.73-.08.59.56.59.04.14.03.29.02.43,0,.14.05.19.19.2.39.02.39.03.39.41,0,.07.01.13.02.2,0,.14,0,.29-.02.43,0,.14.06.21.19.21.13,0,.27,0,.4,0,0,.19.02.38.03.56,0,.07-.01.13-.02.2,0,.41,0,.41.41.44.15.01.2.07.19.21,0,.06,0,.11,0,.17,0,.12.05.17.18.18.41.04.44.02.47-.39,0-.15.05-.22.21-.23.39-.02.39-.03.38-.43,0-.05-.01-.11-.02-.16.05-.2-.03-.41.05-.6.61.02.61.13.55-.6.05-.2-.03-.41.06-.6.64.03.59.1.56-.57,0-.01,0-.02,0-.03.05-.19-.01-.39.04-.58q.62.01.53-.57c.1-.2,0-.43.07-.63.56,0,.62.15.54-.57.09-.14.05-.3.05-.45,0-.13.03-.19.18-.2.39-.02.39-.02.4-.41,0-.06.01-.13.02-.19q.64-.02.58-.61c.01-.2.03-.41.04-.61.63,0,.61.15.56-.59.06-.2-.01-.4.05-.6.65.03.61.1.56-.59.01-.2.03-.4.04-.61.72.04.56.04.58-.55,0-.03,0-.06-.01-.1,0-.14.01-.29.01-.43,0-.11.04-.16.15-.16.14,0,.31.07.4-.07.07-.11.02-.26.03-.39,0-.04.01-.09.02-.13.63,0,.62.15.56-.59.06-.2,0-.41.04-.61q.63.01.56-.58s.02-.03.03-.05c.6.07.6.07.58-.52,0-.01,0-.02,0-.03.08,0,.15-.02.23-.02,1.88,0,3.77,0,5.65,0,.06,0,.11,0,.17.01,0,.14.01.28.02.43,0,.11.05.16.16.16.14,0,.29-.02.42.02,0,.13,0,.27,0,.4,0,17.01,0,34.02,0,51.03,0,.14-.01.29-.02.43-.11,0-.22,0-.33,0-1.97,0-3.95,0-5.92,0-.31,0-.62-.04-.93,0,0-.32-.02-.64-.02-.97,0-12.02,0-24.04,0-36.05,0-.26-.01-.51,0-.77,0-.17-.04-.26-.22-.23-.05,0-.11,0-.17,0-.19-.03-.23.07-.22.23,0,.12,0,.24-.01.37q-.62.02-.56.59c-.07.2,0,.41-.04.61q-.61.02-.56.59c-.08.21.02.44-.07.66q-.61-.04-.54.54c-.05.14-.03.29-.03.43,0,.16-.05.21-.21.22-.36.01-.36.02-.37.38,0,.21-.03.42-.03.63,0,.14-.04.21-.19.21-.06,0-.11,0-.17,0-.18-.02-.22.06-.22.23,0,.25-.03.51-.02.76,0,.17-.07.2-.22.21-.36.02-.36.02-.37.38,0,.08,0,.16-.04.23-.04,0-.09,0-.13,0q-.5.01-.46.51s.02.06.03.09c-.06.19.01.4-.06.59q-.63,0-.56.61c-.04.19.02.4-.04.59q-.63.01-.56.61c-.04.2.04.41-.05.6-.64-.03-.59-.1-.56.57,0,.01,0,.02,0,.03-.01.19-.03.39-.04.58q-.61,0-.53.58c-.13.19-.01.41-.08.61-.57,0-.59-.14-.54.57-.1.08-.21.05-.32.05-.24,0-.48-.02-.73-.01-.15,0-.19-.06-.19-.2,0-.14.03-.29-.03-.43.04-.13.01-.26.02-.39,0-.13-.04-.21-.19-.2-.13,0-.26,0-.39,0-.05-.2.02-.41-.05-.62.04-.09.02-.19.02-.29,0-.29,0-.29-.28-.3-.1,0-.2,0-.29,0-.05-.21.02-.42-.04-.62.04-.15.01-.31.02-.46,0-.11-.05-.16-.16-.16-.14,0-.29,0-.43-.01-.03-.19.02-.38-.03-.56.04-.14,0-.28.02-.42.01-.14-.06-.19-.2-.19-.13,0-.26-.01-.39-.02-.03-.18.03-.37-.04-.56q.02-.57-.53-.59s-.02,0-.03,0c-.01-.2-.03-.41-.04-.61,0-.07,0-.13,0-.2,0-.49.05-.44-.42-.44-.06,0-.11,0-.17,0,0-.19-.02-.37-.03-.56,0-.2.08-.44-.03-.58-.11-.14-.36-.03-.54-.07,0-.14-.02-.29-.01-.43,0-.11-.05-.15-.16-.16-.14-.01-.32.07-.4-.07-.06-.1-.02-.26-.03-.39,0-.04-.01-.09-.02-.13,0-.14,0-.29.01-.43,0-.14-.05-.21-.19-.2-.13,0-.26,0-.4,0-.01-.19-.02-.38-.03-.56,0-.02.01-.04.01-.06-.02-.67.11-.58-.58-.58-.04-.2.02-.41-.04-.61,0-.1.02-.2.02-.3,0-.3,0-.3-.28-.3-.1,0-.2,0-.3,0-.05-.2.02-.41-.04-.61,0-.13.01-.27.02-.4,0-.14-.06-.2-.2-.19-.27,0-.53.01-.8,0-.17,0-.2.08-.2.23,0,.29,0,.58,0,.87,0,11.93,0,23.87,0,35.8,0,.27,0,.53,0,.8,0,.32,0,.32-.31.32-1.94,0-3.87,0-5.81,0-.56,0-.5.08-.5-.5,0-17,0-34,0-50.99,0-.14.02-.29-.02-.43,0-.12.01-.24,0-.37,0-.15.06-.19.2-.19.24,0,.49,0,.73,0,1.77,0,3.53,0,5.3,0,.13,0,.27-.02.4.03q0,.59.6.58c.01.18.02.37.03.55,0,.15,0,.31,0,.46,0,.13.05.18.18.18.07,0,.13,0,.2,0,.14,0,.19.05.2.19.03.44.04.44.49.44.03,0,.07,0,.1,0,.01.19.02.38.03.56,0,.08-.01.15-.01.23,0,.37,0,.38.36.4.14,0,.2.06.2.2,0,.16.01.31.04.46.04.17-.08.39.07.5.13.1.34.03.52.04Z"/><path class="cls-1" d="M119.59,44.7c-.01.22-.03.44-.04.67-.13,0-.27,0-.4,0-.1,0-.17.04-.17.15.01.32-.08.64,0,.96-.05.14-.03.29-.03.43,0,.14-.04.19-.19.2-.4.02-.4.02-.4.41,0,.07-.01.13-.02.2q-.63,0-.56.58c-.07.15-.03.31-.04.46,0,.11-.04.15-.16.16-.14,0-.31-.07-.41.05-.08.1-.03.26-.03.39,0,.11-.04.16-.15.16-.14,0-.31-.06-.41.05-.09.09-.03.25-.03.39,0,.13-.06.17-.18.17-.13,0-.29-.06-.38.04-.1.1-.04.25-.04.38,0,.13-.05.17-.18.18-.15,0-.31-.03-.46.04-.12-.05-.24-.02-.36-.03-.16-.01-.25.05-.24.23,0,.12,0,.24,0,.36-.07,0-.13.02-.2.02-.4,0-.41-.08-.4.38,0,.05,0,.11-.02.17-.39.06-.8,0-1.18.1-.54-.15-.63-.09-.6.44,0,.03,0,.06.01.1-.2.08-.42,0-.63.06-.35-.13-.71-.02-1.07-.03-.09,0-.13.07-.13.16,0,.14-.01.28-.02.43-.4,0-.8.01-1.2.02-.09-.05-.2-.03-.29-.03-1.21,0-2.42,0-3.64,0-.1,0-.2-.02-.29.04-.6-.01-1.19-.02-1.79-.04,0-.13,0-.27,0-.4,0-.09-.05-.15-.14-.14-.34.02-.68-.09-1.02,0-.21-.08-.43,0-.64-.05q-.02-.64-.61-.59c-.2-.01-.41-.03-.61-.04,0-.62.15-.61-.59-.56-.04,0-.09-.02-.13-.02-.14,0-.31.04-.42-.03-.12-.08-.05-.26-.05-.4,0-.13-.07-.16-.19-.17-.14,0-.29.03-.42-.02.01-.65.11-.6-.58-.57,0,0-.02-.01-.03-.02,0-.08.01-.15.01-.23,0-.33.04-.36-.33-.36-.26,0-.26,0-.27-.28q0-.31-.31-.32s-.07,0-.1,0c-.15.01-.19-.06-.19-.2-.02-.43-.03-.43-.47-.42-.03,0-.07.01-.1.02-.08-.17-.02-.36-.05-.54,0-.15,0-.31,0-.46,0-.14-.05-.21-.19-.2-.13,0-.27,0-.4,0-.07-.19,0-.39-.05-.58.08-.76.05-.59-.51-.59-.01,0-.02,0-.03,0-.08-.2-.01-.41-.05-.62.06-.12.04-.26.03-.38,0-.23,0-.23-.25-.23-.11,0-.22,0-.32.01-.06-.4-.03-.8-.06-1.2.08-.28.02-.55-.01-.82-.04-.4-.03-.4-.44-.39-.03,0-.07,0-.1.01-.05-.67-.03-1.34-.05-2.01,0-.13,0-.26,0-.4.06-.12.03-.24.03-.36,0-12.84,0-25.67,0-38.51,0-.12.02-.25-.03-.36,0-.06.01-.11.02-.17.01-.44.01-.45.47-.45,1.95,0,3.91,0,5.86,0,.1,0,.2-.01.3.03,0,.34,0,.69,0,1.03,0,12.94,0,25.89,0,38.83,0,.63-.11.56.57.56.01.61.03,1.21.04,1.82-.05.21-.03.42,0,.63.03.17-.08.39.06.51.13.11.34.02.52.05,0,.14.02.29.02.43,0,.12.03.18.16.19.14,0,.32-.07.4.06.06.1.02.26.03.39,0,.05.02.11.03.16-.04.69-.08.59.57.58,0,.01.02.02.03.03-.03.67-.1.6.57.57,0,0,.02.02.03.02,0,.64-.13.61.59.57.2.06.4,0,.6.04,0,.61-.15.61.6.56,1,.05,2,.04,3,.03.4,0,.8-.02,1.2-.03q.59.03.6-.56c.15-.04.31-.02.46-.02.11,0,.15-.05.16-.16,0-.14-.07-.32.06-.4.1-.06.26-.02.39-.02.07,0,.13,0,.19-.05.67.03.6.11.57-.58,0-.03.02-.06.02-.1,0-.14-.03-.31.04-.42.08-.13.26-.05.4-.06.12,0,.15-.06.16-.17,0-.15-.03-.31.04-.46.61.02.62.13.55-.59.01-.2.02-.4.03-.6.16-.04.36.05.49-.05.14-.11.03-.32.07-.47,0-.03.02-.06.03-.1.03-.2.05-.4-.02-.59,0-.55.03-1.09.03-1.64,0-12.98,0-25.96,0-38.95,0-.14,0-.29,0-.43.13,0,.26-.02.39-.02.14,0,.2-.07.2-.2,0-.13.01-.26.02-.39,2.01,0,4.01,0,6.02,0,0,.07.01.13.01.2,0,.42-.05.4.38.4.07,0,.13,0,.2.01,0,.13,0,.27,0,.4,0,12.81,0,25.62,0,38.43,0,.71-.01,1.42-.02,2.14q-.6-.02-.57.58s.01.06.02.1c-.01.6-.03,1.2-.04,1.8-.61,0-.6-.15-.56.6Z"/><path class="cls-1" d="M77.94,52.58s-.07,0-.1,0q-.51-.02-.52-.55c0-.23,0-.47,0-.7,0-16.74,0-33.48,0-50.23,0-.28.02-.56.02-.83,0-.17.07-.21.22-.2.28,0,.56-.01.83-.01,1.75,0,3.49,0,5.24,0,.11,0,.22-.01.33.03-.03.3.02.6.02.9,0,17.06,0,34.11,0,51.17q0,.39-.41.39c-1.75,0-3.49,0-5.24,0-.13,0-.27-.03-.39.05Z"/><path class="cls-1" d="M129.83.6c.05.14.02.29.02.43,0,17,0,34,0,50.99,0,.58-.06.5.5.5,1.94,0,3.87,0,5.81,0,.3,0,.3,0,.31-.32,0-.27,0-.53,0-.8,0-11.93,0-23.87,0-35.8,0-.29,0-.58,0-.87,0-.15.03-.23.2-.23.27,0,.53,0,.8,0,.14,0,.21.05.2.19,0,.13-.01.27-.02.4-.58.01-.58.01-.58.59,0,.57,0,1.14,0,1.7,0,11.35,0,22.71,0,34.06,0,.27,0,.53,0,.8,0,.3,0,.3-.29.31-.03,0-.07,0-.1,0-.15-.01-.23.05-.22.21,0,.06,0,.11,0,.17,0,.13-.05.18-.18.18-.08,0-.16,0-.23,0-1.76,0-3.52,0-5.28,0-.24,0-.49-.02-.73-.01-.16,0-.22-.06-.21-.22,0-.03,0-.07,0-.1-.02-.23-.02-.23-.26-.24-.04,0-.09,0-.13,0-.11,0-.17-.05-.16-.16,0-.08,0-.16,0-.23,0-17.04,0-34.09,0-51.13,0-.04,0-.09,0-.13,0-.25,0-.25.26-.26.1,0,.2-.02.3-.03Z"/><path class="cls-1" d="M77.94,52.58c.12-.08.26-.05.39-.05,1.75,0,3.49,0,5.24,0q.41,0,.41-.39c0-17.06,0-34.11,0-51.17,0-.3-.05-.6-.02-.9.03,0,.06-.02.1-.02.48-.04.48-.04.5.45,0,.32.02.65.02.97,0,16.84,0,33.69,0,50.53,0,.08,0,.16,0,.23q0,.34-.35.35t-.3.26c-.02.27-.02.28-.32.28-1.42,0-2.85,0-4.27,0-.37,0-.73,0-1.1,0-.28,0-.28,0-.29-.27,0-.09,0-.18,0-.27Z"/><path class="cls-1" d="M100.83,40.5c-.68,0-.57.07-.57-.56,0-12.94,0-25.89,0-38.83,0-.34,0-.69,0-1.03.02,0,.04-.02.06-.02q.51-.05.52.45c0,.31.01.62.01.93,0,12.86,0,25.73,0,38.59,0,.15.02.31-.02.47Z"/><path class="cls-1" d="M93.61.66c.06.12.03.24.03.36,0,12.84,0,25.67,0,38.51,0,.12.02.25-.03.36-.09,0-.18-.01-.27-.02q-.28-.01-.29-.31c0-.07,0-.13,0-.2V1.18q0-.49.49-.51s.04,0,.07,0Z"/><path class="cls-1" d="M153.39,52.53c.31-.03.62,0,.93,0,1.97,0,3.95,0,5.92,0,.11,0,.22,0,.33,0-.03.19.08.44-.06.57-.13.12-.36.04-.55.04-2.11,0-4.22,0-6.33,0-.23,0-.23,0-.24-.25,0-.12,0-.24,0-.37Z"/><path class="cls-1" d="M105.07,53.16c.09-.05.2-.04.29-.04,1.21,0,2.42,0,3.64,0,.1,0,.2-.02.29.03,0,.03-.01.07-.01.1q-.02.44-.45.45c-1.15.02-2.29.02-3.44,0-.3,0-.32.02-.31-.31,0-.08,0-.16-.01-.23Z"/><path class="cls-1" d="M146.11,13.89c0,.05.02.11.02.16,0,.4,0,.41-.38.43-.16,0-.2.08-.21.23-.02.41-.06.43-.47.39-.13-.01-.18-.06-.18-.18,0-.06,0-.11,0-.17,0-.13-.04-.2-.19-.21-.42-.03-.42-.04-.41-.44,0-.07,0-.13.02-.2.03,0,.07,0,.1,0,.14.02.31-.05.42.03.12.09.04.27.06.41,0,.11.06.16.17.16.07,0,.13,0,.2,0q.25,0,.26-.26s0-.07,0-.1q0-.25.27-.25c.11,0,.22,0,.33,0Z"/><path class="cls-1" d="M96.08,48.31s.07-.01.1-.02c.45-.01.45-.01.47.42,0,.14.04.21.19.2.03,0,.07,0,.1,0q.3,0,.31.32c0,.28,0,.29.27.28.37,0,.33.02.33.36,0,.08,0,.15-.01.23-.14,0-.29,0-.43,0-.15,0-.2-.06-.19-.2,0-.02,0-.04,0-.07.02-.36-.06-.36-.35-.35-.23,0-.23,0-.24-.24,0-.06,0-.11,0-.17,0-.15-.07-.21-.22-.22-.31-.02-.31-.03-.31-.33,0-.08,0-.15-.01-.23Z"/><path class="cls-1" d="M139.46,4.87c-.18,0-.39.07-.52-.04-.14-.11-.03-.34-.07-.5-.03-.15-.05-.31-.04-.46,0-.14-.06-.19-.2-.2-.36-.03-.36-.03-.36-.4,0-.08,0-.15.01-.23.18.01.38-.06.52.04.14.1.03.31.06.47.03.15.04.31.04.46,0,.17.06.25.24.24.03,0,.07,0,.1,0,.16-.02.25.04.23.22-.01.13,0,.27-.01.4Z"/><path class="cls-1" d="M138.25,2.47s-.07,0-.1,0c-.45,0-.46,0-.49-.44-.01-.14-.06-.2-.2-.19-.07,0-.13,0-.2,0-.12,0-.18-.05-.18-.18,0-.15,0-.31,0-.46.03,0,.07,0,.1,0,.44,0,.45,0,.48.45,0,.14.06.2.2.2.05,0,.11,0,.16,0,.18-.02.23.06.22.23-.01.13,0,.26,0,.4Z"/><path class="cls-1" d="M110.49,53.14c0-.14.01-.28.02-.43,0-.09.04-.16.13-.16.36.02.72-.1,1.07.03-.02.16.06.36-.05.48-.1.12-.3.03-.45.06-.24.05-.48.06-.72.01Z"/><path class="cls-1" d="M113.51,41.68c.07.19.04.39.02.59,0,.03-.02.06-.03.1-.04.16.07.36-.07.47-.13.1-.32.01-.49.05-.1-.36.04-.71.02-1.07,0-.1.07-.13.15-.13.13,0,.26,0,.39,0Z"/><path class="cls-1" d="M101.44,43.49c-.17-.03-.39.06-.52-.05-.14-.12-.03-.34-.06-.51-.03-.21-.04-.42,0-.63.17,0,.38-.07.51.03.13.1.04.31.06.47.02.23.03.46,0,.69Z"/><path class="cls-1" d="M102.11,52.58c.34-.09.68.02,1.02,0,.09,0,.14.05.14.14,0,.13,0,.27,0,.4-.34.09-.68,0-1.02.01-.1,0-.17-.05-.16-.16,0-.13.01-.26.02-.4Z"/><path class="cls-1" d="M93.66,42.31s.07-.01.1-.01c.4-.01.39-.01.44.39.03.27.09.55.01.82-.12,0-.24,0-.37,0-.12,0-.2-.03-.19-.17.02-.34-.06-.68,0-1.02Z"/><path class="cls-1" d="M118.97,46.47c-.07-.32.02-.64,0-.96,0-.11.07-.15.17-.15.13,0,.27,0,.4,0,.07.33-.02.65,0,.98,0,.1-.05.13-.14.13-.14,0-.28,0-.43,0Z"/><path class="cls-1" d="M95.45,47.1c.13,0,.27,0,.4,0,.15,0,.2.06.19.2,0,.15,0,.31,0,.46-.11-.04-.22-.03-.33-.04-.28,0-.29,0-.28-.31,0-.11-.03-.22.03-.32Z"/><path class="cls-1" d="M160.58.67c-.14-.04-.28-.02-.42-.02-.11,0-.16-.05-.16-.16,0-.14,0-.28-.02-.43,0,0,.02-.02.03-.02.65-.03.64-.12.57.63Z"/><path class="cls-1" d="M114.15.05c0,.13-.02.26-.02.39,0,.13-.06.2-.2.2-.13,0-.26.01-.39.02,0,0-.02-.02-.02-.03-.03-.68-.12-.65.63-.59Z"/><path class="cls-1" d="M149.73,7.28q.05.58-.58.61s-.01-.02-.02-.03q-.06-.59.6-.58Z"/><path class="cls-1" d="M138.3,16.91c.69,0,.57-.09.58.58,0,.02,0,.04-.01.06-.18-.02-.43.08-.54-.06-.11-.15-.04-.38-.03-.58Z"/><path class="cls-1" d="M138.89,18.12c.13,0,.27,0,.4,0,.14,0,.2.07.19.2,0,.14,0,.29-.01.43-.11,0-.22,0-.33,0-.24,0-.24,0-.25-.26,0-.12,0-.24,0-.36Z"/><path class="cls-1" d="M140.69,21.14c.06,0,.11,0,.17,0,.47,0,.41-.05.42.44,0,.07,0,.13,0,.2-.74.04-.56.05-.58-.55,0-.03,0-.07.01-.1Z"/><path class="cls-1" d="M137.06.66q-.6,0-.6-.58s.02-.01.03-.01c.56-.08.56-.08.57.47,0,.04,0,.09,0,.13Z"/><path class="cls-1" d="M151.55,3.63s.01.06.01.1c-.02.59.14.59-.58.55,0-.2-.08-.43.04-.57.11-.14.35-.02.53-.07Z"/><path class="cls-1" d="M141.9,23.53c.13,0,.26.02.39.02.13,0,.21.05.2.19-.01.14.02.28-.02.42q-.57.03-.58-.54s0-.07,0-.1Z"/><path class="cls-1" d="M142.51,24.73c.14,0,.29,0,.43.01.11,0,.16.05.16.16,0,.15.02.31-.02.46q-.57.03-.58-.54s0-.07,0-.1Z"/><path class="cls-1" d="M120.76.66c-.07,0-.13-.01-.2-.01-.43,0-.37.02-.38-.4,0-.07,0-.13-.01-.2.6-.09.62-.08.6.51,0,.03,0,.06-.01.1Z"/><path class="cls-1" d="M100.86,51.95q.59-.06.61.59-.62.08-.61-.59Z"/><path class="cls-1" d="M148.56,22.39s-.03-.06-.03-.09q-.03-.5.46-.51s.09,0,.13,0q.07.61-.56.61Z"/><path class="cls-1" d="M140.09,19.93c.18.03.43-.08.54.07.11.15.04.38.03.58-.7.02-.57.03-.58-.58,0-.02,0-.04.01-.07Z"/><path class="cls-1" d="M147.93,23.6q-.07-.61.56-.61s.03.06.03.09q.04.5-.47.51s-.09,0-.13.01Z"/><path class="cls-1" d="M147.33,24.8q-.07-.6.56-.61s.03.06.03.09q.04.5-.46.51s-.09,0-.13.01Z"/><path class="cls-1" d="M120.19,42.3s-.02-.06-.02-.1q-.03-.6.57-.58s.02.07.02.1c-.01.66.11.58-.57.58Z"/><path class="cls-1" d="M144.28,13.34c-.13,0-.27,0-.4,0-.14,0-.2-.07-.19-.21,0-.14.01-.29.02-.43.18.05.44-.1.55.09.08.14.02.36.03.55Z"/><path class="cls-1" d="M152.73,1.86c.06.74.06.59-.56.59,0-.01,0-.02,0-.03.01-.64-.11-.57.57-.56Z"/><path class="cls-1" d="M119.59,44.7c-.05-.75-.05-.59.56-.6.05.77.05.59-.56.6Z"/><path class="cls-1" d="M112.91,43.49c.07.73.06.61-.55.59q-.06-.57.55-.59Z"/><path class="cls-1" d="M94.26,44.71c.11,0,.22-.02.32-.01.24,0,.24,0,.25.23,0,.13.02.26-.03.38-.12,0-.25,0-.37,0-.15,0-.2-.06-.19-.2,0-.13-.02-.27.02-.4Z"/><path class="cls-1" d="M97.87,50.13c.69-.03.59-.08.58.57q-.58.01-.58-.57Z"/><path class="cls-1" d="M153.33.67q.08.59-.56.58s-.01-.04-.01-.06q0-.57.57-.51Z"/><path class="cls-1" d="M102.65,45.29c-.65.01-.61.12-.57-.58.14,0,.28,0,.42,0,.11,0,.16.05.15.16,0,.14,0,.28,0,.42Z"/><path class="cls-1" d="M117.78,48.29q-.07-.58.56-.58s0,.02,0,.03c-.01.63.13.57-.57.55Z"/><path class="cls-1" d="M103.25,45.89c-.67.03-.6.09-.57-.57q.59-.01.57.57Z"/><path class="cls-1" d="M142.47,10.28c-.65,0-.6.12-.57-.59.13,0,.26,0,.39,0,.15,0,.2.06.19.2,0,.13-.01.26-.02.39Z"/><path class="cls-1" d="M150.94,4.89c.04.7.08.62-.56.59,0-.18-.08-.41.03-.53.12-.13.35-.03.53-.06Z"/><path class="cls-1" d="M143.72,27.19c.13,0,.26,0,.39,0,.14,0,.2.06.19.2,0,.13.02.26-.02.39-.65,0-.58.13-.56-.58Z"/><path class="cls-1" d="M111.71,45.29c.03.69.1.61-.57.58q-.05-.58.57-.58Z"/><path class="cls-1" d="M140.06,6.07c-.11,0-.22,0-.33,0-.24,0-.24,0-.25-.26,0-.11,0-.22.01-.33.68-.02.57-.09.57.56,0,.01,0,.02,0,.03Z"/><path class="cls-1" d="M143.12,25.99c.1,0,.2,0,.29,0,.28,0,.28,0,.28.3,0,.1.02.2-.02.29-.66.01-.57.1-.56-.55,0-.01,0-.02,0-.03Z"/><path class="cls-1" d="M146.73,26s0-.02,0-.03c-.03-.67-.08-.6.56-.57q.06.57-.55.6Z"/><path class="cls-1" d="M140.67,7.27c-.11,0-.22,0-.33,0-.24,0-.25,0-.25-.27,0-.11,0-.22.02-.33.71-.04.55-.05.57.53,0,.02,0,.04-.01.07Z"/><path class="cls-1" d="M94.85,45.93s.02,0,.03,0c.56,0,.59-.17.51.59-.01,0-.02,0-.03,0q-.58,0-.51-.59Z"/><path class="cls-1" d="M141.26,7.88s-.02,0-.03,0c-.6,0-.59.12-.54-.59.14,0,.28,0,.42,0,.11,0,.16.05.15.16,0,.14,0,.28,0,.42Z"/><path class="cls-1" d="M150.34,6.08c.04.74.06.59-.56.59-.03-.73-.08-.58.56-.59Z"/><path class="cls-1" d="M141.3,22.39s.02,0,.03,0q.55.02.53.59c-.63.02-.6.12-.56-.59Z"/><path class="cls-1" d="M103.87,46.49c-.72.04-.59.07-.59-.57.7-.01.59-.09.59.57Z"/><path class="cls-1" d="M105.08,47.09c-.76.05-.59.05-.6-.56.76-.04.59-.06.6.56Z"/><path class="cls-1" d="M147.32,11.49s0,.02,0,.03c.03.67.07.59-.56.57,0-.12,0-.24-.02-.36-.02-.18.07-.23.24-.22.11,0,.22,0,.33-.01Z"/><path class="cls-1" d="M151.58,16.9q-.06-.57.56-.59s.01.04.01.07c-.02.59.13.56-.57.53Z"/><path class="cls-1" d="M99.66,51.34c.74-.05.59-.06.59.56q-.59.03-.59-.56Z"/><path class="cls-1" d="M137.7,15.71c.1,0,.2,0,.3,0,.28,0,.28,0,.28.3,0,.1-.01.2-.02.3q-.59,0-.56-.59Z"/><path class="cls-1" d="M141.86,9.09c-.65.02-.59.1-.57-.57,0-.01,0-.02,0-.03.04,0,.09,0,.13,0,.49.01.44-.09.44.47,0,.04,0,.09-.01.13Z"/><path class="cls-1" d="M152.18,15.7q-.06-.57.56-.59s.01.04.01.07c-.02.59.13.56-.57.53Z"/><path class="cls-1" d="M143.08,11.48c-.64,0-.59.14-.56-.59.62,0,.61-.15.56.59Z"/><path class="cls-1" d="M146.71,12.69c.07.73.06.62-.55.6q-.07-.58.55-.6Z"/><path class="cls-1" d="M109.88,46.52q0,.59-.6.56c-.01-.65-.1-.59.57-.57.01,0,.02,0,.03,0Z"/><path class="cls-1" d="M148.5,9.13c.08.72.02.57-.54.57-.09-.6-.06-.63.54-.57Z"/><path class="cls-1" d="M112.33,52.53s-.01-.06-.01-.1c-.03-.53.06-.59.6-.44q.04.59-.59.54Z"/><path class="cls-1" d="M114.72,51.31c0-.12,0-.24,0-.36,0-.17.08-.24.24-.23.12,0,.24-.02.36.03q.03.57-.53.57s-.04,0-.06,0Z"/><path class="cls-1" d="M147.9,10.34q.09.59-.53.57c-.09-.61-.07-.63.53-.57Z"/><path class="cls-1" d="M146.16,27.17q-.08-.59.53-.58c.1.74.02.61-.53.58Z"/><path class="cls-1" d="M153.94.07s0,.02,0,.03c.02.59.02.59-.58.52,0-.12,0-.24-.01-.36,0-.15.04-.23.2-.22.13.01.26-.02.39.02Z"/><path class="cls-1" d="M145.54,28.36c-.05-.72-.03-.57.54-.57.09.7.04.61-.54.57Z"/><path class="cls-1" d="M150.98,18.1q-.07-.58.54-.54c.08.58.08.58-.54.54Z"/><path class="cls-1" d="M74.3,66.43c-.04-.49,0-.98,0-1.47,0-.52-.04-1.04,0-1.57.07,0,.13.02.2.02.42,0,.37-.02.38.4.02.77.01,1.55,0,2.32,0,.26,0,.26-.28.27-.1,0-.2.01-.3.02Z"/><path class="cls-1" d="M70.67,67.62c.81,0,1.61,0,2.42.01,0,.03-.01.07-.02.1-.03.15.07.34-.06.44-.12.09-.3.03-.45.03-.54,0-1.08.01-1.63,0-.25,0-.25,0-.26-.26,0-.11,0-.22,0-.33Z"/><path class="cls-1" d="M74.27,62.81c-.19-.02-.43.09-.56-.06-.11-.13-.02-.36-.04-.54.01,0,.02,0,.03,0q.58,0,.57.6Z"/><path class="cls-1" d="M50.76,65.82s-.09-.01-.13-.01c-.44-.02-.45-.02-.47.41,0,.14-.06.19-.2.19-.13,0-.26,0-.39,0-.04-.6,0-1.2,0-1.8,0-.13,0-.27,0-.4,0-.12.03-.19.17-.19.28,0,.56,0,.83-.01.12,0,.18.05.18.18,0,.54.05,1.09,0,1.63Z"/><path class="cls-1" d="M48.95,70.61c.05.37,0,.73,0,1.1,0,.44,0,.89,0,1.33-.02.01-.04.03-.06.03-.55.06-.56.05-.56-.49,0-.56.02-1.13.03-1.69,0-.23,0-.23.24-.24.11,0,.22,0,.33-.04Z"/><path class="cls-1" d="M49.53,68.2c.06.55,0,1.1,0,1.64,0,.13-.07.17-.19.17-.13,0-.26.01-.39.02-.09-.36-.03-.72-.03-1.08,0-.17.04-.35.03-.53,0-.15.05-.22.21-.22.12,0,.24,0,.36,0Z"/><path class="cls-1" d="M51.36,68.83c-.18-.04-.41.07-.54-.07-.11-.13-.04-.34-.04-.52-.01-.41-.04-.82,0-1.23.03,0,.07.01.1.01.47.02.48.02.48.51,0,.43.05.86,0,1.3Z"/><path class="cls-1" d="M51.96,71.9c-.11,0-.22,0-.33-.01-.24-.01-.25-.01-.25-.24,0-.33-.06-.66.02-.98q.56,0,.57.54c0,.23.03.46-.01.69Z"/></g></svg>