<?xml version="1.0" encoding="UTF-8"?>
<svg xmlns="http://www.w3.org/2000/svg" width="182.428" height="65.158" viewBox="0 0 182.428 65.158">
  <g id="logo-white" transform="translate(0)">
    <path id="Path_16" data-name="Path 16" d="M92.781,22.887c-.7,0-1.116-.052-1.4-.649l-2.8-5.552a2.068,2.068,0,0,0-.675-.778v-.052a5.031,5.031,0,0,0,3.788-5.215,5.283,5.283,0,0,0-5.6-5.552H58.769c-1.193,0-1.686.493-1.686,1.686V19.022c0,1.038.13,2.568.13,2.568h-.052s-.908-1.583-1.583-2.568L45.59,5.09H43.8v17.2a.561.561,0,0,1-.623.623H31.762a.543.543,0,0,1-.6-.623V15.649h7.342V13.937H31.166V6.828h9.106c0-1.193-.493-1.738-1.686-1.738H29.22V22.939c0,1.193.493,1.686,1.686,1.686H44.034c1.193,0,1.686-.493,1.686-1.686V10.694c0-1.038-.156-2.517-.156-2.517h.052s.908,1.583,1.608,2.517l9.988,13.932H59V7.425a.554.554,0,0,1,.6-.623h4.462V22.939c0,1.193.493,1.686,1.686,1.686h8.458c1.193,0,1.686-.493,1.686-1.686V20.993H74.076v1.3a.561.561,0,0,1-.623.623H66.578a.561.561,0,0,1-.623-.623V15.649H73.3V13.937H65.956V6.828H79.524V24.651H81.47V16.427h3.269c1.09,0,1.453.13,1.972,1.167l2.8,5.578c.649,1.271,1.116,1.479,2.7,1.479h.856V22.939h-.389Zm-6.9-8.224H81.548V6.8h4.358a3.551,3.551,0,0,1,3.762,3.891,3.619,3.619,0,0,1-3.788,3.969" transform="translate(46.58 8.109)" fill="#fff"></path>
    <path id="Path_17" data-name="Path 17" d="M63.247,4.95A9.843,9.843,0,0,1,70.1,7.337L68.954,8.79a8.949,8.949,0,0,0-5.682-2c-4.384,0-7.757,3.528-7.757,8.224s3.295,8.3,7.731,8.3a8.493,8.493,0,0,0,6.174-2.854V18.051a.561.561,0,0,0-.623-.623H67.605V15.716h1.946c1.193,0,1.686.493,1.686,1.686v7.42h-1.79V23.344c0-.415.026-.83.026-.83h-.052a8.856,8.856,0,0,1-6.408,2.646c-5.344,0-9.573-4.281-9.573-10.144S57.669,4.95,63.195,4.95" transform="translate(85.195 7.886)" fill="#fff"></path>
    <path id="Path_18" data-name="Path 18" d="M67.413,16.106,62.2,7.519a1.3,1.3,0,0,0-1.3-.726H60.46V5.08h.752a2.513,2.513,0,0,1,2.672,1.557l3.295,5.526c.623,1.038,1.193,2.205,1.193,2.205h.052s.6-1.167,1.193-2.205l3.295-5.526A2.5,2.5,0,0,1,75.585,5.08h.752V6.792H75.9a1.244,1.244,0,0,0-1.271.726l-5.266,8.587v8.509H67.413V16.106Z" transform="translate(96.387 8.093)" fill="#fff"></path>
    <path id="Path_19" data-name="Path 19" d="M31.036,17.677H29.22V14.59h9.028a6.048,6.048,0,0,1,6.278,6.434c0,3.84-2.594,6.512-6.278,6.512h-3.58v6.823H31.01V17.7ZM37.6,24.4c2.05,0,3.217-1.323,3.217-3.4s-1.167-3.347-3.165-3.347H34.668v6.719h2.906Z" transform="translate(46.58 23.255)" fill="#fff"></path>
    <path id="Path_20" data-name="Path 20" d="M37.516,18.3a.573.573,0,0,0-.623-.623H35.7V14.59h3.554c1.349,0,1.894.571,1.894,1.894V30.623a.566.566,0,0,0,.6.623h4.307a.573.573,0,0,0,.623-.623V29.43h3.295v3.009c0,1.323-.545,1.894-1.894,1.894H39.384c-1.323,0-1.894-.545-1.894-1.894V18.3Z" transform="translate(56.911 23.255)" fill="#fff"></path>
    <path id="Path_21" data-name="Path 21" d="M43.016,18.3a.573.573,0,0,0-.623-.623H41.2V14.59h3.554c1.323,0,1.894.571,1.894,1.894V27.2a3.789,3.789,0,0,0,4.125,4.073A3.816,3.816,0,0,0,54.9,27.147V16.484c0-1.3.545-1.894,1.894-1.894h3.554v3.087H59.153a.554.554,0,0,0-.6.623v9c0,4.358-3.087,7.368-7.731,7.368s-7.783-3.009-7.783-7.368v-9Z" transform="translate(65.68 23.255)" fill="#fff"></path>
    <path id="Path_22" data-name="Path 22" d="M51.265,29.248a7.13,7.13,0,0,0,4.774,2.335c1.5,0,2.828-.8,2.828-2.335,0-3.373-9.288-3.087-9.288-9.236,0-3.191,2.776-5.552,6.59-5.552,2.309,0,5.863,1.09,5.863,3.891v1.842H58.737v-.882c0-.908-1.3-1.531-2.62-1.531-1.66,0-2.88.856-2.88,2.1,0,3.373,9.288,2.7,9.288,9.184,0,3.139-2.413,5.811-6.564,5.811a9.064,9.064,0,0,1-6.771-3.061l2.05-2.568Z" transform="translate(78.419 23.048)" fill="#fff"></path>
    <path id="Path_23" data-name="Path 23" d="M43.189,24.576,29.517,38.248a9.7,9.7,0,0,0-2.335-8.016c-.052-.052-.078-.1-.13-.156l5.5-5.474s2.075-2.1.13-4.073l-4.255-4.255s-2.309-2.958-4.748-.519L18.932,20.5l-5.344-.078-.208-5.292L19.373,9.14a10.409,10.409,0,0,1,.882-.7,8.183,8.183,0,0,1,5.4-2.179,8.655,8.655,0,0,1,5.682,2.335l11.96,11.96c1.946,1.972-.1,4.021-.1,4.021Z" transform="translate(21.326 9.975)" fill="#3d9246"></path>
    <path id="Path_24" data-name="Path 24" d="M38.111,14.395a6.274,6.274,0,0,0-1.219-.1,10.142,10.142,0,0,0-6.667,2.646c-.052.026-.078.052-.13.078l-5.422-5.422s-2.1-2.1-4.073-.13l-4.255,4.255s-2.906,2.231-.467,4.7l4.9,4.877V30.4l-5.708.1L13.75,29.183,11.6,27.029,9.262,24.694a9.886,9.886,0,0,1-.882-.96,8.144,8.144,0,0,1-2.05-5.241,5.5,5.5,0,0,1,.1-1.142,5.783,5.783,0,0,1,.233-1.012.278.278,0,0,1,.052-.156A3.984,3.984,0,0,1,7,15.407a1.721,1.721,0,0,1,.233-.493,5.573,5.573,0,0,1,.363-.675,9.32,9.32,0,0,1,.908-1.271L20.625.852c1.972-1.972,4.047.1,4.047.1L38.111,14.395Z" transform="translate(10.086 -0.002)" fill="#327a39"></path>
    <path id="Path_25" data-name="Path 25" d="M36.479,30.724a.091.091,0,0,0-.026.052h0c-.233.259-.363.389-.363.389l-3.917,3.917L24.13,43.125c-1.972,1.972-4.047-.1-4.047-.1L6.67,29.608a8.924,8.924,0,0,0,1.193.078,11.39,11.39,0,0,0,6.8-2.7l1.271,1.271,1.634,1.608,2.517,2.516s2.1,2.1,4.073.13l4.255-4.255s2.854-2.205.415-4.644l-4.748-4.748.208-5.578h5.241l1.427,1.453,1.868,1.868,2.672,2.672a9.887,9.887,0,0,1,.882.96,7.914,7.914,0,0,1,.1,10.481Z" transform="translate(10.628 21.183)" fill="#4cb457"></path>
    <path id="Path_26" data-name="Path 26" d="M30.869,29.432,24.72,35.555a10.884,10.884,0,0,1-.83.752,11.571,11.571,0,0,1-1.427,1.038,11.2,11.2,0,0,1-1.375.675h-.026c-.208.078-.415.13-.623.208-.285.078-.571.156-.856.208a6.782,6.782,0,0,1-2.179-.026,4.078,4.078,0,0,1-.6-.1,10.208,10.208,0,0,1-1.427-.493c-.052,0-.078-.026-.13-.052-.259-.13-.519-.259-.752-.389-.156-.078-.285-.156-.415-.233a8.379,8.379,0,0,1-1.271-.986L8.324,31.663.852,24.191c-1.972-1.972.1-4.047.1-4.047L14.576,6.55a9.591,9.591,0,0,0,2.205,7.731l.208.493-5.4,5.37s-2.1,2.1-.13,4.073l4.255,4.255s2.257,2.906,4.7.467l4.9-4.877h5.526Z" transform="translate(-0.003 10.437)" fill="#5cd668"></path>
    <path id="Path_27" data-name="Path 27" d="M67.1,3.45h3.087v.675H69.072V7.653h-.856V4.125H67.1Z" transform="translate(106.973 5.495)" fill="#fff"></path>
    <path id="Path_28" data-name="Path 28" d="M68.556,3.45h.96l1.349,3.139L72.214,3.45h.96V7.679h-.856V4.929l-1.142,2.75h-.649l-1.142-2.75v2.75H68.53V3.45Z" transform="translate(109.253 5.495)" fill="#fff"></path>
  </g>
</svg>
