<?xml version="1.0" encoding="UTF-8"?>
<svg xmlns="http://www.w3.org/2000/svg" version="1.1" viewBox="0 0 269.9 78.6">
  <defs>
    <style>
      .cls-1 {
        fill: #fff;
      }
    </style>
  </defs>
  <!-- Generator: Adobe Illustrator 28.6.0, SVG Export Plug-In . SVG Version: 1.2.0 Build 709)  -->
  <g>
    <g id="Layer_1">
      <g>
        <path class="cls-1" d="M171.8,39.3c0,20.8-16.4,37.1-37.4,37.1-20.6,0-37.2-16.5-37.2-37.1,0-20.6,16.6-37,37.5-37.1,21.1,0,37.6,17.5,37.1,37.1ZM150.4,52.5c.8,0,1.6,0,2.5-.1,2.5-.3,4.2-1.9,4.1-3.9-.1-2.5-1.9-3.3-4-3.7-.6-.1-1.5.4-1.7-.8,2.9-.3,5-1.4,4.7-4.7,0-.3.1-.7.3-1,1.7-2.3,0-2.5-1.7-2.8.2-.8.2-1.6,0-2.4-1.7-5.3-5.2-9.5-10.1-11.9-13.5-6.6-27.7,1-30,14.1-1.4.2-1.3,1.2-1.3,2.2,0,2.8,0,5.5,0,8.3,0,1.9.7,2.7,2.6,2.3.2.5.2,1.1.5,1.5,5.1,7.6,12.2,11.5,21.5,10.3,5.1-.6,9.7-2.8,12.7-7.4ZM163.4,43.3c-1-2.5-1.9-4.6-2.7-6.7-.4-1-1.3-1.3-2.3-1-1.4.4-.5,1.3-.3,2,.3,1.1.8,2,1,3.1.7,3.2,3.4,6.1,1.3,9.8-.3.6.2,2,1.1,2.2.7.2,1.5-.5,1.9-1.3.2-.6.5-1.2.7-1.8,1-3.8,3.4-7.1,4.1-11.1.2-1.1,1.3-2.2-.4-2.8-1.6-.6-2,.8-2.4,1.9-.6,1.8-1.2,3.6-2,5.8ZM100.9,39.6c0,2.1,0,4.2,0,6.2,0,1.3.5,2.1,1.9,2.2,1.8,0,3.6,0,5.4.3.7.1,2.2,0,2.1-1.5,0-1.1-.9-1.5-1.9-1.5-.9,0-1.8,0-2.7,0-1.4,0-1.8-.5-2-1.9-.3-2.8,1.1-3.3,3.4-3,.8,0,1.8.2,1.8-1,0-1-.8-1.3-1.8-1.3-.4,0-.7,0-1.1,0-1.7.2-2.4-.4-2.4-2.2,0-1.8.9-2.1,2.4-2,.7,0,1.5,0,2.2,0,.7,0,1.5,0,1.6-1,0-1.2-.8-1.2-1.6-1.3q-7.3-.7-7.3,6.4c0,.5,0,1.1,0,1.6Z"/>
        <path class="cls-1" d="M89.6,36.4c0-1.7,0-3.2,0-4.6,0-.8.1-1.5,1.1-1.5.8,0,1.2.5,1.2,1.2,0,5.1,0,10.1,0,15.2,0,.5-.5,1.1-.8.8-1.7-1.3-3.1.2-4.6.2-1.9,0-3.4-.8-4.2-2.5-1.2-2.5-1.1-5.1.1-7.6,1.2-2.4,3.4-2.7,7.2-1.2ZM89.6,41.8c0-3-1.4-4.8-3.4-4.1-2.5.9-2.4,3.1-2.2,5.3.2,1.5.8,2.9,2.5,2.7,2.1-.3,3.4-1.6,3.1-3.8Z"/>
        <path class="cls-1" d="M7.2,39.4c0-2,0-4,0-6,0-1.5.5-1.9,1.9-1.8,1.2,0,2.4,0,3.6,0,1.9,0,3.3.8,4.1,2.6.8,1.8.5,3.4-1,4.7-.9.8-.9,1.3-.3,2.2.8,1.5,1.5,3.1,2.1,4.7.2.5.6,1.3-.1,1.7-.7.4-1.5,0-1.9-.7-.6-1.2-1.1-2.5-1.6-3.7-.4-.9-.8-1.9-1.8-2.3-1.5-.6-2.7-.7-2.7,1.5,0,1,0,2,0,3,0,.9.4,2.3-1.2,2.2-1.3,0-1.1-1.2-1.1-2.1,0-2,0-4,0-6ZM9.5,36.1c0,1.4-.3,2.9,1.7,2.6,1.7-.2,3.3-.6,3.3-2.8,0-2-1.6-2.1-3-2.3-2.1-.2-2.1,1.2-2,2.5Z"/>
        <path class="cls-1" d="M178.9,47.8c-.4-.1-1.2-.2-2-.5-1-.4-2.4-1-1.8-2.2.6-1.3,1.6,0,2.3.3,1,.3,1.9.6,2.9.3,1.1-.3,2-.9,2.2-2.2.2-1.3-.6-2-1.6-2.6-1.3-.7-2.7-1.2-3.8-2.1-2.1-1.6-2.3-4.5-.6-6.2,1.6-1.7,5.6-1.9,7.1-.4.4.4.7.9.4,1.5-.3.8-.9.4-1.4.2-.6-.2-1.2-.4-1.8-.5-1.1,0-2.3,0-2.7,1.3-.4,1.2.3,2.1,1.3,2.7.7.4,1.4.8,2.2,1.1,2.2,1.1,3.9,2.5,3.3,5.2-.5,2.4-2.9,4-6,4Z"/>
        <path class="cls-1" d="M191.4,35.4c2.5,0,4,.7,5,2.3,1.8,3,.9,4.5-2.5,4.5-.7,0-1.5,0-2.2,0-.9.1-2.3-.5-2.4,1,0,1.3.9,2.1,2.2,2.4,1.3.3,2.5,0,3.7-.4.5-.2,1.1-.2,1.3.5.2.7-.3,1-.8,1.2-2.5.9-5.1,1.5-7.3-.7-2.2-2.1-2-4.7-1.3-7.4.7-2.4,2.5-3.4,4.3-3.5ZM192.3,40.5c.6-.6,2.2.7,2.3-.9,0-1.3-.9-2.2-2.3-2.2-1.5,0-3,.7-2.8,2.2.1,1.4,1.8.4,2.8.9Z"/>
        <path class="cls-1" d="M68.6,41.4c0-.9-.1-1.8,0-2.7.2-1.3-1.1-4.4,2.5-2.3.3.2,1-.4,1.5-.5,2.8-1,5.3.4,5.6,3.3.3,2.3.1,4.7.2,7.1,0,.8-.1,1.5-1.2,1.4-.8-.1-1.2-.7-1.2-1.6,0-1.8,0-3.6,0-5.4,0-1.4-.2-3-2.1-2.9-1.6,0-2.7,1.2-2.8,2.8-.1,1.3.1,2.6,0,3.8-.2,1.1,1,3.2-1.2,3.2-1.9,0-1-2-1.2-3.1-.1-1,0-2,0-3Z"/>
        <path class="cls-1" d="M235.9,41.5c0-3.6,1.6-5.7,4.5-6,2.9-.3,5.2,1.4,5.7,4.2.3,1.6,0,2.7-2,2.6-1.2,0-2.4,0-3.5,0-.8,0-2.1-.3-2.2,1-.1,1.2.7,2.1,1.8,2.4,1.2.3,2.3.2,3.5-.2.7-.2,1.6-.6,1.8.4.2.7-.6,1.2-1.3,1.5-4.1,2.1-8.5-1-8.5-5.9ZM241,40.5c.9-.5,2.5.7,2.6-1,.1-1.4-1-2-2.3-2-1.4,0-2.7.7-2.7,2.1,0,1.7,1.7.5,2.5,1Z"/>
        <path class="cls-1" d="M25.7,47.8c-4.6,0-6.6-2.4-6.4-7,.2-3.5,2.5-5.7,5.8-5.4,1.6.2,3,.9,3.8,2.3.6,1.1,1.2,2.4.7,3.6-.6,1.4-2.1.7-3.2.9-.7,0-1.5,0-2.2,0-.9,0-2.3-.4-2.3,1.1,0,1.3.9,2.1,2.2,2.3,1.1.2,2.2,0,3.2-.3.6-.2,1.4-.4,1.7.3.3.8-.5,1.3-1.1,1.5-.8.4-1.7.4-2.2.5ZM24.4,40.5c.8-.6,2.6.9,2.6-1.2,0-1.4-1.2-1.9-2.5-1.9-1.5,0-2.7.8-2.6,2.2,0,1.5,1.6.5,2.5.9Z"/>
        <path class="cls-1" d="M41.8,41.3c0-3.9,1.9-5.9,5.5-5.9,3.5,0,5.8,2.4,5.8,6.1,0,3.4-2.7,6.3-6,6.2-3.4,0-5.3-2.4-5.3-6.4ZM44,42.3c.2,1.6.5,3.5,3.1,3.5,2.3,0,3.5-1.5,3.5-4.5,0-2.1-.6-3.8-3.2-3.8-2.2,0-3.4,1.7-3.4,4.8Z"/>
        <path class="cls-1" d="M65.3,41.8c0,1,0,2,0,3,0,1.5.6,3.9-2.4,2.1-.6-.3-1,.2-1.5.4-3.1,1.1-5.6-.3-5.8-3.5-.2-2.3,0-4.5,0-6.8,0-.6,0-1.4.9-1.4,1,0,1.3.6,1.3,1.4,0,1.7,0,3.4,0,5.2,0,1.5,0,3.5,2.1,3.4,2.1,0,3.2-1.5,3.1-3.7,0-1.5,0-3.1,0-4.6,0-.7-.2-1.6.9-1.7,1.1,0,1.3.8,1.4,1.6,0,1.5,0,3.1,0,4.6,0,0,0,0,0,0Z"/>
        <path class="cls-1" d="M212.7,43.6c1.4-1.9,1.7-4.2,2.5-6.2.3-.9.5-2.2,1.9-1.8,1.4.5.7,1.6.4,2.5-.9,2.7-1.9,5.3-2.8,7.9-.3.8-.7,1.5-1.6,1.6-1,0-1.8-.4-2.1-1.3-1.2-3-2.3-6.1-3.4-9.1-.2-.4-.3-1,.3-1.1.8-.2,1.7-.4,2.1.7.5,1.3.9,2.6,1.4,3.8.4,1,.4,2.1,1.4,3Z"/>
        <path class="cls-1" d="M252.3,35.4c.8,0,1.6,0,2.4.5.6.3,1.1.8.8,1.5-.3.8-.9.3-1.4.2-.6-.1-1.3-.2-1.9-.1-.7,0-1.2.4-1.4,1.1,0,.6.3,1.1.7,1.3.7.4,1.5.7,2.2,1,1.5.7,2.5,1.8,2.3,3.6-.1,1.6-1,2.4-2.5,2.9-1.9.5-3.6.4-5.1-.9-.3-.3-.6-.7-.3-1.2.4-.8.9-.2,1.4,0,.6.2,1.2.4,1.8.5,1,.1,1.9-.1,2.3-1.1.5-1.2-.5-1.6-1.3-2-.6-.3-1.2-.5-1.7-.8-1.5-.9-2.7-2-2.1-3.9.5-1.8,2-2.4,3.8-2.5Z"/>
        <path class="cls-1" d="M35.2,47.8c-.5-.1-1.2-.3-1.9-.5-.9-.3-1.9-.9-1.4-1.9.5-1,1.2.1,1.8.2.7,0,1.4.2,2.1.2.8,0,1.4-.6,1.5-1.4.1-.8-.4-1.2-1-1.5-1-.5-2-.9-2.9-1.5-1.1-.8-1.8-1.9-1.5-3.3.3-1.5,1.4-2.3,2.8-2.6,1.3-.3,2.7-.2,3.9.8.3.3.5.8.3,1.2-.3.5-.7.3-1.2.2-.4-.1-.9-.2-1.3-.3-1.1-.3-2.1,0-2.5,1.1-.4,1.1.9,1.3,1.5,1.7.4.3,1,.4,1.5.7,1.9.8,3,2.1,2.6,4.2-.5,2.2-2.4,2.5-4.4,2.7Z"/>
        <path class="cls-1" d="M225.5,41.4c0-4.7,3.7-7.4,7.5-5.5.9.5,1.7,1.1,1.2,2.1-.5,1-1.2-.1-1.8-.3-1.3-.3-2.6-1.1-3.6.5-1.2,1.8-1.4,5-.1,6.4,1.1,1.3,2.4,1.1,3.7.5.6-.2,1.2-1.3,1.8-.2.6,1-.5,1.5-1.1,1.9-1.6.9-3.3,1.3-5.1.2-2.1-1.4-2.7-3.3-2.5-5.6Z"/>
        <path class="cls-1" d="M201.4,35.5c1,2,2.1,0,3.3,0,1,0,1.9.1,2.1,1.3.1,1.1-.8.9-1.5,1-1.9.4-2.7,1.7-2.7,3.5,0,1.6,0,3.3,0,4.9,0,.7-.1,1.3-1,1.4-.9,0-1.5-.4-1.5-1.2,0-3.2,0-6.4,0-9.5,0-.7.3-1.2,1.3-1.2Z"/>
        <path class="cls-1" d="M220.2,41.4c0-1.5,0-2.9,0-4.4,0-.8.2-1.5,1.1-1.5.9,0,1.3.7,1.3,1.4,0,3.1,0,6.2,0,9.3,0,.7-.2,1.3-1,1.3-1,0-1.5-.6-1.5-1.5,0-1.5,0-3.1,0-4.6Z"/>
        <path class="cls-1" d="M221.3,31.1c.9,0,1.3.5,1.4,1.3,0,.8-.5,1.4-1.3,1.3-.9-.1-1.4-.6-1.4-1.6,0-.9.7-.9,1.3-.9Z"/>
        <path class="cls-1" d="M114.5,35.1c2.3-13.1,16.5-20.7,30-14.1,4.9,2.4,8.3,6.6,10.1,11.9.3.8.2,1.6,0,2.4-.9,0-1.8-.1-2.7-.2-4.2-.2-5.7,1.7-5.2,5.8.2,1.9,0,3.9-.4,5.8-.9,3.7,0,5.2,4.1,5.7-3,4.5-7.6,6.7-12.7,7.4-9.3,1.2-16.4-2.7-21.5-10.3-.3-.4-.3-1-.5-1.5.1-.3.3-.6.4-1,.6-2,.1-4.1.3-6.2,0-1.7,1.1-2.5,2.6-2.5,1.4,0,1.5,1.3,1.6,2.4,0,1.7,0,3.4,0,5.2,0,1.1.2,2.1,1.5,2.2,1.4,0,1.5-1,1.5-2.1,0-1.7,0-3.4,0-5.2,0-4.2-2.2-6-6.3-5.3-1.1.2-1.9.1-2.8-.4ZM125.1,41.7c-.4,5.8,5.7,7.3,9.3,6,.8-.3,1.5-.7,1.3-1.7-.3-1.1-1.1-1-1.9-.8-1.2.4-2.5.6-3.8.2-1-.3-1.6-1-1.4-2,.2-1,1.1-.7,1.8-.7,1.2,0,2.4,0,3.5,0,2,.1,2.6-.8,2.3-2.7-.4-3.1-2.6-4.7-6.3-4.5-2.8.2-4.9,2.8-4.8,6.2ZM138.8,41.5h0c0,1.7,0,3.4,0,5.1,0,1,.4,1.9,1.6,1.8.9,0,1.3-1,1.3-1.8,0-1.9,0-3.8,0-5.7,0-1.7.6-3,2.6-3.2.8,0,1.4,0,1.3-1.1,0-1-.7-1.4-1.6-1.5-4.5-.4-5.2.2-5.2,4.7,0,.5,0,1.1,0,1.6Z"/>
        <path class="cls-1" d="M151.1,50.1c-.9-.4-2.5,0-2.7-1.5,0-1.1.9-2.3,2.1-1.9,1.2.4,3.4-.2,3.4,1.7,0,1.3-1.6,1.5-2.9,1.7Z"/>
        <path class="cls-1" d="M150.9,37.3c1,.6,2.2.8,2,2.3-.1,1.3-1,2-2.2,1.8-.9-.1-2-.5-1.8-1.9.2-1.2,1-1.8,2-2.2Z"/>
        <path class="cls-1" d="M130.9,40.3c-.7-.4-2.2.6-2.1-.9,0-1.1,1.3-1.7,2.5-1.7,1.1,0,2.1.5,2,1.7-.2,1.5-1.6.5-2.4.9Z"/>
      </g>
    </g>
  </g>
</svg>