<?xml version="1.0" encoding="utf-8"?>
<!-- Generator: Adobe Illustrator 25.2.2, SVG Export Plug-In . SVG Version: 6.00 Build 0)  -->
<svg version="1.1" id="Calque_1" xmlns="http://www.w3.org/2000/svg" xmlns:xlink="http://www.w3.org/1999/xlink" x="0px" y="0px"
	 viewBox="0 0 720 576" style="enable-background:new 0 0 720 576;" xml:space="preserve">
<style type="text/css">
	.st0{fill:#1D1D1B;}
</style>
<g>
	<path class="st0" d="M142.9,215.6c-14.5,0-27.9,5.6-36.8,14.5c-39.6,38.5,13.3,94.1,36,129.9c0.4,0.6,1.3,0.6,1.7,0
		c22.8-35.7,75.5-91.3,35.9-129.9C169.6,221.2,157.4,215.6,142.9,215.6z M163.7,274.5c0,9.6-6.7,18-16,20.2v20
		c0,2.6-2.1,4.7-4.7,4.7c-2.6,0-4.7-2.1-4.7-4.7v-20c-9.3-2.2-16-10.6-16-20.2v-15.2h8.5v-11.4c0-1.8,1.4-3.2,3.2-3.2
		c1.8,0,3.2,1.4,3.2,3.2v11.4h11.5v-11.4c0-1.8,1.4-3.2,3.2-3.2c1.8,0,3.2,1.4,3.2,3.2v11.4h8.5V274.5z"/>
	<path class="st0" d="M269,277.4c-2.3-0.3-4.9-0.6-7.7-0.9c-3.8-0.4-7.6-0.8-10.7-1.3c-3.4-0.6-7.5-2.4-7.5-7.9
		c0-2.5,0.8-4.4,2.5-6.3c3.6-3.7,9.6-4.3,12.8-4.3c4.6,0,9.7,1.7,12,4.1c1.9,2.1,3.3,5,3.4,7.5l0.1,1.3h18.5l0-1.4
		c-0.1-6.9-3.2-13.5-9.1-19.1c-5.9-5.5-14.9-8.6-24.7-8.6c-10.2,0-19.9,3.5-25.9,9.4c-5.1,5.1-7.8,11.3-7.8,17.7
		c0,13.4,8.5,22.8,22.7,25.1c2.7,0.5,5.9,0.8,8.9,1.1c3.4,0.3,6.9,0.7,9.9,1.2c4.1,0.7,9,2.9,9,8.8c0,3.8-1.4,5.5-3,7.2
		c-3.3,3.4-9.3,4.2-13.8,4.2c-4.2,0-9.9-0.7-13.3-4.2c-2.6-2.6-4-6-4-9.5v-1.3h-18.5v1.3c0,7.7,3.5,15.5,9.3,20.8
		c6.4,5.9,15.8,9.1,26.3,9.1c8.4,0,20-1.7,27.8-9.5c5-5,7.5-11.3,7.5-18.7C293.6,292.5,287.1,280,269,277.4z"/>
	<polygon class="st0" points="373.9,297.2 357.9,243.5 343,243.5 326.7,297.2 315.7,242.2 298.2,242.2 315.9,330 333.4,330 
		350.2,274.6 367,330 384.5,330 402,242.2 385.1,242.2 	"/>
	<polygon class="st0" points="409.6,259.3 434.8,259.3 434.8,330 452.9,330 452.9,259.3 478.1,259.3 478.1,242.2 409.6,242.2 	"/>
	<path class="st0" d="M517.2,257.4c5.1,0,9.4,1.7,11.8,4.8c2.2,2.7,3.2,5.1,3.5,8.3l0.1,1.2h18.5l-0.2-1.5
		c-0.6-5.4-2.5-13.1-8.5-19.3c-6.4-6.5-15.6-10.2-25.3-10.2c-9.9,0-18.5,3.5-25.1,10c-10.1,10.1-11,23.1-11,35.5
		c0,12.4,0.8,25.4,11,35.5c6.5,6.5,15.1,9.9,25.1,9.9c9.5,0,18.8-3.8,25.3-10.5l0,0c4.7-4.8,7.7-11.7,8.5-19.4l0.2-1.5h-18.5
		l-0.1,1.2c-0.3,3.3-1.4,6.1-3.6,8.7c-2.4,3.1-6.8,4.9-11.8,4.9c-4.6,0-9-1.9-12.1-5.2c-5.5-5.7-5.5-16-5.5-23.6
		c0-7.5,0-17.8,5.5-23.6C508.2,259.3,512.6,257.4,517.2,257.4z"/>
	<polygon class="st0" points="610,242.2 610,275.5 577.8,275.5 577.8,242.2 559.6,242.2 559.6,330 577.8,330 577.8,292.9 610,292.9 
		610,330 628.2,330 628.2,242.2 	"/>
</g>
</svg>
