<svg version="1.1" id="Capa_1" xmlns:x="ns_extend;" xmlns:i="ns_ai;" xmlns:graph="ns_graphs;" xmlns="http://www.w3.org/2000/svg" xmlns:xlink="http://www.w3.org/1999/xlink" x="0px" y="0px" viewBox="0 0 718.6 165" style="enable-background:new 0 0 718.6 165;" xml:space="preserve">
 <metadata>
  <sfw xmlns="ns_sfw;">
   <slices>
   </slices>
   <sliceSourceBounds bottomLeftOrigin="true" height="165" width="718.6" x="-434.6" y="42.4">
   </sliceSourceBounds>
  </sfw>
 </metadata>
 <g>
  <g>
   <g>
    <g>
     <g>
      <path d="M693.1,63.8h10.8v1H699v12.2h-1.1V64.8h-4.8L693.1,63.8L693.1,63.8z">
      </path>
      <path d="M712.1,77.1L707.3,66v11.1h-1.1V63.8h1.2l5,11.7l5-11.7h1.2v13.3h-1.1V66l-4.8,11.1H712.1z">
      </path>
     </g>
    </g>
   </g>
   <path d="M678.3,39.2c0,10.1,0,0.8,0,24.1h-21v32.6c0,4-1.7,7.5-6.8,7.5c-5.1,0-6.9-3.5-6.9-7.5V63.3h-21.5v32.6
			c0,4-1.7,7.5-6.8,7.5s-6.8-3.5-6.8-7.5V63.3h-21.9c0-25.2,0.2-17.3,0.2-24.2C586.8,12.7,610,0,632.5,0
			C654.9,0,678.3,12.6,678.3,39.2z">
   </path>
   <path d="M651.1,128.2c-6.8,0-13.7-3.7-18.4-9.1h-0.1c-4.7,5.3-11.6,9.1-18.4,9.1c-8.4,0-16.4-3.3-21.5-9.1h-6
			c0,25.3,20.5,45.8,45.8,45.8c25.3,0,45.8-20.5,45.8-45.8h-5.6C667.5,124.9,659.6,128.2,651.1,128.2L651.1,128.2z">
   </path>
  </g>
  <g>
   <path d="M0,61.7h22.1v39.9c0,4.1,1.8,7.7,7.1,7.7s7.1-3.6,7.1-7.7V61.7h22.1v39.9c0,4.1,1.8,7.7,7.1,7.7s7.1-3.6,7.1-7.7V61.7
			h22.1v43.4c0,15.6-13.4,25.5-28.2,25.5c-7.1,0-14.2-3.9-19.1-9.4c-4.8,5.5-12,9.4-19.1,9.4c-14.8,0-28.2-9.8-28.2-25.5V61.7
			L0,61.7z">
   </path>
   <path d="M181,129h-23.4v-7.3h-0.3c-4.1,6.6-12.2,9.5-19.9,9.5c-19.5,0-33.3-16.3-33.3-35.2s13.5-35.1,33-35.1
			c7.6,0,15.6,2.8,20.4,8.6v-6.4H181V129z M128.3,96.1c0,8.3,5.5,14.8,15,14.8c9.5,0,15-6.4,15-14.8c0-8.1-5.5-14.9-15-14.9
			C133.8,81.2,128.3,88,128.3,96.1">
   </path>
   <rect x="194" y="22.3" width="23.4" height="106.7">
   </rect>
   <rect x="232.8" y="22.3" width="23.4" height="106.7">
   </rect>
   <path d="M270.9,22.3h23.4v47.2c5-5.8,12.9-8.6,20.4-8.6c19.5,0,33,16.2,33,35.1c0,19-13.6,35.2-33.3,35.2c-7.7,0-15.7-3-19.9-9.5
			h-0.3v7.3h-23.4V22.3z M293.5,96.1c0,8.3,5.5,14.8,15,14.8c9.5,0,15-6.4,15-14.8c0-8.1-5.5-14.9-15-14.9
			C299,81.2,293.5,88,293.5,96.1">
   </path>
   <path d="M433.9,96.1c0,22.4-18.5,35.1-39.7,35.1c-21.1,0-39.7-12.6-39.7-35.1s18.5-35.2,39.7-35.2
			C415.4,60.9,433.9,73.6,433.9,96.1 M379.2,96.1c0,8.3,5.5,14.8,15,14.8c9.5,0,15-6.4,15-14.8c0-8.1-5.5-14.9-15-14.9
			C384.7,81.2,379.2,88,379.2,96.1">
   </path>
   <polygon points="433.3,63.1 463,63.1 474.8,76.7 486.7,63.1 516.9,63.1 489.6,93.3 522.5,129 491.8,129 474.8,109.5 457.8,129 
			427.1,129 460,93.3 		">
   </polygon>
  </g>
 </g>
</svg>