<svg xmlns="http://www.w3.org/2000/svg" xmlns:xlink="http://www.w3.org/1999/xlink" id="#x5716;&#x5C64;_1" x="0px" y="0px" viewBox="0 0 123 24" style="enable-background:new 0 0 123 24;" xml:space="preserve"><style type="text/css">	.st0{clip-path:url(#SVGID_2_);}	.st1{fill:#00818E;}</style><g>	<defs>		<rect id="SVGID_1_" y="0" width="123" height="23.7"></rect>	</defs>	<clipPath id="SVGID_2_">		<use href="#SVGID_1_" style="overflow:visible;"></use>	</clipPath>	<g class="st0">		<path class="st1" d="M29.2,16.8l6.7-8.2c0.8-1,1.4-1.5,1.4-1.5h-7.6V4.4h11.7v2.4l-6.4,7.9c-0.8,1-1.6,1.8-1.6,1.8h8.2v2.7H29.2   L29.2,16.8L29.2,16.8z"></path>		<path class="st1" d="M44.7,4.4h11.5v2.7h-8.3v3h7.9v2.7h-7.9v3.6h8.6v2.7H44.7V4.4z"></path>		<path class="st1" d="M59.6,4.4h6.3c4.3,0,6.6,2.6,6.6,5.7c0,1.9-1,3.7-2.8,4.7l3.1,4.4h-3.6l-2.3-3.5c-0.4,0.1-0.8,0.1-1.2,0.1   h-2.8v3.4h-3.2V4.4z M66,13.1c1.9,0,3.1-1.4,3.1-3c0-1.6-1.3-3-3.1-3h-3.2v6L66,13.1L66,13.1z"></path>		<path class="st1" d="M75.4,11.8c0-4.2,3.2-7.7,7.8-7.7c4.5,0,7.8,3.4,7.8,7.7c0,4.2-3.2,7.7-7.8,7.7   C78.6,19.5,75.4,16.1,75.4,11.8z M87.6,11.8c0-2.6-1.9-4.7-4.4-4.7c-2.6,0-4.5,2.1-4.5,4.7c0,2.6,1.9,4.8,4.5,4.8   C85.7,16.6,87.6,14.5,87.6,11.8z"></path>		<path class="st1" d="M92.9,4.4h3.2l3.2,8.7c0.3,0.8,0.9,2.5,0.9,2.6c0-0.1,0.6-1.8,0.9-2.6l3.3-8.7h3.2l-5.7,14.9h-3.3L92.9,4.4z"></path>		<path class="st1" d="M113.5,4.4h3.1l6.4,14.8h-3.2l-1-2.4h-7.4l-1,2.4h-3.2L113.5,4.4L113.5,4.4z M117.8,14.4l-1.7-4.2   c-0.5-1.1-1-2.6-1-2.7c0,0-0.6,1.5-1,2.7l-1.7,4.2H117.8L117.8,14.4z"></path>		<polygon class="st1" points="0.8,0 0.8,11.8 5.4,11.8 14.8,3.9 13.2,11.8 17.9,11.8 23.4,0   "></polygon>		<polygon class="st1" points="17.9,11.8 8.6,19.7 10.1,11.8 5.5,11.8 0,23.7 22.6,23.7 22.6,11.8   "></polygon>	</g></g></svg>